%TF.GenerationSoftware,Altium Limited,Altium Designer,25.8.1 (18)*%
G04 Layer_Color=32896*
%FSLAX45Y45*%
%MOMM*%
%TF.SameCoordinates,C83170FB-7693-46FD-9F59-C890998B4B8C*%
%TF.FilePolarity,Positive*%
%TF.FileFunction,Legend,Bot*%
%TF.Part,Single*%
G01*
G75*
G36*
X2325000Y210245D02*
Y35904D01*
X1042721D01*
Y210245D01*
Y364096D01*
X2325000D01*
Y210245D01*
D02*
G37*
G36*
Y914110D02*
Y699982D01*
X580732D01*
Y914110D01*
Y1100018D01*
X2325000D01*
Y914110D01*
D02*
G37*
G36*
Y364359D02*
X1355467D01*
Y535642D01*
X2325000D01*
Y364359D01*
D02*
G37*
G36*
X3530000Y20000D02*
X2370000D01*
Y1180000D01*
X3530000D01*
Y20000D01*
D02*
G37*
%LPC*%
G36*
X1631575Y314916D02*
X1630132D01*
X1629022Y314805D01*
X1627801Y314694D01*
X1626358Y314472D01*
X1624693Y314250D01*
X1622917Y313917D01*
X1621030Y313473D01*
X1619143Y312918D01*
X1617145Y312252D01*
X1615147Y311475D01*
X1613260Y310476D01*
X1611373Y309366D01*
X1609486Y308145D01*
X1607822Y306702D01*
X1607711Y306591D01*
X1607489Y306369D01*
X1607045Y305814D01*
X1606490Y305259D01*
X1605824Y304482D01*
X1605047Y303484D01*
X1604270Y302374D01*
X1603382Y301042D01*
X1602605Y299710D01*
X1601828Y298156D01*
X1601051Y296491D01*
X1600385Y294715D01*
X1599830Y292717D01*
X1599386Y290719D01*
X1599164Y288610D01*
X1599053Y286390D01*
Y285169D01*
X1599164Y284614D01*
Y283837D01*
X1599386Y282172D01*
X1599719Y280063D01*
X1600163Y277843D01*
X1600718Y275512D01*
X1601606Y273181D01*
Y273070D01*
X1601717Y272959D01*
X1601828Y272515D01*
X1602050Y272071D01*
X1602383Y271516D01*
X1602716Y270850D01*
X1603493Y269185D01*
X1604603Y267298D01*
X1605935Y265078D01*
X1607600Y262636D01*
X1609486Y260083D01*
X1609708Y259861D01*
X1610152Y259195D01*
X1611151Y258196D01*
X1612372Y256753D01*
X1613260Y255865D01*
X1614148Y254866D01*
X1615258Y253867D01*
X1616368Y252646D01*
X1617700Y251425D01*
X1619143Y249982D01*
X1620697Y248540D01*
X1622362Y246986D01*
X1622473Y246875D01*
X1622806Y246653D01*
X1623250Y246209D01*
X1623805Y245654D01*
X1624582Y244988D01*
X1625470Y244211D01*
X1627357Y242435D01*
X1629355Y240548D01*
X1631242Y238661D01*
X1632130Y237773D01*
X1632907Y236996D01*
X1633573Y236219D01*
X1634128Y235664D01*
X1634239Y235553D01*
X1634572Y235220D01*
X1635016Y234665D01*
X1635571Y233999D01*
X1636126Y233111D01*
X1636792Y232223D01*
X1638124Y230336D01*
X1599053D01*
Y212132D01*
X1667871D01*
Y212243D01*
X1667760Y212576D01*
Y213131D01*
X1667649Y213908D01*
X1667427Y214796D01*
X1667205Y215906D01*
X1666983Y217127D01*
X1666650Y218459D01*
X1665762Y221456D01*
X1664542Y224786D01*
X1663099Y228227D01*
X1661212Y231668D01*
X1661101Y231779D01*
X1660990Y232112D01*
X1660546Y232667D01*
X1660102Y233333D01*
X1659436Y234221D01*
X1658548Y235442D01*
X1657549Y236663D01*
X1656328Y238217D01*
X1654996Y239882D01*
X1653331Y241658D01*
X1651555Y243767D01*
X1649557Y245876D01*
X1647337Y248207D01*
X1644784Y250759D01*
X1642120Y253423D01*
X1639123Y256198D01*
X1639012Y256309D01*
X1638568Y256753D01*
X1637902Y257419D01*
X1637014Y258196D01*
X1635904Y259195D01*
X1634794Y260305D01*
X1633462Y261637D01*
X1632130Y262969D01*
X1629244Y265744D01*
X1626580Y268519D01*
X1625470Y269740D01*
X1624360Y270961D01*
X1623472Y272071D01*
X1622806Y272959D01*
Y273070D01*
X1622584Y273181D01*
X1622473Y273514D01*
X1622140Y273958D01*
X1621474Y275179D01*
X1620697Y276733D01*
X1620031Y278509D01*
X1619365Y280507D01*
X1618921Y282727D01*
X1618699Y284947D01*
Y285058D01*
Y285280D01*
Y285613D01*
Y286057D01*
X1618921Y287167D01*
X1619143Y288721D01*
X1619587Y290275D01*
X1620142Y291940D01*
X1621030Y293605D01*
X1622251Y295048D01*
X1622362Y295159D01*
X1622917Y295603D01*
X1623694Y296158D01*
X1624804Y296824D01*
X1626247Y297490D01*
X1627912Y298045D01*
X1629799Y298489D01*
X1632019Y298600D01*
X1633018D01*
X1634128Y298378D01*
X1635571Y298156D01*
X1637125Y297712D01*
X1638790Y297046D01*
X1640455Y296047D01*
X1641898Y294826D01*
X1642009Y294604D01*
X1642453Y294160D01*
X1643008Y293272D01*
X1643785Y291940D01*
X1644451Y290275D01*
X1645117Y288166D01*
X1645672Y285613D01*
X1645894Y284170D01*
X1646005Y282616D01*
X1665540Y284503D01*
Y284725D01*
X1665429Y285169D01*
X1665318Y286057D01*
X1665096Y287167D01*
X1664874Y288499D01*
X1664542Y290053D01*
X1664098Y291718D01*
X1663543Y293494D01*
X1662877Y295381D01*
X1662100Y297268D01*
X1661212Y299266D01*
X1660213Y301153D01*
X1659103Y303040D01*
X1657771Y304815D01*
X1656328Y306369D01*
X1654663Y307812D01*
X1654552Y307923D01*
X1654219Y308145D01*
X1653664Y308478D01*
X1652998Y308922D01*
X1652110Y309477D01*
X1651000Y310032D01*
X1649779Y310698D01*
X1648336Y311364D01*
X1646671Y312030D01*
X1645006Y312696D01*
X1643119Y313251D01*
X1641010Y313806D01*
X1638901Y314250D01*
X1636570Y314583D01*
X1634128Y314805D01*
X1631575Y314916D01*
D02*
G37*
G36*
X1779868Y313251D02*
X1727921D01*
Y294826D01*
X1765106D01*
X1768214Y277399D01*
X1768103D01*
X1767881Y277510D01*
X1767548Y277732D01*
X1767104Y277954D01*
X1766438Y278176D01*
X1765772Y278509D01*
X1764107Y279064D01*
X1761998Y279730D01*
X1759778Y280174D01*
X1757336Y280618D01*
X1754783Y280729D01*
X1754228D01*
X1753562Y280618D01*
X1752563D01*
X1751453Y280396D01*
X1750121Y280174D01*
X1748678Y279952D01*
X1747124Y279508D01*
X1745348Y279064D01*
X1743572Y278398D01*
X1741796Y277621D01*
X1739909Y276733D01*
X1738022Y275623D01*
X1736135Y274291D01*
X1734359Y272848D01*
X1732583Y271183D01*
X1732472Y271072D01*
X1732139Y270739D01*
X1731695Y270184D01*
X1731140Y269407D01*
X1730474Y268519D01*
X1729697Y267409D01*
X1728809Y266077D01*
X1727921Y264523D01*
X1727144Y262858D01*
X1726256Y260971D01*
X1725479Y258862D01*
X1724813Y256753D01*
X1724258Y254311D01*
X1723814Y251869D01*
X1723481Y249205D01*
X1723370Y246431D01*
Y245210D01*
X1723481Y244322D01*
X1723592Y243212D01*
X1723814Y241880D01*
X1724036Y240437D01*
X1724258Y238883D01*
X1724702Y237107D01*
X1725146Y235331D01*
X1725812Y233444D01*
X1726478Y231557D01*
X1727366Y229559D01*
X1728365Y227672D01*
X1729475Y225674D01*
X1730807Y223787D01*
X1730918Y223676D01*
X1731251Y223232D01*
X1731806Y222566D01*
X1732694Y221678D01*
X1733693Y220679D01*
X1734914Y219458D01*
X1736357Y218237D01*
X1738022Y217016D01*
X1739909Y215795D01*
X1742018Y214574D01*
X1744238Y213353D01*
X1746680Y212354D01*
X1749344Y211466D01*
X1752230Y210800D01*
X1755338Y210356D01*
X1758557Y210245D01*
X1759889D01*
X1760888Y210356D01*
X1762109Y210467D01*
X1763552Y210689D01*
X1765106Y210911D01*
X1766771Y211244D01*
X1770434Y212132D01*
X1772432Y212687D01*
X1774319Y213464D01*
X1776316Y214352D01*
X1778203Y215351D01*
X1779979Y216461D01*
X1781755Y217793D01*
X1781866Y217904D01*
X1782088Y218126D01*
X1782532Y218570D01*
X1783198Y219236D01*
X1783864Y220013D01*
X1784641Y220901D01*
X1785529Y222011D01*
X1786417Y223232D01*
X1787305Y224675D01*
X1788193Y226229D01*
X1789081Y227894D01*
X1789969Y229670D01*
X1790746Y231668D01*
X1791412Y233777D01*
X1791856Y235997D01*
X1792300Y238328D01*
X1772765Y240437D01*
Y240326D01*
Y240104D01*
X1772654Y239771D01*
X1772543Y239327D01*
X1772321Y238106D01*
X1771877Y236663D01*
X1771211Y234887D01*
X1770323Y233222D01*
X1769213Y231446D01*
X1767881Y229892D01*
X1767659Y229781D01*
X1767104Y229337D01*
X1766327Y228671D01*
X1765106Y228005D01*
X1763774Y227228D01*
X1762109Y226673D01*
X1760333Y226229D01*
X1758335Y226007D01*
X1757780D01*
X1757336Y226118D01*
X1756115Y226229D01*
X1754672Y226673D01*
X1753007Y227228D01*
X1751342Y228116D01*
X1749566Y229337D01*
X1748678Y230114D01*
X1747901Y231002D01*
Y231113D01*
X1747679Y231224D01*
X1747457Y231557D01*
X1747235Y231890D01*
X1746902Y232445D01*
X1746569Y233111D01*
X1746125Y233888D01*
X1745681Y234776D01*
X1745348Y235775D01*
X1744904Y236885D01*
X1744571Y238106D01*
X1744238Y239438D01*
X1744016Y240992D01*
X1743794Y242546D01*
X1743572Y244322D01*
Y246098D01*
Y246209D01*
Y246542D01*
Y246986D01*
X1743683Y247652D01*
Y248429D01*
X1743794Y249316D01*
X1744127Y251425D01*
X1744571Y253756D01*
X1745348Y256087D01*
X1746458Y258307D01*
X1747901Y260305D01*
Y260416D01*
X1748123Y260527D01*
X1748678Y261082D01*
X1749566Y261859D01*
X1750898Y262747D01*
X1752452Y263524D01*
X1754339Y264301D01*
X1756448Y264856D01*
X1757669Y265078D01*
X1759667D01*
X1760333Y264967D01*
X1761110Y264856D01*
X1761887Y264634D01*
X1763996Y264190D01*
X1766327Y263302D01*
X1767659Y262636D01*
X1768880Y261970D01*
X1770212Y261082D01*
X1771544Y260083D01*
X1772876Y258973D01*
X1774097Y257641D01*
X1789969Y259861D01*
X1779868Y313251D01*
D02*
G37*
G36*
X1871997Y286390D02*
X1852350D01*
Y266743D01*
X1871997D01*
Y286390D01*
D02*
G37*
G36*
X1711050Y259084D02*
X1672422D01*
Y239438D01*
X1711050D01*
Y259084D01*
D02*
G37*
G36*
X1512252Y314583D02*
X1489942D01*
X1463968Y238772D01*
X1438883Y314583D01*
X1416905D01*
X1453534Y212132D01*
X1475734D01*
X1512252Y314583D01*
D02*
G37*
G36*
X2131843Y286390D02*
X2112751D01*
X2098877Y237662D01*
X2086112Y286390D01*
X2067131D01*
X2054699Y237662D01*
X2040492Y286390D01*
X2021067D01*
X2044932Y212132D01*
X2063912D01*
X2076677Y259861D01*
X2089331Y212132D01*
X2108423D01*
X2131843Y286390D01*
D02*
G37*
G36*
X1982773Y288055D02*
X1981996D01*
X1981219Y287944D01*
X1979998Y287833D01*
X1978666Y287722D01*
X1977001Y287500D01*
X1975225Y287167D01*
X1973338Y286723D01*
X1971229Y286057D01*
X1969120Y285391D01*
X1967011Y284503D01*
X1964791Y283393D01*
X1962682Y282172D01*
X1960573Y280729D01*
X1958575Y278953D01*
X1956688Y277066D01*
X1956577Y276955D01*
X1956244Y276511D01*
X1955800Y275956D01*
X1955245Y275068D01*
X1954468Y273847D01*
X1953691Y272404D01*
X1952803Y270739D01*
X1951915Y268852D01*
X1951027Y266632D01*
X1950250Y264079D01*
X1949473Y261415D01*
X1948807Y258418D01*
X1948252Y255088D01*
X1947808Y251536D01*
X1947475Y247763D01*
Y243656D01*
X1996648D01*
Y243545D01*
Y243323D01*
Y242768D01*
X1996537Y242213D01*
X1996426Y241436D01*
X1996315Y240548D01*
X1995982Y238661D01*
X1995427Y236441D01*
X1994650Y234110D01*
X1993540Y231890D01*
X1991986Y229892D01*
X1991875D01*
X1991764Y229670D01*
X1991209Y229115D01*
X1990210Y228338D01*
X1988878Y227561D01*
X1987213Y226673D01*
X1985215Y225896D01*
X1982995Y225341D01*
X1981774Y225230D01*
X1980553Y225119D01*
X1979776D01*
X1978999Y225230D01*
X1977889Y225452D01*
X1976668Y225674D01*
X1975447Y226118D01*
X1974115Y226784D01*
X1972894Y227561D01*
X1972783Y227672D01*
X1972339Y228005D01*
X1971784Y228671D01*
X1971118Y229559D01*
X1970230Y230669D01*
X1969453Y232112D01*
X1968676Y233777D01*
X1968010Y235775D01*
X1948474Y232445D01*
Y232334D01*
X1948696Y232001D01*
X1948918Y231446D01*
X1949140Y230669D01*
X1949584Y229781D01*
X1950139Y228782D01*
X1950694Y227561D01*
X1951360Y226340D01*
X1953025Y223676D01*
X1955134Y221012D01*
X1957576Y218348D01*
X1959019Y217127D01*
X1960462Y216017D01*
X1960573Y215906D01*
X1960795Y215795D01*
X1961239Y215462D01*
X1961905Y215129D01*
X1962682Y214685D01*
X1963681Y214241D01*
X1964791Y213797D01*
X1966012Y213242D01*
X1967455Y212687D01*
X1969009Y212243D01*
X1970674Y211799D01*
X1972450Y211355D01*
X1974337Y211022D01*
X1976446Y210689D01*
X1978555Y210578D01*
X1980775Y210467D01*
X1981663D01*
X1982662Y210578D01*
X1983994Y210689D01*
X1985548Y210800D01*
X1987435Y211133D01*
X1989433Y211466D01*
X1991653Y212021D01*
X1993984Y212687D01*
X1996315Y213575D01*
X1998645Y214574D01*
X2001087Y215795D01*
X2003307Y217238D01*
X2005527Y218903D01*
X2007525Y220790D01*
X2009412Y223010D01*
X2009523Y223121D01*
X2009745Y223454D01*
X2010078Y224009D01*
X2010522Y224897D01*
X2011077Y225896D01*
X2011743Y227006D01*
X2012409Y228449D01*
X2013075Y230003D01*
X2013741Y231779D01*
X2014407Y233777D01*
X2015073Y235886D01*
X2015628Y238106D01*
X2016072Y240548D01*
X2016405Y243101D01*
X2016627Y245876D01*
X2016738Y248651D01*
Y249427D01*
X2016627Y250426D01*
Y251647D01*
X2016405Y253201D01*
X2016183Y255088D01*
X2015961Y256975D01*
X2015517Y259195D01*
X2015073Y261415D01*
X2014407Y263746D01*
X2013630Y266188D01*
X2012742Y268630D01*
X2011632Y270961D01*
X2010300Y273292D01*
X2008857Y275512D01*
X2007192Y277510D01*
X2007081Y277621D01*
X2006748Y277954D01*
X2006193Y278509D01*
X2005416Y279175D01*
X2004528Y279952D01*
X2003307Y280840D01*
X2001975Y281839D01*
X2000532Y282838D01*
X1998867Y283726D01*
X1996981Y284725D01*
X1994983Y285613D01*
X1992763Y286390D01*
X1990543Y287056D01*
X1988101Y287611D01*
X1985437Y287944D01*
X1982773Y288055D01*
D02*
G37*
G36*
X2305000Y314583D02*
X2267261D01*
X2265485Y314472D01*
X2263709D01*
X2261711Y314361D01*
X2257493Y314250D01*
X2255495Y314028D01*
X2253497Y313917D01*
X2251610Y313806D01*
X2249945Y313584D01*
X2248502Y313251D01*
X2247281Y313029D01*
X2247170D01*
X2246837Y312918D01*
X2246393Y312807D01*
X2245838Y312585D01*
X2245061Y312252D01*
X2244173Y311919D01*
X2242175Y310920D01*
X2239844Y309588D01*
X2237402Y307812D01*
X2236070Y306702D01*
X2234849Y305592D01*
X2233628Y304372D01*
X2232518Y302929D01*
X2232407Y302818D01*
X2232296Y302596D01*
X2231963Y302152D01*
X2231630Y301597D01*
X2231075Y300820D01*
X2230631Y299821D01*
X2230076Y298822D01*
X2229521Y297601D01*
X2228966Y296158D01*
X2228411Y294715D01*
X2227856Y293050D01*
X2227412Y291274D01*
X2227079Y289387D01*
X2226746Y287389D01*
X2226635Y285169D01*
X2226524Y282949D01*
Y281395D01*
X2226635Y280618D01*
X2226746Y279619D01*
X2226857Y278620D01*
X2226968Y277399D01*
X2227412Y274957D01*
X2227967Y272293D01*
X2228855Y269629D01*
X2229965Y267076D01*
Y266965D01*
X2230076Y266854D01*
X2230298Y266521D01*
X2230631Y266077D01*
X2231297Y264856D01*
X2232296Y263413D01*
X2233628Y261859D01*
X2235071Y260194D01*
X2236847Y258529D01*
X2238734Y256975D01*
X2238845D01*
X2238956Y256864D01*
X2239622Y256420D01*
X2240621Y255754D01*
X2242064Y254977D01*
X2243618Y254200D01*
X2245394Y253423D01*
X2247392Y252757D01*
X2249390Y252202D01*
X2249501D01*
X2249723Y252091D01*
X2250167D01*
X2250722Y251980D01*
X2251499Y251869D01*
X2252498Y251758D01*
X2253608Y251647D01*
X2254829Y251536D01*
X2256272Y251314D01*
X2257937Y251203D01*
X2259713Y251092D01*
X2261600Y250981D01*
X2263709Y250870D01*
X2265929D01*
X2268371Y250759D01*
X2284354D01*
Y212132D01*
X2305000D01*
Y314583D01*
D02*
G37*
G36*
X1897193Y288055D02*
X1896083D01*
X1895417Y287944D01*
X1894751Y287833D01*
X1893086Y287611D01*
X1891088Y287167D01*
X1888868Y286501D01*
X1886538Y285502D01*
X1884207Y284281D01*
X1890311Y267187D01*
X1890533Y267298D01*
X1891199Y267742D01*
X1892087Y268186D01*
X1893308Y268852D01*
X1894751Y269407D01*
X1896305Y269962D01*
X1897859Y270295D01*
X1899524Y270406D01*
X1900190D01*
X1900967Y270295D01*
X1901966Y270073D01*
X1903076Y269851D01*
X1904186Y269407D01*
X1905407Y268852D01*
X1906517Y268075D01*
X1906628Y267964D01*
X1906961Y267631D01*
X1907516Y267076D01*
X1908182Y266188D01*
X1908848Y265078D01*
X1909625Y263635D01*
X1910402Y261970D01*
X1911068Y259861D01*
Y259750D01*
X1911179Y259528D01*
Y259195D01*
X1911290Y258640D01*
X1911401Y257974D01*
X1911512Y256975D01*
X1911734Y255865D01*
X1911845Y254533D01*
X1911956Y252979D01*
X1912178Y251203D01*
X1912289Y249205D01*
X1912400Y246875D01*
X1912511Y244322D01*
Y241547D01*
X1912622Y238439D01*
Y234998D01*
Y212132D01*
X1932269D01*
Y286390D01*
X1914065D01*
Y275734D01*
X1913954Y275845D01*
X1913843Y276067D01*
X1913621Y276400D01*
X1913288Y276955D01*
X1912400Y278287D01*
X1911290Y279841D01*
X1909958Y281506D01*
X1908626Y283060D01*
X1907183Y284503D01*
X1906406Y285169D01*
X1905740Y285613D01*
X1905518Y285724D01*
X1905074Y285946D01*
X1904297Y286390D01*
X1903298Y286834D01*
X1901966Y287278D01*
X1900523Y287722D01*
X1898969Y287944D01*
X1897193Y288055D01*
D02*
G37*
G36*
X1871997Y231779D02*
X1852350D01*
Y212132D01*
X1871997D01*
Y231779D01*
D02*
G37*
G36*
X1544886Y314916D02*
X1528347D01*
Y249982D01*
X1515582D01*
Y232778D01*
X1528347D01*
Y212132D01*
X1547328D01*
Y232778D01*
X1589174D01*
Y249871D01*
X1544886Y314916D01*
D02*
G37*
G36*
X2178129Y288055D02*
X2175354D01*
X2174466Y287944D01*
X2173356Y287833D01*
X2171913Y287722D01*
X2170248Y287500D01*
X2168361Y287167D01*
X2166363Y286723D01*
X2164254Y286057D01*
X2162035Y285391D01*
X2159704Y284503D01*
X2157484Y283393D01*
X2155153Y282172D01*
X2152822Y280729D01*
X2150713Y278953D01*
X2148604Y277066D01*
X2148493Y276955D01*
X2148160Y276511D01*
X2147605Y275956D01*
X2146939Y275068D01*
X2146051Y273958D01*
X2145163Y272737D01*
X2144275Y271183D01*
X2143165Y269518D01*
X2142166Y267631D01*
X2141278Y265522D01*
X2140279Y263191D01*
X2139502Y260749D01*
X2138836Y258196D01*
X2138281Y255421D01*
X2137948Y252535D01*
X2137837Y249427D01*
Y248651D01*
X2137948Y247763D01*
Y246653D01*
X2138170Y245210D01*
X2138392Y243545D01*
X2138725Y241658D01*
X2139169Y239660D01*
X2139724Y237440D01*
X2140501Y235220D01*
X2141389Y232889D01*
X2142388Y230558D01*
X2143720Y228116D01*
X2145163Y225896D01*
X2146828Y223565D01*
X2148715Y221456D01*
X2148826Y221345D01*
X2149159Y221012D01*
X2149825Y220457D01*
X2150713Y219791D01*
X2151712Y218903D01*
X2153044Y218015D01*
X2154487Y217016D01*
X2156152Y216017D01*
X2158039Y214907D01*
X2160148Y213908D01*
X2162368Y213020D01*
X2164809Y212243D01*
X2167362Y211466D01*
X2170137Y210911D01*
X2173023Y210578D01*
X2176020Y210467D01*
X2177019D01*
X2177796Y210578D01*
X2178684D01*
X2179683Y210689D01*
X2180904Y210800D01*
X2182236Y211022D01*
X2185233Y211577D01*
X2188563Y212354D01*
X2192004Y213464D01*
X2195445Y215018D01*
X2195556Y215129D01*
X2195889Y215240D01*
X2196333Y215462D01*
X2196999Y215906D01*
X2197776Y216350D01*
X2198553Y217016D01*
X2200662Y218459D01*
X2202882Y220346D01*
X2205213Y222677D01*
X2207433Y225452D01*
X2209431Y228560D01*
Y228671D01*
X2209653Y229004D01*
X2209875Y229448D01*
X2210208Y230114D01*
X2210541Y231002D01*
X2210985Y232001D01*
X2211318Y233222D01*
X2211762Y234554D01*
X2212206Y236108D01*
X2212650Y237773D01*
X2213094Y239549D01*
X2213427Y241436D01*
X2213760Y243434D01*
X2213982Y245654D01*
X2214093Y247874D01*
X2214204Y250204D01*
Y251203D01*
X2214093Y251869D01*
Y252757D01*
X2213982Y253867D01*
X2213760Y254977D01*
X2213649Y256309D01*
X2212983Y259195D01*
X2212206Y262414D01*
X2210985Y265744D01*
X2210319Y267520D01*
X2209431Y269185D01*
X2209320Y269296D01*
X2209209Y269629D01*
X2208876Y270073D01*
X2208543Y270739D01*
X2208099Y271516D01*
X2207433Y272404D01*
X2205990Y274402D01*
X2203992Y276622D01*
X2201661Y278953D01*
X2198997Y281173D01*
X2195889Y283171D01*
X2195778Y283282D01*
X2195445Y283393D01*
X2195001Y283615D01*
X2194335Y283948D01*
X2193447Y284281D01*
X2192448Y284725D01*
X2191338Y285169D01*
X2190117Y285613D01*
X2188674Y286057D01*
X2187120Y286501D01*
X2183790Y287278D01*
X2180127Y287833D01*
X2178129Y288055D01*
D02*
G37*
G36*
X1861452Y189755D02*
X1860009D01*
X1858899Y189644D01*
X1857678Y189533D01*
X1856235Y189311D01*
X1854570Y189089D01*
X1852794Y188756D01*
X1850907Y188312D01*
X1849020Y187757D01*
X1847022Y187091D01*
X1845024Y186314D01*
X1843137Y185315D01*
X1841250Y184205D01*
X1839363Y182984D01*
X1837698Y181541D01*
X1837587Y181430D01*
X1837365Y181208D01*
X1836921Y180653D01*
X1836366Y180098D01*
X1835700Y179321D01*
X1834923Y178322D01*
X1834146Y177212D01*
X1833258Y175880D01*
X1832481Y174548D01*
X1831704Y172994D01*
X1830928Y171329D01*
X1830262Y169553D01*
X1829707Y167555D01*
X1829263Y165557D01*
X1829041Y163448D01*
X1828930Y161229D01*
Y160008D01*
X1829041Y159453D01*
Y158676D01*
X1829263Y157011D01*
X1829596Y154902D01*
X1830040Y152682D01*
X1830595Y150351D01*
X1831482Y148020D01*
Y147909D01*
X1831593Y147798D01*
X1831704Y147354D01*
X1831926Y146910D01*
X1832259Y146355D01*
X1832592Y145689D01*
X1833369Y144024D01*
X1834479Y142137D01*
X1835811Y139917D01*
X1837476Y137475D01*
X1839363Y134922D01*
X1839585Y134700D01*
X1840029Y134034D01*
X1841028Y133035D01*
X1842249Y131592D01*
X1843137Y130704D01*
X1844025Y129705D01*
X1845135Y128706D01*
X1846245Y127485D01*
X1847577Y126264D01*
X1849020Y124821D01*
X1850574Y123378D01*
X1852239Y121824D01*
X1852350Y121713D01*
X1852683Y121491D01*
X1853127Y121047D01*
X1853682Y120492D01*
X1854459Y119826D01*
X1855347Y119049D01*
X1857234Y117273D01*
X1859232Y115386D01*
X1861119Y113499D01*
X1862007Y112611D01*
X1862784Y111834D01*
X1863450Y111057D01*
X1864005Y110502D01*
X1864116Y110391D01*
X1864449Y110058D01*
X1864893Y109503D01*
X1865448Y108837D01*
X1866003Y107949D01*
X1866669Y107062D01*
X1868001Y105175D01*
X1828930D01*
Y86971D01*
X1897748D01*
Y87082D01*
X1897637Y87415D01*
Y87970D01*
X1897526Y88747D01*
X1897304Y89635D01*
X1897082Y90745D01*
X1896860Y91966D01*
X1896527Y93298D01*
X1895639Y96295D01*
X1894418Y99625D01*
X1892975Y103066D01*
X1891088Y106507D01*
X1890977Y106618D01*
X1890866Y106951D01*
X1890422Y107505D01*
X1889978Y108171D01*
X1889312Y109059D01*
X1888424Y110280D01*
X1887425Y111501D01*
X1886205Y113055D01*
X1884873Y114720D01*
X1883208Y116496D01*
X1881432Y118605D01*
X1879434Y120714D01*
X1877214Y123045D01*
X1874661Y125598D01*
X1871997Y128262D01*
X1869000Y131037D01*
X1868889Y131148D01*
X1868445Y131592D01*
X1867779Y132258D01*
X1866891Y133035D01*
X1865781Y134034D01*
X1864671Y135144D01*
X1863339Y136476D01*
X1862007Y137808D01*
X1859121Y140583D01*
X1856457Y143358D01*
X1855347Y144579D01*
X1854237Y145800D01*
X1853349Y146910D01*
X1852683Y147798D01*
Y147909D01*
X1852461Y148020D01*
X1852350Y148353D01*
X1852017Y148797D01*
X1851351Y150018D01*
X1850574Y151572D01*
X1849908Y153348D01*
X1849242Y155346D01*
X1848798Y157566D01*
X1848576Y159786D01*
Y159897D01*
Y160119D01*
Y160452D01*
Y160896D01*
X1848798Y162006D01*
X1849020Y163559D01*
X1849464Y165113D01*
X1850019Y166778D01*
X1850907Y168443D01*
X1852128Y169886D01*
X1852239Y169997D01*
X1852794Y170441D01*
X1853571Y170996D01*
X1854681Y171662D01*
X1856124Y172328D01*
X1857789Y172883D01*
X1859676Y173327D01*
X1861896Y173438D01*
X1862895D01*
X1864005Y173216D01*
X1865448Y172994D01*
X1867002Y172550D01*
X1868667Y171884D01*
X1870332Y170885D01*
X1871775Y169664D01*
X1871886Y169442D01*
X1872330Y168998D01*
X1872885Y168110D01*
X1873662Y166778D01*
X1874328Y165113D01*
X1874994Y163004D01*
X1875549Y160452D01*
X1875771Y159009D01*
X1875882Y157455D01*
X1895417Y159342D01*
Y159564D01*
X1895306Y160008D01*
X1895195Y160896D01*
X1894973Y162006D01*
X1894751Y163337D01*
X1894418Y164891D01*
X1893974Y166556D01*
X1893419Y168332D01*
X1892753Y170219D01*
X1891976Y172106D01*
X1891088Y174104D01*
X1890089Y175991D01*
X1888979Y177878D01*
X1887647Y179654D01*
X1886205Y181208D01*
X1884540Y182651D01*
X1884429Y182762D01*
X1884096Y182984D01*
X1883541Y183317D01*
X1882875Y183761D01*
X1881987Y184316D01*
X1880877Y184871D01*
X1879656Y185537D01*
X1878213Y186203D01*
X1876548Y186869D01*
X1874883Y187535D01*
X1872996Y188090D01*
X1870887Y188645D01*
X1868778Y189089D01*
X1866447Y189422D01*
X1864005Y189644D01*
X1861452Y189755D01*
D02*
G37*
G36*
X2225081Y162894D02*
X2223860D01*
X2223305Y162783D01*
X2222528D01*
X2220863Y162561D01*
X2218977Y162117D01*
X2216868Y161673D01*
X2214759Y160896D01*
X2212761Y159897D01*
X2212650D01*
X2212539Y159786D01*
X2211873Y159342D01*
X2210874Y158676D01*
X2209653Y157677D01*
X2208321Y156456D01*
X2206878Y154902D01*
X2205435Y153126D01*
X2204103Y151017D01*
X2203992Y151128D01*
X2203881Y151239D01*
X2203659Y151572D01*
X2203215Y152016D01*
X2202216Y153015D01*
X2200995Y154347D01*
X2199330Y155790D01*
X2197554Y157344D01*
X2195667Y158676D01*
X2193558Y159897D01*
X2193447D01*
X2193336Y160008D01*
X2193003Y160230D01*
X2192559Y160341D01*
X2191449Y160896D01*
X2189895Y161451D01*
X2188119Y161895D01*
X2186010Y162450D01*
X2183790Y162783D01*
X2181459Y162894D01*
X2180127D01*
X2179350Y162783D01*
X2178573Y162672D01*
X2176686Y162450D01*
X2174577Y162117D01*
X2172246Y161451D01*
X2169915Y160674D01*
X2167695Y159564D01*
X2167584D01*
X2167473Y159453D01*
X2166807Y158898D01*
X2165808Y158121D01*
X2164476Y157122D01*
X2163145Y155679D01*
X2161702Y154014D01*
X2160370Y152016D01*
X2159260Y149796D01*
X2159149Y149574D01*
X2159038Y149241D01*
X2158927Y148908D01*
X2158816Y148353D01*
X2158594Y147687D01*
X2158372Y147021D01*
X2158150Y146133D01*
X2158039Y145023D01*
X2157817Y143913D01*
X2157595Y142692D01*
X2157484Y141249D01*
X2157373Y139806D01*
X2157262Y138141D01*
X2157151Y136254D01*
Y86971D01*
X2176797D01*
Y129372D01*
Y129483D01*
Y129816D01*
Y130371D01*
Y131148D01*
X2176908Y132036D01*
Y133035D01*
X2177019Y135366D01*
X2177352Y137697D01*
X2177685Y140139D01*
X2177907Y141138D01*
X2178240Y142137D01*
X2178573Y143025D01*
X2178906Y143691D01*
X2179017Y143913D01*
X2179461Y144357D01*
X2180016Y145023D01*
X2180904Y145800D01*
X2182125Y146577D01*
X2183568Y147243D01*
X2185233Y147687D01*
X2187231Y147909D01*
X2187897D01*
X2188674Y147798D01*
X2189784Y147576D01*
X2190894Y147243D01*
X2192226Y146799D01*
X2193558Y146244D01*
X2195001Y145356D01*
X2195112Y145245D01*
X2195556Y144912D01*
X2196222Y144246D01*
X2196999Y143469D01*
X2197887Y142470D01*
X2198775Y141138D01*
X2199552Y139695D01*
X2200218Y137919D01*
X2200329Y137697D01*
Y137364D01*
X2200440Y137031D01*
X2200551Y136476D01*
X2200662Y135810D01*
X2200884Y135144D01*
X2200995Y134256D01*
X2201106Y133257D01*
X2201328Y132036D01*
X2201439Y130815D01*
X2201550Y129483D01*
X2201661Y127929D01*
Y126264D01*
X2201772Y124488D01*
Y122601D01*
Y86971D01*
X2221418D01*
Y127596D01*
Y127707D01*
Y128040D01*
Y128595D01*
Y129372D01*
Y130260D01*
Y131259D01*
X2221529Y133479D01*
X2221640Y135810D01*
X2221862Y138141D01*
X2221973Y139140D01*
X2222195Y140139D01*
X2222306Y140916D01*
X2222528Y141582D01*
Y141693D01*
X2222750Y142137D01*
X2222972Y142692D01*
X2223305Y143358D01*
X2224304Y144912D01*
X2224970Y145689D01*
X2225747Y146355D01*
X2225858Y146466D01*
X2226191Y146577D01*
X2226635Y146799D01*
X2227301Y147132D01*
X2228189Y147465D01*
X2229188Y147687D01*
X2230409Y147798D01*
X2231741Y147909D01*
X2232518D01*
X2233406Y147798D01*
X2234516Y147576D01*
X2235737Y147243D01*
X2237069Y146799D01*
X2238512Y146244D01*
X2239955Y145356D01*
X2240066Y145245D01*
X2240510Y144912D01*
X2241176Y144357D01*
X2241953Y143580D01*
X2242730Y142581D01*
X2243618Y141360D01*
X2244395Y139917D01*
X2245061Y138252D01*
X2245172Y138030D01*
Y137808D01*
X2245283Y137364D01*
X2245394Y136920D01*
X2245505Y136254D01*
X2245727Y135477D01*
X2245838Y134700D01*
X2245949Y133701D01*
X2246171Y132591D01*
X2246282Y131259D01*
X2246393Y129927D01*
X2246504Y128373D01*
Y126708D01*
X2246615Y124932D01*
Y123045D01*
Y86971D01*
X2266262D01*
Y161229D01*
X2248169D01*
Y151017D01*
X2248058Y151128D01*
X2247725Y151572D01*
X2247170Y152127D01*
X2246393Y152904D01*
X2245505Y153792D01*
X2244395Y154791D01*
X2243063Y155901D01*
X2241620Y157011D01*
X2240066Y158121D01*
X2238290Y159120D01*
X2236403Y160119D01*
X2234405Y161007D01*
X2232185Y161784D01*
X2229965Y162339D01*
X2227523Y162783D01*
X2225081Y162894D01*
D02*
G37*
G36*
X1974670Y161229D02*
X1955023D01*
Y141582D01*
X1974670D01*
Y161229D01*
D02*
G37*
G36*
X2066354D02*
X2042379D01*
X2029281Y140805D01*
X2015406Y161229D01*
X1992430D01*
X2017515Y126042D01*
X1990099Y86971D01*
X2014185D01*
X2029281Y109947D01*
X2044488Y86971D01*
X2067464D01*
X2040714Y125154D01*
X2066354Y161229D01*
D02*
G37*
G36*
X2111197Y162894D02*
X2106314D01*
X2105315Y162783D01*
X2103983D01*
X2102651Y162672D01*
X2101097Y162450D01*
X2097878Y162117D01*
X2094659Y161562D01*
X2091551Y160785D01*
X2090219Y160230D01*
X2088887Y159675D01*
X2088776D01*
X2088554Y159564D01*
X2088221Y159342D01*
X2087888Y159120D01*
X2086667Y158454D01*
X2085335Y157566D01*
X2083781Y156345D01*
X2082338Y155013D01*
X2080895Y153459D01*
X2079785Y151794D01*
X2079674Y151572D01*
X2079563Y151239D01*
X2079341Y150906D01*
X2079119Y150351D01*
X2078897Y149574D01*
X2078675Y148797D01*
X2078453Y147798D01*
X2078231Y146688D01*
X2078009Y145467D01*
X2077787Y144024D01*
X2077565Y142359D01*
X2077343Y140583D01*
X2077232Y138696D01*
X2077121Y136587D01*
Y134256D01*
X2077454Y111279D01*
Y111168D01*
Y110835D01*
Y110391D01*
Y109725D01*
Y108837D01*
Y107949D01*
X2077343Y105841D01*
X2077232Y103510D01*
X2077121Y101068D01*
X2076899Y98848D01*
X2076677Y97738D01*
X2076566Y96850D01*
Y96628D01*
X2076344Y96073D01*
X2076122Y95074D01*
X2075789Y93853D01*
X2075345Y92410D01*
X2074679Y90745D01*
X2073902Y88858D01*
X2073014Y86971D01*
X2092439D01*
Y87082D01*
X2092550Y87304D01*
X2092772Y87748D01*
X2092994Y88414D01*
X2093216Y89191D01*
X2093660Y90190D01*
X2093993Y91411D01*
X2094437Y92743D01*
Y92854D01*
X2094548Y93076D01*
X2094659Y93742D01*
X2094881Y94519D01*
X2094992Y94852D01*
X2095103Y95074D01*
X2095325Y94852D01*
X2095991Y94297D01*
X2096990Y93409D01*
X2098322Y92299D01*
X2099876Y91189D01*
X2101763Y89968D01*
X2103761Y88747D01*
X2105870Y87748D01*
X2105981D01*
X2106092Y87637D01*
X2106425Y87526D01*
X2106869Y87415D01*
X2107979Y86971D01*
X2109532Y86527D01*
X2111308Y86083D01*
X2113417Y85639D01*
X2115637Y85417D01*
X2118079Y85306D01*
X2119189D01*
X2119966Y85417D01*
X2120965Y85528D01*
X2122075Y85639D01*
X2123296Y85861D01*
X2124628Y86083D01*
X2127514Y86749D01*
X2130511Y87859D01*
X2132065Y88636D01*
X2133508Y89413D01*
X2134840Y90301D01*
X2136172Y91411D01*
X2136283Y91522D01*
X2136505Y91744D01*
X2136727Y92077D01*
X2137171Y92521D01*
X2137726Y93187D01*
X2138281Y93853D01*
X2138836Y94741D01*
X2139391Y95740D01*
X2140057Y96850D01*
X2140612Y97960D01*
X2141722Y100735D01*
X2142166Y102178D01*
X2142388Y103732D01*
X2142610Y105397D01*
X2142721Y107173D01*
Y108282D01*
X2142610Y109392D01*
X2142388Y110946D01*
X2141944Y112722D01*
X2141500Y114609D01*
X2140723Y116496D01*
X2139724Y118383D01*
Y118494D01*
X2139613Y118605D01*
X2139169Y119160D01*
X2138503Y120048D01*
X2137504Y121158D01*
X2136394Y122379D01*
X2134951Y123600D01*
X2133286Y124821D01*
X2131399Y125820D01*
X2131288D01*
X2131177Y125931D01*
X2130844Y126042D01*
X2130400Y126264D01*
X2129845Y126486D01*
X2129179Y126819D01*
X2128291Y127041D01*
X2127403Y127374D01*
X2126404Y127707D01*
X2125183Y128151D01*
X2123851Y128484D01*
X2122519Y128928D01*
X2120965Y129261D01*
X2119300Y129705D01*
X2117635Y130149D01*
X2115748Y130482D01*
X2115637D01*
X2115193Y130593D01*
X2114416Y130704D01*
X2113528Y130926D01*
X2112418Y131148D01*
X2111086Y131370D01*
X2109643Y131703D01*
X2108090Y132036D01*
X2104982Y132813D01*
X2101763Y133590D01*
X2100320Y134034D01*
X2098877Y134478D01*
X2097656Y134922D01*
X2096546Y135366D01*
Y137253D01*
Y137364D01*
Y137475D01*
Y138252D01*
X2096657Y139251D01*
X2096879Y140472D01*
X2097212Y141804D01*
X2097767Y143136D01*
X2098433Y144468D01*
X2099432Y145467D01*
X2099543Y145578D01*
X2099987Y145800D01*
X2100764Y146244D01*
X2101763Y146688D01*
X2103206Y147132D01*
X2105093Y147576D01*
X2106203Y147687D01*
X2107313Y147798D01*
X2108644Y147909D01*
X2110975D01*
X2111974Y147798D01*
X2113084Y147687D01*
X2114416Y147354D01*
X2115859Y147021D01*
X2117191Y146466D01*
X2118412Y145800D01*
X2118523Y145689D01*
X2118856Y145356D01*
X2119411Y144912D01*
X2120077Y144135D01*
X2120854Y143136D01*
X2121631Y141804D01*
X2122408Y140250D01*
X2123074Y138474D01*
X2140723Y141693D01*
Y141804D01*
X2140612Y142137D01*
X2140390Y142692D01*
X2140168Y143469D01*
X2139835Y144357D01*
X2139391Y145356D01*
X2138281Y147687D01*
X2136838Y150351D01*
X2135062Y153015D01*
X2132953Y155457D01*
X2131732Y156678D01*
X2130400Y157677D01*
X2130289Y157788D01*
X2130067Y157899D01*
X2129623Y158121D01*
X2129068Y158454D01*
X2128291Y158898D01*
X2127292Y159342D01*
X2126182Y159786D01*
X2124961Y160341D01*
X2123407Y160785D01*
X2121853Y161229D01*
X2120077Y161673D01*
X2118079Y162117D01*
X2115970Y162450D01*
X2113639Y162672D01*
X2111197Y162894D01*
D02*
G37*
G36*
X2305000Y189422D02*
X2284354D01*
Y86971D01*
X2305000D01*
Y189422D01*
D02*
G37*
G36*
X1974670Y106618D02*
X1955023D01*
Y86971D01*
X1974670D01*
Y106618D01*
D02*
G37*
G36*
X1702281Y189422D02*
X1680303D01*
X1639234Y86971D01*
X1661767D01*
X1670757Y110280D01*
X1711716D01*
X1720262Y86971D01*
X1742129D01*
X1702281Y189422D01*
D02*
G37*
G36*
X1782532Y189755D02*
X1781866D01*
X1781089Y189644D01*
X1780090D01*
X1778869Y189422D01*
X1777426Y189200D01*
X1775761Y188867D01*
X1773986Y188423D01*
X1772210Y187868D01*
X1770323Y187202D01*
X1768325Y186314D01*
X1766438Y185315D01*
X1764551Y184094D01*
X1762664Y182651D01*
X1760888Y180986D01*
X1759223Y179099D01*
X1759112Y178988D01*
X1758779Y178544D01*
X1758335Y177767D01*
X1757669Y176657D01*
X1756892Y175325D01*
X1756004Y173549D01*
X1755116Y171551D01*
X1754228Y169109D01*
X1753340Y166445D01*
X1752341Y163337D01*
X1751564Y159897D01*
X1750787Y156123D01*
X1750121Y152016D01*
X1749677Y147465D01*
X1749344Y142581D01*
X1749233Y137364D01*
Y135366D01*
X1749344Y134589D01*
Y133701D01*
Y132591D01*
X1749566Y130260D01*
X1749788Y127485D01*
X1750121Y124488D01*
X1750454Y121269D01*
X1751009Y117828D01*
X1751675Y114387D01*
X1752563Y110835D01*
X1753451Y107395D01*
X1754672Y104176D01*
X1756004Y100957D01*
X1757558Y98071D01*
X1759334Y95518D01*
X1759445Y95407D01*
X1759667Y95074D01*
X1760222Y94519D01*
X1760888Y93853D01*
X1761665Y93076D01*
X1762775Y92188D01*
X1763996Y91300D01*
X1765328Y90301D01*
X1766882Y89302D01*
X1768658Y88414D01*
X1770545Y87526D01*
X1772654Y86749D01*
X1774874Y86083D01*
X1777315Y85528D01*
X1779868Y85195D01*
X1782532Y85084D01*
X1783198D01*
X1783975Y85195D01*
X1784974Y85306D01*
X1786306Y85417D01*
X1787749Y85639D01*
X1789414Y86083D01*
X1791190Y86527D01*
X1793077Y87082D01*
X1794964Y87859D01*
X1796962Y88858D01*
X1798960Y89857D01*
X1800958Y91189D01*
X1802956Y92743D01*
X1804843Y94519D01*
X1806619Y96517D01*
X1806730Y96628D01*
X1806952Y97072D01*
X1807507Y97738D01*
X1808062Y98737D01*
X1808728Y100069D01*
X1809505Y101734D01*
X1810282Y103732D01*
X1811170Y105952D01*
X1812058Y108615D01*
X1812835Y111612D01*
X1813612Y114942D01*
X1814278Y118716D01*
X1814833Y122823D01*
X1815277Y127374D01*
X1815610Y132258D01*
X1815721Y137586D01*
Y139584D01*
X1815610Y140361D01*
Y141249D01*
Y142248D01*
X1815388Y144690D01*
X1815166Y147354D01*
X1814833Y150351D01*
X1814500Y153570D01*
X1813945Y157011D01*
X1813279Y160452D01*
X1812502Y163892D01*
X1811503Y167333D01*
X1810393Y170663D01*
X1809061Y173771D01*
X1807507Y176657D01*
X1805731Y179210D01*
X1805620Y179321D01*
X1805287Y179654D01*
X1804843Y180209D01*
X1804177Y180875D01*
X1803289Y181652D01*
X1802290Y182540D01*
X1801069Y183539D01*
X1799737Y184538D01*
X1798183Y185426D01*
X1796407Y186425D01*
X1794520Y187313D01*
X1792411Y188090D01*
X1790191Y188756D01*
X1787749Y189311D01*
X1785196Y189644D01*
X1782532Y189755D01*
D02*
G37*
%LPD*%
G36*
X1982773Y272959D02*
X1983883Y272848D01*
X1985437Y272515D01*
X1987102Y271960D01*
X1988878Y271072D01*
X1990543Y269851D01*
X1991431Y269185D01*
X1992208Y268297D01*
X1992430Y268075D01*
X1992874Y267409D01*
X1993540Y266410D01*
X1994317Y264967D01*
X1995094Y263191D01*
X1995760Y260971D01*
X1996204Y258529D01*
X1996315Y255643D01*
X1967011D01*
Y255754D01*
Y255976D01*
Y256420D01*
X1967122Y257086D01*
X1967233Y257752D01*
X1967344Y258529D01*
X1967677Y260416D01*
X1968232Y262525D01*
X1969009Y264634D01*
X1970008Y266743D01*
X1971451Y268519D01*
X1971673Y268741D01*
X1972228Y269185D01*
X1973116Y269962D01*
X1974337Y270850D01*
X1975780Y271627D01*
X1977556Y272404D01*
X1979554Y272848D01*
X1981663Y273070D01*
X1982329D01*
X1982773Y272959D01*
D02*
G37*
G36*
X2284354Y268075D02*
X2270036D01*
X2268926Y268186D01*
X2266373Y268297D01*
X2263709Y268408D01*
X2261045Y268741D01*
X2259713Y268963D01*
X2258603Y269074D01*
X2257604Y269407D01*
X2256716Y269629D01*
X2256494Y269740D01*
X2256050Y269962D01*
X2255273Y270295D01*
X2254385Y270850D01*
X2253386Y271627D01*
X2252276Y272515D01*
X2251166Y273514D01*
X2250278Y274735D01*
X2250167Y274846D01*
X2249945Y275401D01*
X2249501Y276067D01*
X2249057Y277066D01*
X2248613Y278176D01*
X2248169Y279508D01*
X2247947Y281062D01*
X2247836Y282727D01*
Y282838D01*
Y282949D01*
Y283615D01*
X2248058Y284725D01*
X2248280Y285946D01*
X2248613Y287389D01*
X2249279Y288943D01*
X2250056Y290497D01*
X2251166Y291940D01*
X2251277Y292051D01*
X2251721Y292495D01*
X2252498Y293161D01*
X2253497Y293938D01*
X2254607Y294715D01*
X2256050Y295381D01*
X2257715Y296047D01*
X2259491Y296491D01*
X2259713D01*
X2260268Y296602D01*
X2260712Y296713D01*
X2261267D01*
X2261933Y296824D01*
X2262710Y296935D01*
X2263709D01*
X2264819Y297046D01*
X2266040D01*
X2267372Y297157D01*
X2268815D01*
X2270480Y297268D01*
X2284354D01*
Y268075D01*
D02*
G37*
G36*
X1570748Y249982D02*
X1547328D01*
Y284836D01*
X1570748Y249982D01*
D02*
G37*
G36*
X2177352Y271960D02*
X2178018Y271849D01*
X2178795Y271738D01*
X2180571Y271294D01*
X2182680Y270628D01*
X2184789Y269629D01*
X2185899Y268963D01*
X2186898Y268186D01*
X2188008Y267187D01*
X2189007Y266188D01*
Y266077D01*
X2189229Y265966D01*
X2189451Y265522D01*
X2189784Y265078D01*
X2190228Y264523D01*
X2190672Y263746D01*
X2191116Y262858D01*
X2191560Y261859D01*
X2192004Y260749D01*
X2192448Y259417D01*
X2192892Y258085D01*
X2193336Y256531D01*
X2193669Y254866D01*
X2193891Y253090D01*
X2194002Y251203D01*
X2194113Y249205D01*
Y249094D01*
Y248762D01*
Y248096D01*
X2194002Y247430D01*
Y246431D01*
X2193891Y245432D01*
X2193669Y244211D01*
X2193447Y242879D01*
X2192892Y240215D01*
X2192004Y237329D01*
X2190672Y234665D01*
X2189895Y233333D01*
X2189007Y232223D01*
X2188896Y232112D01*
X2188785Y232001D01*
X2188452Y231668D01*
X2188119Y231335D01*
X2186898Y230447D01*
X2185455Y229337D01*
X2183568Y228227D01*
X2181348Y227339D01*
X2178906Y226673D01*
X2177574Y226562D01*
X2176131Y226451D01*
X2175354D01*
X2174799Y226562D01*
X2174244Y226673D01*
X2173467Y226784D01*
X2171691Y227228D01*
X2169582Y227894D01*
X2167473Y228893D01*
X2166363Y229559D01*
X2165253Y230336D01*
X2164254Y231224D01*
X2163256Y232223D01*
X2163145Y232334D01*
X2163034Y232556D01*
X2162812Y232889D01*
X2162479Y233333D01*
X2162035Y233888D01*
X2161591Y234665D01*
X2161147Y235553D01*
X2160592Y236552D01*
X2160148Y237662D01*
X2159704Y238994D01*
X2159260Y240437D01*
X2158816Y241880D01*
X2158483Y243545D01*
X2158261Y245321D01*
X2158039Y247319D01*
Y249316D01*
Y249427D01*
Y249760D01*
Y250426D01*
X2158150Y251092D01*
Y252091D01*
X2158261Y253090D01*
X2158483Y254311D01*
X2158705Y255532D01*
X2159260Y258307D01*
X2160259Y261082D01*
X2161480Y263746D01*
X2162368Y265078D01*
X2163256Y266188D01*
X2163367Y266299D01*
X2163478Y266410D01*
X2163811Y266743D01*
X2164143Y267076D01*
X2165253Y268075D01*
X2166807Y269185D01*
X2168694Y270184D01*
X2170914Y271183D01*
X2173356Y271849D01*
X2174688Y271960D01*
X2176131Y272071D01*
X2176908D01*
X2177352Y271960D01*
D02*
G37*
G36*
X2096768Y122490D02*
X2097323Y122379D01*
X2098211Y122046D01*
X2099543Y121713D01*
X2101208Y121269D01*
X2103317Y120714D01*
X2105759Y120159D01*
X2108644Y119493D01*
X2108755D01*
X2108977Y119382D01*
X2109421D01*
X2109976Y119160D01*
X2111308Y118827D01*
X2112973Y118494D01*
X2114749Y117939D01*
X2116525Y117384D01*
X2118079Y116829D01*
X2118745Y116496D01*
X2119300Y116163D01*
X2119411Y116052D01*
X2119855Y115719D01*
X2120521Y115053D01*
X2121187Y114276D01*
X2121853Y113277D01*
X2122519Y112056D01*
X2122963Y110724D01*
X2123074Y109281D01*
Y109059D01*
Y108615D01*
X2122963Y107838D01*
X2122741Y106840D01*
X2122297Y105730D01*
X2121853Y104509D01*
X2121076Y103399D01*
X2120077Y102178D01*
X2119966Y102067D01*
X2119522Y101734D01*
X2118856Y101179D01*
X2117968Y100735D01*
X2116747Y100180D01*
X2115415Y99625D01*
X2113861Y99292D01*
X2112196Y99181D01*
X2111974D01*
X2111308Y99292D01*
X2110309Y99403D01*
X2108977Y99625D01*
X2107424Y100069D01*
X2105648Y100624D01*
X2103872Y101512D01*
X2102096Y102622D01*
X2101985Y102733D01*
X2101541Y103066D01*
X2100875Y103621D01*
X2100209Y104398D01*
X2099321Y105397D01*
X2098544Y106507D01*
X2097878Y107727D01*
X2097323Y109059D01*
Y109170D01*
X2097212Y109614D01*
X2097101Y110280D01*
X2096879Y111168D01*
X2096768Y112500D01*
X2096657Y114165D01*
X2096546Y116163D01*
Y118605D01*
Y122601D01*
X2096768Y122490D01*
D02*
G37*
G36*
X1705389Y127596D02*
X1677306D01*
X1691514Y165557D01*
X1705389Y127596D01*
D02*
G37*
G36*
X1783753Y173327D02*
X1784641Y173105D01*
X1785640Y172883D01*
X1786750Y172439D01*
X1787749Y171884D01*
X1788859Y171107D01*
X1788970Y170996D01*
X1789303Y170663D01*
X1789858Y170108D01*
X1790413Y169220D01*
X1791079Y168110D01*
X1791856Y166778D01*
X1792522Y165002D01*
X1793188Y163004D01*
Y162894D01*
X1793299Y162672D01*
X1793410Y162228D01*
X1793521Y161562D01*
X1793632Y160674D01*
X1793854Y159675D01*
X1793965Y158343D01*
X1794187Y156900D01*
X1794409Y155235D01*
X1794520Y153348D01*
X1794742Y151239D01*
X1794853Y148908D01*
X1794964Y146466D01*
X1795075Y143580D01*
X1795186Y140583D01*
Y137364D01*
Y137142D01*
Y136587D01*
Y135699D01*
Y134478D01*
X1795075Y132924D01*
Y131259D01*
Y129483D01*
X1794964Y127485D01*
X1794742Y123378D01*
X1794409Y119271D01*
X1794187Y117273D01*
X1793965Y115497D01*
X1793743Y113943D01*
X1793410Y112500D01*
Y112389D01*
X1793299Y112167D01*
X1793188Y111834D01*
X1793077Y111390D01*
X1792744Y110280D01*
X1792189Y108948D01*
X1791523Y107395D01*
X1790746Y105952D01*
X1789858Y104620D01*
X1788859Y103621D01*
X1788748Y103510D01*
X1788415Y103288D01*
X1787749Y102955D01*
X1786972Y102511D01*
X1786084Y102067D01*
X1784974Y101734D01*
X1783864Y101512D01*
X1782532Y101401D01*
X1781977D01*
X1781311Y101512D01*
X1780423Y101734D01*
X1779424Y101956D01*
X1778314Y102289D01*
X1777315Y102844D01*
X1776205Y103621D01*
X1776094Y103732D01*
X1775761Y104065D01*
X1775207Y104620D01*
X1774652Y105508D01*
X1773875Y106618D01*
X1773209Y107949D01*
X1772543Y109725D01*
X1771877Y111723D01*
Y111834D01*
X1771766Y112056D01*
X1771655Y112500D01*
X1771544Y113166D01*
X1771433Y114054D01*
X1771211Y115053D01*
X1770989Y116274D01*
X1770767Y117717D01*
X1770656Y119382D01*
X1770434Y121269D01*
X1770212Y123378D01*
X1770101Y125709D01*
X1769990Y128262D01*
X1769879Y131037D01*
X1769768Y134145D01*
Y137364D01*
Y137586D01*
Y138141D01*
Y139029D01*
Y140250D01*
Y141693D01*
X1769879Y143469D01*
Y145245D01*
X1769990Y147243D01*
X1770212Y151350D01*
X1770545Y155346D01*
X1770767Y157344D01*
X1770989Y159120D01*
X1771322Y160674D01*
X1771655Y162117D01*
Y162228D01*
X1771766Y162450D01*
X1771877Y162783D01*
X1771988Y163226D01*
X1772321Y164336D01*
X1772876Y165779D01*
X1773542Y167333D01*
X1774319Y168776D01*
X1775207Y170108D01*
X1776205Y171107D01*
X1776316Y171218D01*
X1776649Y171440D01*
X1777315Y171884D01*
X1777981Y172328D01*
X1778980Y172661D01*
X1780090Y173105D01*
X1781200Y173327D01*
X1782532Y173438D01*
X1783087D01*
X1783753Y173327D01*
D02*
G37*
%LPC*%
G36*
X1907449Y1080018D02*
X1882821D01*
Y1057243D01*
X1907449D01*
Y1080018D01*
D02*
G37*
G36*
X1399909D02*
X1375281D01*
Y1057243D01*
X1399909D01*
Y1080018D01*
D02*
G37*
G36*
X742569D02*
X717942D01*
Y1057243D01*
X742569D01*
Y1080018D01*
D02*
G37*
G36*
X2032991Y1046874D02*
X2032250D01*
X2031325Y1046689D01*
X2030028D01*
X2028732Y1046318D01*
X2026881Y1046133D01*
X2025029Y1045578D01*
X2022992Y1045022D01*
X2020770Y1044096D01*
X2018548Y1043170D01*
X2016141Y1041874D01*
X2013734Y1040393D01*
X2011327Y1038726D01*
X2008920Y1036504D01*
X2006698Y1034282D01*
X2004476Y1031505D01*
Y1044837D01*
X1981515D01*
Y957253D01*
X1981700Y955772D01*
X1981885Y952254D01*
X1982256Y948180D01*
X1982626Y944107D01*
X1983367Y940218D01*
X1983737Y938552D01*
X1984292Y936885D01*
X1984478Y936515D01*
X1984848Y935589D01*
X1985403Y934108D01*
X1986329Y932256D01*
X1987440Y930219D01*
X1988736Y927997D01*
X1990218Y925960D01*
X1992069Y924109D01*
X1992255Y923923D01*
X1992995Y923368D01*
X1994106Y922442D01*
X1995402Y921516D01*
X1997254Y920405D01*
X1999476Y919109D01*
X2002068Y917998D01*
X2005031Y916887D01*
X2005401Y916702D01*
X2006512Y916517D01*
X2008179Y915961D01*
X2010586Y915591D01*
X2013734Y915036D01*
X2017252Y914480D01*
X2021326Y914295D01*
X2025770Y914110D01*
X2027992D01*
X2029658Y914295D01*
X2031510D01*
X2033732Y914480D01*
X2036139Y914850D01*
X2038731Y915221D01*
X2044286Y916147D01*
X2049841Y917628D01*
X2052434Y918554D01*
X2055026Y919665D01*
X2057248Y920776D01*
X2059285Y922257D01*
X2059470Y922442D01*
X2059655Y922627D01*
X2060766Y923738D01*
X2062433Y925405D01*
X2064099Y927812D01*
X2065951Y930775D01*
X2067617Y934293D01*
X2068728Y938366D01*
X2068913Y940588D01*
X2069098Y942810D01*
Y942996D01*
Y943736D01*
Y944662D01*
X2068913Y945773D01*
X2040768Y942440D01*
Y942255D01*
X2040583Y941699D01*
X2040398Y940774D01*
X2040213Y939848D01*
X2039287Y937626D01*
X2038546Y936515D01*
X2037620Y935774D01*
X2037435Y935589D01*
X2036880Y935404D01*
X2036139Y934848D01*
X2034843Y934478D01*
X2033361Y933922D01*
X2031510Y933367D01*
X2029288Y933182D01*
X2026695Y932997D01*
X2025029D01*
X2023362Y933182D01*
X2021326Y933367D01*
X2018918Y933737D01*
X2016511Y934293D01*
X2014289Y935033D01*
X2012253Y935959D01*
X2012067Y936144D01*
X2011697Y936330D01*
X2011142Y936700D01*
X2010401Y937441D01*
X2009660Y938366D01*
X2008920Y939477D01*
X2008179Y940774D01*
X2007438Y942255D01*
Y942440D01*
X2007253Y942810D01*
X2007068Y943551D01*
X2006698Y944847D01*
X2006512Y946329D01*
X2006327Y948180D01*
X2006142Y950587D01*
Y953365D01*
Y966882D01*
X2006327Y966697D01*
X2006698Y966326D01*
X2007253Y965586D01*
X2008179Y964475D01*
X2009105Y963364D01*
X2010401Y962068D01*
X2012067Y960772D01*
X2013734Y959475D01*
X2015586Y957994D01*
X2017807Y956698D01*
X2022437Y954291D01*
X2025029Y953365D01*
X2027806Y952624D01*
X2030769Y952069D01*
X2033917Y951884D01*
X2034658D01*
X2035769Y952069D01*
X2037065D01*
X2038546Y952439D01*
X2040398Y952809D01*
X2042435Y953180D01*
X2044657Y953920D01*
X2046879Y954661D01*
X2049286Y955772D01*
X2051878Y957068D01*
X2054285Y958550D01*
X2056692Y960401D01*
X2059100Y962438D01*
X2061322Y964845D01*
X2063543Y967623D01*
Y967808D01*
X2063914Y968178D01*
X2064284Y968919D01*
X2064840Y969845D01*
X2065580Y971141D01*
X2066321Y972622D01*
X2067062Y974289D01*
X2067802Y976325D01*
X2068543Y978362D01*
X2069284Y980769D01*
X2070024Y983362D01*
X2070765Y986139D01*
X2071691Y992065D01*
X2071876Y995398D01*
X2072061Y998731D01*
Y1000953D01*
X2071876Y1002619D01*
X2071691Y1004471D01*
X2071506Y1006693D01*
X2071135Y1009285D01*
X2070580Y1011877D01*
X2069284Y1017803D01*
X2068358Y1020765D01*
X2067432Y1023728D01*
X2066136Y1026505D01*
X2064654Y1029468D01*
X2062988Y1032060D01*
X2060951Y1034468D01*
X2060766Y1034653D01*
X2060396Y1035023D01*
X2059840Y1035579D01*
X2058914Y1036504D01*
X2057803Y1037430D01*
X2056507Y1038356D01*
X2055026Y1039467D01*
X2053174Y1040763D01*
X2051323Y1041874D01*
X2049101Y1042985D01*
X2044471Y1045022D01*
X2041694Y1045763D01*
X2038916Y1046318D01*
X2035954Y1046689D01*
X2032991Y1046874D01*
D02*
G37*
G36*
X2305000Y1080018D02*
X2279077D01*
Y1022987D01*
X2226490Y1080018D01*
X2191678D01*
X2240192Y1030024D01*
X2189271Y951884D01*
X2222786D01*
X2258153Y1012062D01*
X2279077Y990583D01*
Y951884D01*
X2305000D01*
Y1080018D01*
D02*
G37*
G36*
X1466198Y1046874D02*
X1460088D01*
X1458791Y1046689D01*
X1457310D01*
X1453607Y1046318D01*
X1449718Y1045948D01*
X1445645Y1045207D01*
X1441756Y1044096D01*
X1440090Y1043541D01*
X1438423Y1042800D01*
X1438238D01*
X1438053Y1042615D01*
X1437127Y1042059D01*
X1435646Y1041319D01*
X1433979Y1040208D01*
X1431942Y1038726D01*
X1430091Y1037060D01*
X1428424Y1035023D01*
X1426943Y1032986D01*
X1426758Y1032616D01*
X1426387Y1031875D01*
X1425832Y1030209D01*
X1425647Y1029283D01*
X1425276Y1027987D01*
X1424906Y1026691D01*
X1424721Y1025024D01*
X1424350Y1023172D01*
X1424165Y1021136D01*
X1423980Y1018914D01*
X1423795Y1016506D01*
X1423610Y1013914D01*
Y1010951D01*
X1423980Y982251D01*
Y982066D01*
Y981695D01*
Y981140D01*
Y980214D01*
Y977992D01*
X1423795Y975400D01*
Y972437D01*
X1423425Y969474D01*
X1423239Y966512D01*
X1422869Y964104D01*
Y963919D01*
X1422684Y963179D01*
X1422314Y961883D01*
X1421943Y960401D01*
X1421203Y958550D01*
X1420462Y956513D01*
X1419536Y954291D01*
X1418425Y951884D01*
X1442682D01*
Y952069D01*
X1442867Y952254D01*
X1443052Y952995D01*
X1443423Y953735D01*
X1443793Y954661D01*
X1444163Y955957D01*
X1444534Y957439D01*
X1445089Y959105D01*
Y959290D01*
X1445274Y959475D01*
X1445459Y960216D01*
X1445830Y961142D01*
X1446015Y961883D01*
X1446385Y961697D01*
X1447126Y960957D01*
X1448422Y959846D01*
X1450089Y958550D01*
X1452125Y957068D01*
X1454347Y955402D01*
X1456940Y954106D01*
X1459532Y952809D01*
X1459902Y952624D01*
X1460828Y952439D01*
X1462309Y951884D01*
X1464161Y951328D01*
X1466383Y950773D01*
X1468975Y950402D01*
X1471938Y950032D01*
X1474901Y949847D01*
X1476197D01*
X1477308Y950032D01*
X1478419D01*
X1479900Y950217D01*
X1483048Y950773D01*
X1486751Y951698D01*
X1490455Y952995D01*
X1494158Y954846D01*
X1497491Y957439D01*
Y957624D01*
X1497861Y957809D01*
X1498787Y958920D01*
X1500083Y960586D01*
X1501565Y962808D01*
X1503046Y965586D01*
X1504342Y968919D01*
X1505268Y972807D01*
X1505453Y974844D01*
X1505638Y977066D01*
Y978362D01*
X1505453Y979844D01*
X1505083Y981695D01*
X1504713Y983917D01*
X1504157Y986139D01*
X1503231Y988546D01*
X1501935Y990954D01*
X1501750Y991324D01*
X1501194Y992065D01*
X1500454Y993176D01*
X1499158Y994472D01*
X1497861Y995953D01*
X1496010Y997620D01*
X1493973Y999101D01*
X1491566Y1000397D01*
X1491195Y1000582D01*
X1490270Y1000953D01*
X1488788Y1001508D01*
X1486566Y1002434D01*
X1483789Y1003360D01*
X1480456Y1004286D01*
X1476382Y1005211D01*
X1471938Y1006137D01*
X1471753D01*
X1471197Y1006322D01*
X1470272Y1006508D01*
X1469161Y1006693D01*
X1467679Y1006878D01*
X1466013Y1007248D01*
X1462309Y1008174D01*
X1458421Y1009100D01*
X1454347Y1010026D01*
X1450829Y1011137D01*
X1449163Y1011692D01*
X1447867Y1012248D01*
Y1014655D01*
Y1015025D01*
Y1015766D01*
X1448052Y1017062D01*
X1448237Y1018728D01*
X1448792Y1020395D01*
X1449348Y1022061D01*
X1450274Y1023543D01*
X1451570Y1024839D01*
X1451755Y1025024D01*
X1452311Y1025394D01*
X1453236Y1025765D01*
X1454533Y1026505D01*
X1456384Y1027061D01*
X1458606Y1027431D01*
X1461384Y1027802D01*
X1464717Y1027987D01*
X1465828D01*
X1466939Y1027802D01*
X1468420Y1027616D01*
X1470086Y1027246D01*
X1471938Y1026876D01*
X1473605Y1026135D01*
X1475086Y1025209D01*
X1475271Y1025024D01*
X1475641Y1024654D01*
X1476382Y1024098D01*
X1477123Y1023172D01*
X1478234Y1021876D01*
X1479160Y1020210D01*
X1480085Y1018358D01*
X1481011Y1016136D01*
X1503046Y1020210D01*
Y1020395D01*
X1502861Y1020765D01*
X1502676Y1021506D01*
X1502305Y1022432D01*
X1501935Y1023543D01*
X1501380Y1024839D01*
X1500083Y1027802D01*
X1498232Y1030949D01*
X1496010Y1034282D01*
X1493417Y1037430D01*
X1490270Y1040208D01*
X1490084D01*
X1489899Y1040578D01*
X1489344Y1040763D01*
X1488603Y1041319D01*
X1487492Y1041689D01*
X1486381Y1042245D01*
X1484900Y1042985D01*
X1483418Y1043541D01*
X1481567Y1044096D01*
X1479530Y1044837D01*
X1477308Y1045392D01*
X1474716Y1045763D01*
X1472123Y1046318D01*
X1469161Y1046503D01*
X1466198Y1046874D01*
D02*
G37*
G36*
X938475D02*
X932364D01*
X931068Y1046689D01*
X929587D01*
X925884Y1046318D01*
X921995Y1045948D01*
X917921Y1045207D01*
X914033Y1044096D01*
X912366Y1043541D01*
X910700Y1042800D01*
X910515D01*
X910330Y1042615D01*
X909404Y1042059D01*
X907922Y1041319D01*
X906256Y1040208D01*
X904219Y1038726D01*
X902368Y1037060D01*
X900701Y1035023D01*
X899220Y1032986D01*
X899035Y1032616D01*
X898664Y1031875D01*
X898109Y1030209D01*
X897924Y1029283D01*
X897553Y1027987D01*
X897183Y1026691D01*
X896998Y1025024D01*
X896627Y1023172D01*
X896442Y1021136D01*
X896257Y1018914D01*
X896072Y1016506D01*
X895887Y1013914D01*
Y1010951D01*
X896257Y982251D01*
Y982066D01*
Y981695D01*
Y981140D01*
Y980214D01*
Y977992D01*
X896072Y975400D01*
Y972437D01*
X895702Y969474D01*
X895516Y966512D01*
X895146Y964104D01*
Y963919D01*
X894961Y963179D01*
X894591Y961883D01*
X894220Y960401D01*
X893480Y958550D01*
X892739Y956513D01*
X891813Y954291D01*
X890702Y951884D01*
X914959D01*
Y952069D01*
X915144Y952254D01*
X915329Y952995D01*
X915699Y953735D01*
X916070Y954661D01*
X916440Y955957D01*
X916810Y957439D01*
X917366Y959105D01*
Y959290D01*
X917551Y959475D01*
X917736Y960216D01*
X918107Y961142D01*
X918292Y961883D01*
X918662Y961697D01*
X919403Y960957D01*
X920699Y959846D01*
X922365Y958550D01*
X924402Y957068D01*
X926624Y955402D01*
X929217Y954106D01*
X931809Y952809D01*
X932179Y952624D01*
X933105Y952439D01*
X934586Y951884D01*
X936438Y951328D01*
X938660Y950773D01*
X941252Y950402D01*
X944215Y950032D01*
X947178Y949847D01*
X948474D01*
X949585Y950032D01*
X950696D01*
X952177Y950217D01*
X955325Y950773D01*
X959028Y951698D01*
X962732Y952995D01*
X966435Y954846D01*
X969768Y957439D01*
Y957624D01*
X970138Y957809D01*
X971064Y958920D01*
X972360Y960586D01*
X973842Y962808D01*
X975323Y965586D01*
X976619Y968919D01*
X977545Y972807D01*
X977730Y974844D01*
X977915Y977066D01*
Y978362D01*
X977730Y979844D01*
X977360Y981695D01*
X976989Y983917D01*
X976434Y986139D01*
X975508Y988546D01*
X974212Y990954D01*
X974027Y991324D01*
X973471Y992065D01*
X972731Y993176D01*
X971434Y994472D01*
X970138Y995953D01*
X968287Y997620D01*
X966250Y999101D01*
X963843Y1000397D01*
X963472Y1000582D01*
X962546Y1000953D01*
X961065Y1001508D01*
X958843Y1002434D01*
X956066Y1003360D01*
X952733Y1004286D01*
X948659Y1005211D01*
X944215Y1006137D01*
X944030D01*
X943474Y1006322D01*
X942549Y1006508D01*
X941438Y1006693D01*
X939956Y1006878D01*
X938290Y1007248D01*
X934586Y1008174D01*
X930698Y1009100D01*
X926624Y1010026D01*
X923106Y1011137D01*
X921440Y1011692D01*
X920143Y1012248D01*
Y1014655D01*
Y1015025D01*
Y1015766D01*
X920329Y1017062D01*
X920514Y1018728D01*
X921069Y1020395D01*
X921625Y1022061D01*
X922551Y1023543D01*
X923847Y1024839D01*
X924032Y1025024D01*
X924587Y1025394D01*
X925513Y1025765D01*
X926809Y1026505D01*
X928661Y1027061D01*
X930883Y1027431D01*
X933661Y1027802D01*
X936994Y1027987D01*
X938105D01*
X939216Y1027802D01*
X940697Y1027616D01*
X942363Y1027246D01*
X944215Y1026876D01*
X945882Y1026135D01*
X947363Y1025209D01*
X947548Y1025024D01*
X947918Y1024654D01*
X948659Y1024098D01*
X949400Y1023172D01*
X950511Y1021876D01*
X951437Y1020210D01*
X952362Y1018358D01*
X953288Y1016136D01*
X975323Y1020210D01*
Y1020395D01*
X975138Y1020765D01*
X974953Y1021506D01*
X974582Y1022432D01*
X974212Y1023543D01*
X973656Y1024839D01*
X972360Y1027802D01*
X970509Y1030949D01*
X968287Y1034282D01*
X965694Y1037430D01*
X962546Y1040208D01*
X962361D01*
X962176Y1040578D01*
X961621Y1040763D01*
X960880Y1041319D01*
X959769Y1041689D01*
X958658Y1042245D01*
X957177Y1042985D01*
X955695Y1043541D01*
X953844Y1044096D01*
X951807Y1044837D01*
X949585Y1045392D01*
X946993Y1045763D01*
X944400Y1046318D01*
X941438Y1046503D01*
X938475Y1046874D01*
D02*
G37*
G36*
X693500Y1080018D02*
X668873D01*
Y1012062D01*
X640172Y1044837D01*
X609990D01*
X641839Y1010766D01*
X607768Y951884D01*
X634247D01*
X657763Y993546D01*
X668873Y981510D01*
Y951884D01*
X693500D01*
Y1080018D01*
D02*
G37*
G36*
X845892Y1077796D02*
Y1044837D01*
X829042D01*
Y1025209D01*
X845892D01*
Y987621D01*
Y987435D01*
Y987065D01*
Y986510D01*
Y985769D01*
Y983917D01*
Y981695D01*
X845707Y979473D01*
Y977251D01*
Y975585D01*
X845522Y974844D01*
Y974474D01*
X845336Y974103D01*
X844966Y973363D01*
X844411Y972437D01*
X843300Y971326D01*
X842929Y971141D01*
X842189Y970770D01*
X840892Y970400D01*
X839226Y970215D01*
X838485D01*
X837745Y970400D01*
X836634Y970585D01*
X835152Y970770D01*
X833486Y971141D01*
X831449Y971696D01*
X829227Y972437D01*
X827005Y953365D01*
X827190D01*
X827375Y953180D01*
X828486Y952809D01*
X830338Y952254D01*
X832745Y951698D01*
X835523Y950958D01*
X838856Y950402D01*
X842559Y950032D01*
X846447Y949847D01*
X847558D01*
X848855Y950032D01*
X850521Y950217D01*
X852373Y950402D01*
X854410Y950773D01*
X856446Y951328D01*
X858483Y952069D01*
X858668Y952254D01*
X859409Y952439D01*
X860335Y952995D01*
X861446Y953550D01*
X864038Y955402D01*
X865334Y956513D01*
X866445Y957809D01*
X866630Y957994D01*
X866816Y958550D01*
X867186Y959290D01*
X867741Y960401D01*
X868297Y961697D01*
X868852Y963364D01*
X869408Y965215D01*
X869778Y967252D01*
Y967437D01*
X869963Y968178D01*
Y969289D01*
X870149Y971141D01*
X870334Y973548D01*
Y976511D01*
X870519Y978177D01*
Y980214D01*
Y982251D01*
Y984658D01*
Y1025209D01*
X881814D01*
Y1044837D01*
X870519D01*
Y1063353D01*
X845892Y1077796D01*
D02*
G37*
G36*
X1818199Y1046874D02*
X1816532D01*
X1815421Y1046689D01*
X1813940D01*
X1812273Y1046503D01*
X1810422Y1046318D01*
X1808385Y1045948D01*
X1804126Y1045022D01*
X1799682Y1043726D01*
X1795238Y1041874D01*
X1791164Y1039467D01*
X1790979D01*
X1790794Y1039097D01*
X1790238Y1038726D01*
X1789498Y1038171D01*
X1787831Y1036504D01*
X1785609Y1034097D01*
X1783202Y1030949D01*
X1780795Y1027246D01*
X1778573Y1022802D01*
X1776721Y1017617D01*
X1800978Y1013173D01*
Y1013544D01*
X1801163Y1014284D01*
X1801534Y1015581D01*
X1802089Y1017247D01*
X1803015Y1018914D01*
X1803941Y1020765D01*
X1805237Y1022432D01*
X1806718Y1023913D01*
X1806903Y1024098D01*
X1807459Y1024469D01*
X1808385Y1025024D01*
X1809681Y1025765D01*
X1811347Y1026505D01*
X1813199Y1027061D01*
X1815421Y1027431D01*
X1817828Y1027616D01*
X1818199D01*
X1819310Y1027431D01*
X1820976Y1027246D01*
X1823198Y1026876D01*
X1825420Y1025950D01*
X1827827Y1024839D01*
X1830234Y1023358D01*
X1832456Y1021136D01*
X1832641Y1020765D01*
X1833197Y1019839D01*
X1834123Y1018358D01*
X1835049Y1016136D01*
X1836160Y1013173D01*
X1836530Y1011507D01*
X1836900Y1009655D01*
X1837271Y1007433D01*
X1837641Y1005211D01*
X1837826Y1002619D01*
Y1000027D01*
Y999842D01*
Y999286D01*
Y998360D01*
X1837641Y997249D01*
Y995953D01*
X1837456Y994472D01*
X1837085Y990768D01*
X1836530Y986880D01*
X1835419Y982991D01*
X1834123Y979473D01*
X1833197Y977992D01*
X1832271Y976511D01*
X1832086Y976140D01*
X1831160Y975400D01*
X1830049Y974474D01*
X1828383Y973178D01*
X1826161Y971881D01*
X1823754Y970956D01*
X1820791Y970215D01*
X1817458Y969845D01*
X1816347D01*
X1815051Y970030D01*
X1813384Y970400D01*
X1811533Y970770D01*
X1809681Y971511D01*
X1807829Y972437D01*
X1805978Y973733D01*
X1805792Y973918D01*
X1805237Y974474D01*
X1804496Y975400D01*
X1803385Y976881D01*
X1802274Y978733D01*
X1801348Y981140D01*
X1800237Y984102D01*
X1799497Y987435D01*
X1775425Y983362D01*
Y983177D01*
X1775610Y982621D01*
X1775796Y981695D01*
X1776166Y980584D01*
X1776721Y979288D01*
X1777277Y977622D01*
X1778758Y973918D01*
X1780610Y969845D01*
X1783202Y965771D01*
X1786350Y961697D01*
X1788202Y959846D01*
X1790053Y958179D01*
X1790238D01*
X1790609Y957809D01*
X1791164Y957439D01*
X1791905Y956883D01*
X1793016Y956328D01*
X1794312Y955587D01*
X1795793Y954846D01*
X1797645Y954106D01*
X1799497Y953180D01*
X1801719Y952439D01*
X1803941Y951698D01*
X1806533Y951143D01*
X1809311Y950587D01*
X1812273Y950217D01*
X1815236Y950032D01*
X1818569Y949847D01*
X1820606D01*
X1821902Y950032D01*
X1823568Y950217D01*
X1825605Y950587D01*
X1827827Y950958D01*
X1830234Y951513D01*
X1832827Y952069D01*
X1835419Y952995D01*
X1838196Y953920D01*
X1840789Y955217D01*
X1843566Y956698D01*
X1846159Y958364D01*
X1848566Y960401D01*
X1850973Y962623D01*
X1851158Y962808D01*
X1851528Y963179D01*
X1852084Y963919D01*
X1852825Y965030D01*
X1853750Y966326D01*
X1854861Y967808D01*
X1855787Y969659D01*
X1856898Y971881D01*
X1858194Y974289D01*
X1859120Y976881D01*
X1860231Y979844D01*
X1861157Y982991D01*
X1861898Y986510D01*
X1862453Y990028D01*
X1862824Y994101D01*
X1863009Y998175D01*
Y1000397D01*
X1862824Y1001878D01*
X1862638Y1003915D01*
X1862453Y1006137D01*
X1862083Y1008544D01*
X1861527Y1011322D01*
X1860046Y1017062D01*
X1859120Y1020025D01*
X1858009Y1022987D01*
X1856528Y1025950D01*
X1854861Y1028727D01*
X1853010Y1031320D01*
X1850973Y1033912D01*
X1850788Y1034097D01*
X1850417Y1034468D01*
X1849677Y1035023D01*
X1848751Y1035949D01*
X1847455Y1036875D01*
X1845973Y1037986D01*
X1844307Y1039282D01*
X1842270Y1040393D01*
X1840048Y1041689D01*
X1837641Y1042800D01*
X1834863Y1043911D01*
X1831901Y1044837D01*
X1828938Y1045763D01*
X1825420Y1046318D01*
X1821902Y1046689D01*
X1818199Y1046874D01*
D02*
G37*
G36*
X2176495Y1044837D02*
X2151868D01*
Y1002064D01*
Y1001878D01*
Y1001138D01*
Y1000212D01*
Y998916D01*
Y997434D01*
Y995768D01*
X2151683Y991879D01*
X2151497Y987621D01*
X2151312Y983732D01*
X2151127Y982066D01*
X2150942Y980399D01*
X2150757Y979103D01*
X2150572Y978177D01*
Y977992D01*
X2150386Y977436D01*
X2150016Y976696D01*
X2149461Y975585D01*
X2148905Y974474D01*
X2147979Y973363D01*
X2147053Y972252D01*
X2145757Y971141D01*
X2145572Y970956D01*
X2145017Y970770D01*
X2144276Y970400D01*
X2143165Y970030D01*
X2141869Y969474D01*
X2140202Y969104D01*
X2138536Y968919D01*
X2136499Y968734D01*
X2135388D01*
X2134277Y968919D01*
X2132796Y969104D01*
X2130944Y969474D01*
X2129092Y970215D01*
X2127055Y970956D01*
X2125204Y972067D01*
X2125019Y972252D01*
X2124463Y972622D01*
X2123537Y973363D01*
X2122426Y974474D01*
X2121315Y975770D01*
X2120204Y977066D01*
X2119093Y978733D01*
X2118353Y980584D01*
Y980769D01*
X2117982Y981695D01*
Y982436D01*
X2117797Y983362D01*
X2117612Y984288D01*
X2117427Y985584D01*
X2117242Y987250D01*
X2117056Y988917D01*
X2116871Y990954D01*
Y993361D01*
X2116686Y995953D01*
X2116501Y998916D01*
Y1002064D01*
Y1005582D01*
Y1044837D01*
X2091874D01*
Y951884D01*
X2114649D01*
Y965771D01*
X2114834Y965401D01*
X2115575Y964475D01*
X2116686Y963179D01*
X2118353Y961512D01*
X2120204Y959475D01*
X2122611Y957624D01*
X2125204Y955587D01*
X2128166Y953920D01*
X2128537Y953735D01*
X2129648Y953365D01*
X2131314Y952624D01*
X2133536Y951884D01*
X2136129Y951143D01*
X2139091Y950402D01*
X2142239Y950032D01*
X2145572Y949847D01*
X2147239D01*
X2148905Y950032D01*
X2151127Y950402D01*
X2153905Y950773D01*
X2156682Y951513D01*
X2159645Y952624D01*
X2162422Y953920D01*
X2162792Y954106D01*
X2163533Y954661D01*
X2165014Y955587D01*
X2166496Y956883D01*
X2168347Y958550D01*
X2170014Y960401D01*
X2171680Y962808D01*
X2173162Y965401D01*
X2173347Y965771D01*
X2173717Y966697D01*
X2174273Y968363D01*
X2174828Y970770D01*
X2175384Y973733D01*
X2175939Y977251D01*
X2176310Y981325D01*
X2176495Y985954D01*
Y1044837D01*
D02*
G37*
G36*
X1957258Y1080018D02*
X1932631D01*
Y951884D01*
X1957258D01*
Y1080018D01*
D02*
G37*
G36*
X1907449Y1044837D02*
X1882821D01*
Y951884D01*
X1907449D01*
Y1044837D01*
D02*
G37*
G36*
X1607665Y1079093D02*
X1581742D01*
Y973548D01*
X1517304D01*
Y951884D01*
X1607665D01*
Y1079093D01*
D02*
G37*
G36*
X1090496Y1080018D02*
X1043279D01*
X1041242Y1079833D01*
X1036428D01*
X1031243Y1079463D01*
X1026058Y1079093D01*
X1023836Y1078907D01*
X1021614Y1078722D01*
X1019763Y1078352D01*
X1018281Y1077982D01*
X1018096D01*
X1017726Y1077796D01*
X1017170Y1077611D01*
X1016430Y1077426D01*
X1014393Y1076500D01*
X1011801Y1075389D01*
X1009023Y1073723D01*
X1005875Y1071501D01*
X1002913Y1068723D01*
X999950Y1065390D01*
Y1065205D01*
X999580Y1065020D01*
X999209Y1064464D01*
X998839Y1063724D01*
X998098Y1062613D01*
X997543Y1061502D01*
X996802Y1060206D01*
X996062Y1058724D01*
X994765Y1055021D01*
X993469Y1050947D01*
X992729Y1045948D01*
X992358Y1040578D01*
Y1038541D01*
X992543Y1037615D01*
Y1036319D01*
X992914Y1033727D01*
X993469Y1030579D01*
X994210Y1027061D01*
X995321Y1023728D01*
X996802Y1020580D01*
X996987Y1020210D01*
X997543Y1019284D01*
X998469Y1017803D01*
X999765Y1015951D01*
X1001246Y1014099D01*
X1003283Y1011877D01*
X1005320Y1009840D01*
X1007727Y1007989D01*
X1008097Y1007804D01*
X1008838Y1007248D01*
X1010134Y1006508D01*
X1011801Y1005582D01*
X1013837Y1004471D01*
X1016059Y1003545D01*
X1018467Y1002619D01*
X1021059Y1001878D01*
X1021429D01*
X1021985Y1001693D01*
X1022725D01*
X1023651Y1001508D01*
X1024947Y1001323D01*
X1026244Y1001138D01*
X1027910D01*
X1029577Y1000953D01*
X1031613Y1000767D01*
X1033835Y1000582D01*
X1036243Y1000397D01*
X1038835D01*
X1041612Y1000212D01*
X1064573D01*
Y951884D01*
X1090496D01*
Y1080018D01*
D02*
G37*
G36*
X769418Y1046874D02*
X767937D01*
X766271Y1046689D01*
X764234Y1046318D01*
X761641Y1045763D01*
X758864Y1044837D01*
X756086Y1043726D01*
X753124Y1042059D01*
X760901Y1020765D01*
X761086Y1020950D01*
X762012Y1021321D01*
X763123Y1022061D01*
X764604Y1022802D01*
X766456Y1023543D01*
X768307Y1024283D01*
X770344Y1024654D01*
X772381Y1024839D01*
X773122D01*
X774233Y1024654D01*
X775344Y1024469D01*
X776640Y1024098D01*
X778121Y1023543D01*
X779602Y1022802D01*
X781084Y1021876D01*
X781269Y1021691D01*
X781639Y1021321D01*
X782380Y1020580D01*
X783121Y1019469D01*
X784046Y1018173D01*
X784972Y1016321D01*
X785898Y1014099D01*
X786639Y1011507D01*
Y1011137D01*
X786824Y1010581D01*
X787009Y1010026D01*
Y1009100D01*
X787194Y1007989D01*
X787379Y1006508D01*
X787565Y1004841D01*
X787750Y1002989D01*
X787935Y1000582D01*
X788120Y998175D01*
Y995212D01*
X788305Y992065D01*
X788490Y988546D01*
Y984658D01*
Y980399D01*
Y951884D01*
X813118D01*
Y1044837D01*
X790342D01*
Y1031690D01*
X790157Y1031875D01*
X789416Y1032986D01*
X788305Y1034653D01*
X786824Y1036690D01*
X785343Y1038726D01*
X783491Y1040763D01*
X781824Y1042615D01*
X779973Y1043911D01*
X779788Y1044096D01*
X779232Y1044467D01*
X778121Y1044837D01*
X776825Y1045392D01*
X775344Y1045948D01*
X773492Y1046503D01*
X771640Y1046689D01*
X769418Y1046874D01*
D02*
G37*
G36*
X742569Y1044837D02*
X717942D01*
Y951884D01*
X742569D01*
Y1044837D01*
D02*
G37*
G36*
X1727838Y1046874D02*
X1720986D01*
X1719505Y1046689D01*
X1717653Y1046503D01*
X1715617Y1046318D01*
X1713395Y1046133D01*
X1708765Y1045392D01*
X1704136Y1044281D01*
X1699692Y1042615D01*
X1697655Y1041689D01*
X1695804Y1040578D01*
X1695619D01*
X1695433Y1040208D01*
X1694322Y1039467D01*
X1692656Y1037986D01*
X1690804Y1035949D01*
X1688582Y1033542D01*
X1686546Y1030394D01*
X1684509Y1026691D01*
X1683027Y1022432D01*
X1706173Y1018173D01*
Y1018358D01*
X1706543Y1019099D01*
X1706914Y1020025D01*
X1707469Y1021136D01*
X1708210Y1022617D01*
X1709321Y1023913D01*
X1710432Y1025209D01*
X1711913Y1026320D01*
X1712098Y1026505D01*
X1712654Y1026876D01*
X1713580Y1027246D01*
X1714876Y1027802D01*
X1716542Y1028357D01*
X1718579Y1028913D01*
X1720986Y1029098D01*
X1723764Y1029283D01*
X1725430D01*
X1727097Y1029098D01*
X1729134Y1028913D01*
X1731541Y1028542D01*
X1733763Y1028172D01*
X1735800Y1027431D01*
X1737651Y1026505D01*
X1737837D01*
X1738022Y1026135D01*
X1738948Y1025209D01*
X1740058Y1023543D01*
X1740244Y1022617D01*
X1740429Y1021506D01*
Y1021321D01*
Y1021136D01*
X1740058Y1020025D01*
X1739318Y1018543D01*
X1738762Y1017803D01*
X1738022Y1017062D01*
X1737837Y1016877D01*
X1737096Y1016692D01*
X1736726Y1016321D01*
X1735985Y1016136D01*
X1735059Y1015766D01*
X1733948Y1015210D01*
X1732467Y1014840D01*
X1730985Y1014284D01*
X1729134Y1013729D01*
X1726912Y1013173D01*
X1724505Y1012433D01*
X1721727Y1011692D01*
X1718579Y1010951D01*
X1715061Y1010026D01*
X1714876D01*
X1714135Y1009840D01*
X1713209Y1009655D01*
X1711913Y1009285D01*
X1710247Y1008730D01*
X1708395Y1008359D01*
X1704321Y1007063D01*
X1699692Y1005397D01*
X1695248Y1003545D01*
X1693026Y1002434D01*
X1690990Y1001508D01*
X1689323Y1000212D01*
X1687657Y999101D01*
X1687286Y998731D01*
X1686360Y997990D01*
X1685249Y996509D01*
X1683768Y994472D01*
X1682287Y991879D01*
X1681176Y988732D01*
X1680250Y985028D01*
X1679880Y980955D01*
Y979658D01*
X1680065Y978733D01*
X1680250Y977807D01*
X1680435Y976511D01*
X1681176Y973363D01*
X1682472Y970030D01*
X1683398Y968178D01*
X1684324Y966326D01*
X1685620Y964475D01*
X1687101Y962623D01*
X1688768Y960772D01*
X1690619Y958920D01*
X1690804Y958735D01*
X1691175Y958550D01*
X1691730Y958179D01*
X1692656Y957439D01*
X1693767Y956883D01*
X1695063Y956142D01*
X1696730Y955217D01*
X1698581Y954476D01*
X1700618Y953550D01*
X1703025Y952809D01*
X1705618Y951884D01*
X1708395Y951328D01*
X1711543Y950773D01*
X1714876Y950217D01*
X1718394Y950032D01*
X1722097Y949847D01*
X1723949D01*
X1725245Y950032D01*
X1726912D01*
X1728763Y950217D01*
X1730800Y950402D01*
X1733022Y950773D01*
X1737837Y951698D01*
X1742836Y952995D01*
X1747835Y954846D01*
X1750057Y956142D01*
X1752279Y957439D01*
X1752465Y957624D01*
X1752835Y957809D01*
X1753390Y958179D01*
X1753946Y958920D01*
X1755983Y960586D01*
X1758205Y962994D01*
X1760612Y965956D01*
X1762834Y969474D01*
X1764871Y973733D01*
X1766537Y978362D01*
X1741910Y982066D01*
Y981695D01*
X1741540Y980955D01*
X1741169Y979658D01*
X1740614Y977992D01*
X1739688Y976140D01*
X1738577Y974474D01*
X1737281Y972622D01*
X1735615Y971141D01*
X1735429Y970956D01*
X1734689Y970585D01*
X1733578Y970030D01*
X1732096Y969474D01*
X1730245Y968734D01*
X1727838Y968178D01*
X1725245Y967808D01*
X1722097Y967623D01*
X1720616D01*
X1718764Y967808D01*
X1716728Y967993D01*
X1714506Y968363D01*
X1712098Y969104D01*
X1709876Y969845D01*
X1707840Y970956D01*
X1707654Y971141D01*
X1707284Y971511D01*
X1706729Y972067D01*
X1706173Y972807D01*
X1705618Y973733D01*
X1705062Y974844D01*
X1704692Y976140D01*
X1704507Y977622D01*
Y977807D01*
Y978177D01*
X1704692Y979288D01*
X1705247Y980769D01*
X1706358Y982251D01*
X1706729Y982621D01*
X1707284Y982806D01*
X1708025Y983362D01*
X1709136Y983732D01*
X1710617Y984288D01*
X1712284Y984843D01*
X1714506Y985399D01*
X1714876D01*
X1715802Y985769D01*
X1717283Y986139D01*
X1719320Y986510D01*
X1721727Y987065D01*
X1724319Y987806D01*
X1727282Y988546D01*
X1730430Y989472D01*
X1736911Y991324D01*
X1740058Y992250D01*
X1743021Y993361D01*
X1745799Y994287D01*
X1748391Y995398D01*
X1750613Y996509D01*
X1752279Y997434D01*
X1752465Y997620D01*
X1752835Y997805D01*
X1753205Y998175D01*
X1753946Y998916D01*
X1755798Y1000582D01*
X1757649Y1002989D01*
X1759686Y1005952D01*
X1761538Y1009470D01*
X1762278Y1011507D01*
X1762649Y1013729D01*
X1763019Y1015951D01*
X1763204Y1018358D01*
Y1018543D01*
Y1018914D01*
Y1019469D01*
X1763019Y1020395D01*
X1762834Y1021321D01*
X1762649Y1022617D01*
X1762093Y1025394D01*
X1760982Y1028542D01*
X1759131Y1031875D01*
X1758205Y1033727D01*
X1756909Y1035393D01*
X1755427Y1037060D01*
X1753761Y1038541D01*
X1753576Y1038726D01*
X1753390Y1038912D01*
X1752835Y1039282D01*
X1751909Y1039837D01*
X1750983Y1040393D01*
X1749687Y1041134D01*
X1748206Y1041874D01*
X1746539Y1042800D01*
X1744502Y1043541D01*
X1742280Y1044281D01*
X1739873Y1045022D01*
X1737281Y1045578D01*
X1734318Y1046133D01*
X1731171Y1046503D01*
X1727838Y1046874D01*
D02*
G37*
G36*
X1307511D02*
X1305474D01*
X1303993Y1046689D01*
X1302141Y1046503D01*
X1300104Y1046133D01*
X1297697Y1045763D01*
X1295290Y1045207D01*
X1292512Y1044467D01*
X1289735Y1043541D01*
X1286957Y1042430D01*
X1283995Y1041134D01*
X1281032Y1039467D01*
X1278254Y1037615D01*
X1275477Y1035579D01*
X1272885Y1033171D01*
X1272700Y1032986D01*
X1272329Y1032616D01*
X1271589Y1031690D01*
X1270848Y1030764D01*
X1269737Y1029283D01*
X1268626Y1027802D01*
X1267330Y1025765D01*
X1266034Y1023728D01*
X1264923Y1021321D01*
X1263626Y1018728D01*
X1262515Y1015766D01*
X1261404Y1012803D01*
X1260664Y1009470D01*
X1259923Y1006137D01*
X1259553Y1002434D01*
X1259368Y998545D01*
Y996509D01*
X1259553Y995027D01*
X1259738Y993176D01*
X1260108Y991139D01*
X1260479Y988732D01*
X1261034Y986324D01*
X1261775Y983547D01*
X1262701Y980769D01*
X1263812Y977807D01*
X1265108Y974844D01*
X1266774Y971881D01*
X1268626Y969104D01*
X1270663Y966326D01*
X1273070Y963549D01*
X1273255Y963364D01*
X1273625Y962994D01*
X1274366Y962253D01*
X1275477Y961327D01*
X1276773Y960401D01*
X1278440Y959290D01*
X1280291Y957994D01*
X1282328Y956698D01*
X1284735Y955402D01*
X1287328Y954106D01*
X1290105Y952995D01*
X1293253Y952069D01*
X1296401Y951143D01*
X1299919Y950402D01*
X1303437Y950032D01*
X1307326Y949847D01*
X1308622D01*
X1309548Y950032D01*
X1310659D01*
X1311955Y950217D01*
X1315103Y950587D01*
X1318991Y951328D01*
X1323065Y952254D01*
X1327323Y953735D01*
X1331767Y955587D01*
X1331953D01*
X1332323Y955772D01*
X1332878Y956142D01*
X1333619Y956698D01*
X1335656Y957994D01*
X1338248Y959846D01*
X1341026Y962253D01*
X1343988Y965215D01*
X1346766Y968548D01*
X1349358Y972437D01*
Y972622D01*
X1349543Y972992D01*
X1349914Y973548D01*
X1350284Y974474D01*
X1350654Y975585D01*
X1351210Y976881D01*
X1351765Y978362D01*
X1352321Y980029D01*
X1352876Y981880D01*
X1353432Y983917D01*
X1354358Y988546D01*
X1355098Y993916D01*
X1355284Y999656D01*
Y1000953D01*
X1355098Y1001693D01*
Y1002804D01*
X1354913Y1004100D01*
X1354543Y1007248D01*
X1353802Y1010766D01*
X1352691Y1014655D01*
X1351395Y1018914D01*
X1349358Y1023172D01*
Y1023358D01*
X1348988Y1023728D01*
X1348803Y1024283D01*
X1348247Y1025024D01*
X1346766Y1027061D01*
X1344914Y1029653D01*
X1342507Y1032431D01*
X1339544Y1035393D01*
X1336211Y1038171D01*
X1332323Y1040763D01*
X1332138D01*
X1331767Y1040948D01*
X1331212Y1041319D01*
X1330286Y1041689D01*
X1329360Y1042245D01*
X1328064Y1042615D01*
X1326583Y1043170D01*
X1325101Y1043911D01*
X1321398Y1045022D01*
X1317139Y1045948D01*
X1312510Y1046689D01*
X1307511Y1046874D01*
D02*
G37*
G36*
X1210113D02*
X1203262D01*
X1201781Y1046689D01*
X1199929Y1046503D01*
X1197892Y1046318D01*
X1195670Y1046133D01*
X1191041Y1045392D01*
X1186412Y1044281D01*
X1181968Y1042615D01*
X1179931Y1041689D01*
X1178080Y1040578D01*
X1177895D01*
X1177709Y1040208D01*
X1176598Y1039467D01*
X1174932Y1037986D01*
X1173080Y1035949D01*
X1170858Y1033542D01*
X1168821Y1030394D01*
X1166785Y1026691D01*
X1165303Y1022432D01*
X1188449Y1018173D01*
Y1018358D01*
X1188819Y1019099D01*
X1189190Y1020025D01*
X1189745Y1021136D01*
X1190486Y1022617D01*
X1191597Y1023913D01*
X1192708Y1025209D01*
X1194189Y1026320D01*
X1194374Y1026505D01*
X1194930Y1026876D01*
X1195856Y1027246D01*
X1197152Y1027802D01*
X1198818Y1028357D01*
X1200855Y1028913D01*
X1203262Y1029098D01*
X1206040Y1029283D01*
X1207706D01*
X1209373Y1029098D01*
X1211410Y1028913D01*
X1213817Y1028542D01*
X1216039Y1028172D01*
X1218076Y1027431D01*
X1219927Y1026505D01*
X1220112D01*
X1220298Y1026135D01*
X1221223Y1025209D01*
X1222334Y1023543D01*
X1222520Y1022617D01*
X1222705Y1021506D01*
Y1021321D01*
Y1021136D01*
X1222334Y1020025D01*
X1221594Y1018543D01*
X1221038Y1017803D01*
X1220298Y1017062D01*
X1220112Y1016877D01*
X1219372Y1016692D01*
X1219001Y1016321D01*
X1218261Y1016136D01*
X1217335Y1015766D01*
X1216224Y1015210D01*
X1214743Y1014840D01*
X1213261Y1014284D01*
X1211410Y1013729D01*
X1209188Y1013173D01*
X1206780Y1012433D01*
X1204003Y1011692D01*
X1200855Y1010951D01*
X1197337Y1010026D01*
X1197152D01*
X1196411Y1009840D01*
X1195485Y1009655D01*
X1194189Y1009285D01*
X1192523Y1008730D01*
X1190671Y1008359D01*
X1186597Y1007063D01*
X1181968Y1005397D01*
X1177524Y1003545D01*
X1175302Y1002434D01*
X1173265Y1001508D01*
X1171599Y1000212D01*
X1169932Y999101D01*
X1169562Y998731D01*
X1168636Y997990D01*
X1167525Y996509D01*
X1166044Y994472D01*
X1164563Y991879D01*
X1163452Y988732D01*
X1162526Y985028D01*
X1162155Y980955D01*
Y979658D01*
X1162341Y978733D01*
X1162526Y977807D01*
X1162711Y976511D01*
X1163452Y973363D01*
X1164748Y970030D01*
X1165674Y968178D01*
X1166599Y966326D01*
X1167896Y964475D01*
X1169377Y962623D01*
X1171043Y960772D01*
X1172895Y958920D01*
X1173080Y958735D01*
X1173451Y958550D01*
X1174006Y958179D01*
X1174932Y957439D01*
X1176043Y956883D01*
X1177339Y956142D01*
X1179006Y955217D01*
X1180857Y954476D01*
X1182894Y953550D01*
X1185301Y952809D01*
X1187893Y951884D01*
X1190671Y951328D01*
X1193819Y950773D01*
X1197152Y950217D01*
X1200670Y950032D01*
X1204373Y949847D01*
X1206225D01*
X1207521Y950032D01*
X1209188D01*
X1211039Y950217D01*
X1213076Y950402D01*
X1215298Y950773D01*
X1220112Y951698D01*
X1225112Y952995D01*
X1230111Y954846D01*
X1232333Y956142D01*
X1234555Y957439D01*
X1234740Y957624D01*
X1235111Y957809D01*
X1235666Y958179D01*
X1236222Y958920D01*
X1238259Y960586D01*
X1240481Y962994D01*
X1242888Y965956D01*
X1245110Y969474D01*
X1247147Y973733D01*
X1248813Y978362D01*
X1224186Y982066D01*
Y981695D01*
X1223816Y980955D01*
X1223445Y979658D01*
X1222890Y977992D01*
X1221964Y976140D01*
X1220853Y974474D01*
X1219557Y972622D01*
X1217890Y971141D01*
X1217705Y970956D01*
X1216965Y970585D01*
X1215854Y970030D01*
X1214372Y969474D01*
X1212521Y968734D01*
X1210113Y968178D01*
X1207521Y967808D01*
X1204373Y967623D01*
X1202892D01*
X1201040Y967808D01*
X1199003Y967993D01*
X1196781Y968363D01*
X1194374Y969104D01*
X1192152Y969845D01*
X1190115Y970956D01*
X1189930Y971141D01*
X1189560Y971511D01*
X1189004Y972067D01*
X1188449Y972807D01*
X1187893Y973733D01*
X1187338Y974844D01*
X1186968Y976140D01*
X1186782Y977622D01*
Y977807D01*
Y978177D01*
X1186968Y979288D01*
X1187523Y980769D01*
X1188634Y982251D01*
X1189004Y982621D01*
X1189560Y982806D01*
X1190301Y983362D01*
X1191412Y983732D01*
X1192893Y984288D01*
X1194559Y984843D01*
X1196781Y985399D01*
X1197152D01*
X1198078Y985769D01*
X1199559Y986139D01*
X1201596Y986510D01*
X1204003Y987065D01*
X1206595Y987806D01*
X1209558Y988546D01*
X1212706Y989472D01*
X1219187Y991324D01*
X1222334Y992250D01*
X1225297Y993361D01*
X1228075Y994287D01*
X1230667Y995398D01*
X1232889Y996509D01*
X1234555Y997434D01*
X1234740Y997620D01*
X1235111Y997805D01*
X1235481Y998175D01*
X1236222Y998916D01*
X1238073Y1000582D01*
X1239925Y1002989D01*
X1241962Y1005952D01*
X1243814Y1009470D01*
X1244554Y1011507D01*
X1244925Y1013729D01*
X1245295Y1015951D01*
X1245480Y1018358D01*
Y1018543D01*
Y1018914D01*
Y1019469D01*
X1245295Y1020395D01*
X1245110Y1021321D01*
X1244925Y1022617D01*
X1244369Y1025394D01*
X1243258Y1028542D01*
X1241406Y1031875D01*
X1240481Y1033727D01*
X1239184Y1035393D01*
X1237703Y1037060D01*
X1236037Y1038541D01*
X1235851Y1038726D01*
X1235666Y1038912D01*
X1235111Y1039282D01*
X1234185Y1039837D01*
X1233259Y1040393D01*
X1231963Y1041134D01*
X1230482Y1041874D01*
X1228815Y1042800D01*
X1226778Y1043541D01*
X1224556Y1044281D01*
X1222149Y1045022D01*
X1219557Y1045578D01*
X1216594Y1046133D01*
X1213446Y1046503D01*
X1210113Y1046874D01*
D02*
G37*
G36*
X1399909Y1044837D02*
X1375281D01*
Y950402D01*
X1375467Y948736D01*
X1375652Y945032D01*
X1375837Y940959D01*
X1376207Y936700D01*
X1376948Y932997D01*
X1377318Y931330D01*
X1377689Y929849D01*
X1377874Y929478D01*
X1378244Y928553D01*
X1378800Y927256D01*
X1379725Y925590D01*
X1381022Y923738D01*
X1382503Y921887D01*
X1384540Y920035D01*
X1386762Y918368D01*
X1387132Y918183D01*
X1387873Y917628D01*
X1389354Y917072D01*
X1391206Y916332D01*
X1393613Y915406D01*
X1396576Y914850D01*
X1399723Y914295D01*
X1403427Y914110D01*
X1404908D01*
X1405834Y914295D01*
X1406945D01*
X1408426Y914480D01*
X1411389Y914850D01*
X1411574D01*
X1412130Y915036D01*
X1412870Y915221D01*
X1413981Y915406D01*
X1415462Y915591D01*
X1416944Y915961D01*
X1420462Y916887D01*
X1416018Y937811D01*
X1415648D01*
X1414907Y937626D01*
X1413981Y937441D01*
X1412870Y937255D01*
X1412685D01*
X1411944Y937070D01*
X1411019Y936885D01*
X1409537D01*
X1408797Y937070D01*
X1407871D01*
X1406019Y937626D01*
X1403982Y938552D01*
X1403797D01*
X1403612Y938922D01*
X1402686Y939663D01*
X1401575Y940959D01*
X1400834Y942625D01*
Y942810D01*
X1400649Y943181D01*
X1400464Y943921D01*
X1400279Y945218D01*
Y946884D01*
X1400094Y949106D01*
X1399909Y950587D01*
Y952254D01*
Y953920D01*
Y955957D01*
Y1044837D01*
D02*
G37*
G36*
X1935964Y886075D02*
X1911337D01*
Y863300D01*
X1935964D01*
Y886075D01*
D02*
G37*
G36*
X1094199D02*
X1069572D01*
Y863300D01*
X1094199D01*
Y886075D01*
D02*
G37*
G36*
X1303252Y852931D02*
X1301771D01*
X1300104Y852746D01*
X1298067Y852560D01*
X1295660Y852005D01*
X1293068Y851449D01*
X1290475Y850524D01*
X1287883Y849227D01*
X1287513Y849042D01*
X1286772Y848487D01*
X1285476Y847746D01*
X1283995Y846450D01*
X1282328Y844783D01*
X1280476Y842932D01*
X1278625Y840525D01*
X1276958Y837932D01*
X1276588Y838303D01*
X1275847Y839228D01*
X1274736Y840525D01*
X1273070Y842191D01*
X1271033Y844043D01*
X1268811Y845894D01*
X1266404Y847746D01*
X1263812Y849227D01*
X1263441Y849413D01*
X1262515Y849783D01*
X1261034Y850338D01*
X1259182Y851079D01*
X1256960Y851820D01*
X1254368Y852375D01*
X1251591Y852746D01*
X1248628Y852931D01*
X1246961D01*
X1245110Y852746D01*
X1242703Y852375D01*
X1239925Y851820D01*
X1237148Y851079D01*
X1234185Y850153D01*
X1231407Y848672D01*
X1231037Y848487D01*
X1230296Y847931D01*
X1229000Y847005D01*
X1227334Y845709D01*
X1225667Y843858D01*
X1223816Y841821D01*
X1222149Y839414D01*
X1220668Y836451D01*
X1220483Y836266D01*
X1220298Y835340D01*
X1219927Y833859D01*
X1219372Y831822D01*
X1218816Y829229D01*
X1218446Y825896D01*
X1218261Y821823D01*
X1218076Y817194D01*
Y757941D01*
X1242703D01*
Y810898D01*
Y811083D01*
Y811454D01*
Y812194D01*
Y813120D01*
X1242888Y815527D01*
X1243073Y818305D01*
X1243258Y821267D01*
X1243814Y824230D01*
X1244369Y826822D01*
X1244925Y827748D01*
X1245295Y828674D01*
X1245480Y828859D01*
X1246036Y829600D01*
X1246776Y830340D01*
X1247887Y831451D01*
X1249369Y832377D01*
X1251220Y833303D01*
X1253442Y833859D01*
X1255849Y834044D01*
X1256775D01*
X1257701Y833859D01*
X1258997Y833673D01*
X1260479Y833303D01*
X1262145Y832748D01*
X1263997Y832007D01*
X1265663Y830896D01*
X1265848Y830711D01*
X1266404Y830340D01*
X1267145Y829600D01*
X1268070Y828489D01*
X1269181Y827193D01*
X1270292Y825711D01*
X1271218Y823860D01*
X1272144Y821638D01*
Y821267D01*
X1272514Y820527D01*
X1272700Y819045D01*
X1273070Y817009D01*
X1273440Y814231D01*
X1273625Y810898D01*
X1273996Y807010D01*
Y802380D01*
Y757941D01*
X1298623D01*
Y808676D01*
Y808861D01*
Y809232D01*
Y809972D01*
Y810898D01*
Y813120D01*
X1298808Y815898D01*
X1298993Y818860D01*
X1299178Y821638D01*
X1299549Y824230D01*
X1299919Y825341D01*
X1300104Y826082D01*
Y826267D01*
X1300289Y826822D01*
X1300660Y827563D01*
X1301030Y828304D01*
X1302326Y830340D01*
X1303252Y831266D01*
X1304178Y832007D01*
X1304363Y832192D01*
X1304733Y832377D01*
X1305289Y832748D01*
X1306029Y833118D01*
X1307140Y833488D01*
X1308437Y833673D01*
X1309918Y834044D01*
X1312510D01*
X1313621Y833859D01*
X1314917Y833673D01*
X1316584Y833303D01*
X1318250Y832748D01*
X1319917Y832007D01*
X1321769Y830896D01*
X1321954Y830711D01*
X1322509Y830340D01*
X1323250Y829600D01*
X1324176Y828674D01*
X1325287Y827378D01*
X1326398Y825896D01*
X1327323Y824045D01*
X1328249Y822008D01*
Y821823D01*
X1328620Y820897D01*
X1328805Y819416D01*
X1329175Y817564D01*
X1329545Y814787D01*
X1329731Y811639D01*
X1330101Y807565D01*
Y802936D01*
Y757941D01*
X1354728D01*
Y850894D01*
X1332138D01*
Y838117D01*
X1331953Y838303D01*
X1331582Y838673D01*
X1330842Y839414D01*
X1329916Y840525D01*
X1328805Y841636D01*
X1327509Y842747D01*
X1325842Y844228D01*
X1323990Y845524D01*
X1321954Y846820D01*
X1319732Y848302D01*
X1314917Y850709D01*
X1312140Y851635D01*
X1309362Y852375D01*
X1306400Y852746D01*
X1303252Y852931D01*
D02*
G37*
G36*
X685908D02*
X684427D01*
X682761Y852746D01*
X680724Y852560D01*
X678317Y852005D01*
X675724Y851449D01*
X673132Y850524D01*
X670540Y849227D01*
X670169Y849042D01*
X669429Y848487D01*
X668133Y847746D01*
X666651Y846450D01*
X664985Y844783D01*
X663133Y842932D01*
X661281Y840525D01*
X659615Y837932D01*
X659245Y838303D01*
X658504Y839228D01*
X657393Y840525D01*
X655726Y842191D01*
X653690Y844043D01*
X651468Y845894D01*
X649060Y847746D01*
X646468Y849227D01*
X646098Y849413D01*
X645172Y849783D01*
X643691Y850338D01*
X641839Y851079D01*
X639617Y851820D01*
X637025Y852375D01*
X634247Y852746D01*
X631284Y852931D01*
X629618D01*
X627766Y852746D01*
X625359Y852375D01*
X622582Y851820D01*
X619804Y851079D01*
X616842Y850153D01*
X614064Y848672D01*
X613694Y848487D01*
X612953Y847931D01*
X611657Y847005D01*
X609990Y845709D01*
X608324Y843858D01*
X606472Y841821D01*
X604806Y839414D01*
X603324Y836451D01*
X603139Y836266D01*
X602954Y835340D01*
X602584Y833859D01*
X602028Y831822D01*
X601473Y829229D01*
X601102Y825896D01*
X600917Y821823D01*
X600732Y817194D01*
Y757941D01*
X625359D01*
Y810898D01*
Y811083D01*
Y811454D01*
Y812194D01*
Y813120D01*
X625544Y815527D01*
X625730Y818305D01*
X625915Y821267D01*
X626470Y824230D01*
X627026Y826822D01*
X627581Y827748D01*
X627951Y828674D01*
X628137Y828859D01*
X628692Y829600D01*
X629433Y830340D01*
X630544Y831451D01*
X632025Y832377D01*
X633877Y833303D01*
X636099Y833859D01*
X638506Y834044D01*
X639432D01*
X640358Y833859D01*
X641654Y833673D01*
X643135Y833303D01*
X644802Y832748D01*
X646653Y832007D01*
X648320Y830896D01*
X648505Y830711D01*
X649060Y830340D01*
X649801Y829600D01*
X650727Y828489D01*
X651838Y827193D01*
X652949Y825711D01*
X653875Y823860D01*
X654801Y821638D01*
Y821267D01*
X655171Y820527D01*
X655356Y819045D01*
X655726Y817009D01*
X656097Y814231D01*
X656282Y810898D01*
X656652Y807010D01*
Y802380D01*
Y757941D01*
X681279D01*
Y808676D01*
Y808861D01*
Y809232D01*
Y809972D01*
Y810898D01*
Y813120D01*
X681464Y815898D01*
X681650Y818860D01*
X681835Y821638D01*
X682205Y824230D01*
X682575Y825341D01*
X682761Y826082D01*
Y826267D01*
X682946Y826822D01*
X683316Y827563D01*
X683686Y828304D01*
X684983Y830340D01*
X685908Y831266D01*
X686834Y832007D01*
X687019Y832192D01*
X687390Y832377D01*
X687945Y832748D01*
X688686Y833118D01*
X689797Y833488D01*
X691093Y833673D01*
X692574Y834044D01*
X695167D01*
X696278Y833859D01*
X697574Y833673D01*
X699240Y833303D01*
X700907Y832748D01*
X702573Y832007D01*
X704425Y830896D01*
X704610Y830711D01*
X705166Y830340D01*
X705906Y829600D01*
X706832Y828674D01*
X707943Y827378D01*
X709054Y825896D01*
X709980Y824045D01*
X710906Y822008D01*
Y821823D01*
X711276Y820897D01*
X711461Y819416D01*
X711832Y817564D01*
X712202Y814787D01*
X712387Y811639D01*
X712758Y807565D01*
Y802936D01*
Y757941D01*
X737385D01*
Y850894D01*
X714794D01*
Y838117D01*
X714609Y838303D01*
X714239Y838673D01*
X713498Y839414D01*
X712572Y840525D01*
X711461Y841636D01*
X710165Y842747D01*
X708499Y844228D01*
X706647Y845524D01*
X704610Y846820D01*
X702388Y848302D01*
X697574Y850709D01*
X694796Y851635D01*
X692019Y852375D01*
X689056Y852746D01*
X685908Y852931D01*
D02*
G37*
G36*
X2061507D02*
X2060766D01*
X2059840Y852746D01*
X2058544D01*
X2057248Y852375D01*
X2055396Y852190D01*
X2053545Y851635D01*
X2051508Y851079D01*
X2049286Y850153D01*
X2047064Y849227D01*
X2044657Y847931D01*
X2042249Y846450D01*
X2039842Y844783D01*
X2037435Y842561D01*
X2035213Y840339D01*
X2032991Y837562D01*
Y850894D01*
X2010031D01*
Y763310D01*
X2010216Y761829D01*
X2010401Y758311D01*
X2010771Y754237D01*
X2011142Y750164D01*
X2011882Y746275D01*
X2012253Y744609D01*
X2012808Y742942D01*
X2012993Y742572D01*
X2013364Y741646D01*
X2013919Y740165D01*
X2014845Y738313D01*
X2015956Y736276D01*
X2017252Y734054D01*
X2018733Y732017D01*
X2020585Y730166D01*
X2020770Y729981D01*
X2021511Y729425D01*
X2022622Y728499D01*
X2023918Y727573D01*
X2025770Y726462D01*
X2027992Y725166D01*
X2030584Y724055D01*
X2033547Y722944D01*
X2033917Y722759D01*
X2035028Y722574D01*
X2036694Y722018D01*
X2039102Y721648D01*
X2042249Y721093D01*
X2045768Y720537D01*
X2049841Y720352D01*
X2054285Y720167D01*
X2056507D01*
X2058174Y720352D01*
X2060025D01*
X2062247Y720537D01*
X2064654Y720907D01*
X2067247Y721278D01*
X2072802Y722204D01*
X2078357Y723685D01*
X2080949Y724611D01*
X2083541Y725722D01*
X2085763Y726833D01*
X2087800Y728314D01*
X2087985Y728499D01*
X2088171Y728684D01*
X2089282Y729795D01*
X2090948Y731462D01*
X2092615Y733869D01*
X2094466Y736832D01*
X2096133Y740350D01*
X2097244Y744423D01*
X2097429Y746645D01*
X2097614Y748867D01*
Y749053D01*
Y749793D01*
Y750719D01*
X2097429Y751830D01*
X2069284Y748497D01*
Y748312D01*
X2069098Y747756D01*
X2068913Y746831D01*
X2068728Y745905D01*
X2067802Y743683D01*
X2067062Y742572D01*
X2066136Y741831D01*
X2065951Y741646D01*
X2065395Y741461D01*
X2064654Y740905D01*
X2063358Y740535D01*
X2061877Y739979D01*
X2060025Y739424D01*
X2057803Y739239D01*
X2055211Y739054D01*
X2053545D01*
X2051878Y739239D01*
X2049841Y739424D01*
X2047434Y739794D01*
X2045027Y740350D01*
X2042805Y741090D01*
X2040768Y742016D01*
X2040583Y742201D01*
X2040213Y742387D01*
X2039657Y742757D01*
X2038916Y743498D01*
X2038176Y744423D01*
X2037435Y745534D01*
X2036694Y746831D01*
X2035954Y748312D01*
Y748497D01*
X2035769Y748867D01*
X2035583Y749608D01*
X2035213Y750904D01*
X2035028Y752386D01*
X2034843Y754237D01*
X2034658Y756644D01*
Y759422D01*
Y772939D01*
X2034843Y772754D01*
X2035213Y772384D01*
X2035769Y771643D01*
X2036694Y770532D01*
X2037620Y769421D01*
X2038916Y768125D01*
X2040583Y766829D01*
X2042249Y765532D01*
X2044101Y764051D01*
X2046323Y762755D01*
X2050952Y760348D01*
X2053545Y759422D01*
X2056322Y758681D01*
X2059285Y758126D01*
X2062433Y757941D01*
X2063173D01*
X2064284Y758126D01*
X2065580D01*
X2067062Y758496D01*
X2068913Y758866D01*
X2070950Y759237D01*
X2073172Y759977D01*
X2075394Y760718D01*
X2077801Y761829D01*
X2080394Y763125D01*
X2082801Y764607D01*
X2085208Y766458D01*
X2087615Y768495D01*
X2089837Y770902D01*
X2092059Y773680D01*
Y773865D01*
X2092429Y774235D01*
X2092800Y774976D01*
X2093355Y775902D01*
X2094096Y777198D01*
X2094837Y778679D01*
X2095577Y780346D01*
X2096318Y782382D01*
X2097059Y784419D01*
X2097799Y786826D01*
X2098540Y789419D01*
X2099281Y792196D01*
X2100206Y798122D01*
X2100392Y801455D01*
X2100577Y804788D01*
Y807010D01*
X2100392Y808676D01*
X2100206Y810528D01*
X2100021Y812750D01*
X2099651Y815342D01*
X2099095Y817934D01*
X2097799Y823860D01*
X2096873Y826822D01*
X2095948Y829785D01*
X2094651Y832562D01*
X2093170Y835525D01*
X2091504Y838117D01*
X2089467Y840525D01*
X2089282Y840710D01*
X2088911Y841080D01*
X2088356Y841636D01*
X2087430Y842561D01*
X2086319Y843487D01*
X2085023Y844413D01*
X2083541Y845524D01*
X2081690Y846820D01*
X2079838Y847931D01*
X2077616Y849042D01*
X2072987Y851079D01*
X2070209Y851820D01*
X2067432Y852375D01*
X2064469Y852746D01*
X2061507Y852931D01*
D02*
G37*
G36*
X1428794D02*
X1428054D01*
X1427128Y852746D01*
X1425832D01*
X1424536Y852375D01*
X1422684Y852190D01*
X1420832Y851635D01*
X1418795Y851079D01*
X1416573Y850153D01*
X1414352Y849227D01*
X1411944Y847931D01*
X1409537Y846450D01*
X1407130Y844783D01*
X1404723Y842561D01*
X1402501Y840339D01*
X1400279Y837562D01*
Y850894D01*
X1377318D01*
Y763310D01*
X1377503Y761829D01*
X1377689Y758311D01*
X1378059Y754237D01*
X1378429Y750164D01*
X1379170Y746275D01*
X1379540Y744609D01*
X1380096Y742942D01*
X1380281Y742572D01*
X1380651Y741646D01*
X1381207Y740165D01*
X1382133Y738313D01*
X1383244Y736276D01*
X1384540Y734054D01*
X1386021Y732017D01*
X1387873Y730166D01*
X1388058Y729981D01*
X1388799Y729425D01*
X1389910Y728499D01*
X1391206Y727573D01*
X1393057Y726462D01*
X1395279Y725166D01*
X1397872Y724055D01*
X1400834Y722944D01*
X1401205Y722759D01*
X1402316Y722574D01*
X1403982Y722018D01*
X1406389Y721648D01*
X1409537Y721093D01*
X1413055Y720537D01*
X1417129Y720352D01*
X1421573Y720167D01*
X1423795D01*
X1425461Y720352D01*
X1427313D01*
X1429535Y720537D01*
X1431942Y720907D01*
X1434535Y721278D01*
X1440090Y722204D01*
X1445645Y723685D01*
X1448237Y724611D01*
X1450829Y725722D01*
X1453051Y726833D01*
X1455088Y728314D01*
X1455273Y728499D01*
X1455458Y728684D01*
X1456569Y729795D01*
X1458236Y731462D01*
X1459902Y733869D01*
X1461754Y736832D01*
X1463420Y740350D01*
X1464531Y744423D01*
X1464717Y746645D01*
X1464902Y748867D01*
Y749053D01*
Y749793D01*
Y750719D01*
X1464717Y751830D01*
X1436571Y748497D01*
Y748312D01*
X1436386Y747756D01*
X1436201Y746831D01*
X1436016Y745905D01*
X1435090Y743683D01*
X1434349Y742572D01*
X1433424Y741831D01*
X1433238Y741646D01*
X1432683Y741461D01*
X1431942Y740905D01*
X1430646Y740535D01*
X1429165Y739979D01*
X1427313Y739424D01*
X1425091Y739239D01*
X1422499Y739054D01*
X1420832D01*
X1419166Y739239D01*
X1417129Y739424D01*
X1414722Y739794D01*
X1412315Y740350D01*
X1410093Y741090D01*
X1408056Y742016D01*
X1407871Y742201D01*
X1407500Y742387D01*
X1406945Y742757D01*
X1406204Y743498D01*
X1405464Y744423D01*
X1404723Y745534D01*
X1403982Y746831D01*
X1403242Y748312D01*
Y748497D01*
X1403056Y748867D01*
X1402871Y749608D01*
X1402501Y750904D01*
X1402316Y752386D01*
X1402131Y754237D01*
X1401945Y756644D01*
Y759422D01*
Y772939D01*
X1402131Y772754D01*
X1402501Y772384D01*
X1403056Y771643D01*
X1403982Y770532D01*
X1404908Y769421D01*
X1406204Y768125D01*
X1407871Y766829D01*
X1409537Y765532D01*
X1411389Y764051D01*
X1413611Y762755D01*
X1418240Y760348D01*
X1420832Y759422D01*
X1423610Y758681D01*
X1426572Y758126D01*
X1429720Y757941D01*
X1430461D01*
X1431572Y758126D01*
X1432868D01*
X1434349Y758496D01*
X1436201Y758866D01*
X1438238Y759237D01*
X1440460Y759977D01*
X1442682Y760718D01*
X1445089Y761829D01*
X1447681Y763125D01*
X1450089Y764607D01*
X1452496Y766458D01*
X1454903Y768495D01*
X1457125Y770902D01*
X1459347Y773680D01*
Y773865D01*
X1459717Y774235D01*
X1460088Y774976D01*
X1460643Y775902D01*
X1461384Y777198D01*
X1462124Y778679D01*
X1462865Y780346D01*
X1463606Y782382D01*
X1464346Y784419D01*
X1465087Y786826D01*
X1465828Y789419D01*
X1466568Y792196D01*
X1467494Y798122D01*
X1467679Y801455D01*
X1467864Y804788D01*
Y807010D01*
X1467679Y808676D01*
X1467494Y810528D01*
X1467309Y812750D01*
X1466939Y815342D01*
X1466383Y817934D01*
X1465087Y823860D01*
X1464161Y826822D01*
X1463235Y829785D01*
X1461939Y832562D01*
X1460458Y835525D01*
X1458791Y838117D01*
X1456755Y840525D01*
X1456569Y840710D01*
X1456199Y841080D01*
X1455644Y841636D01*
X1454718Y842561D01*
X1453607Y843487D01*
X1452311Y844413D01*
X1450829Y845524D01*
X1448978Y846820D01*
X1447126Y847931D01*
X1444904Y849042D01*
X1440275Y851079D01*
X1437497Y851820D01*
X1434720Y852375D01*
X1431757Y852746D01*
X1428794Y852931D01*
D02*
G37*
G36*
X1160859D02*
X1154749D01*
X1153453Y852746D01*
X1151971D01*
X1148268Y852375D01*
X1144379Y852005D01*
X1140306Y851264D01*
X1136417Y850153D01*
X1134751Y849598D01*
X1133084Y848857D01*
X1132899D01*
X1132714Y848672D01*
X1131788Y848116D01*
X1130307Y847376D01*
X1128640Y846265D01*
X1126604Y844783D01*
X1124752Y843117D01*
X1123085Y841080D01*
X1121604Y839043D01*
X1121419Y838673D01*
X1121049Y837932D01*
X1120493Y836266D01*
X1120308Y835340D01*
X1119938Y834044D01*
X1119567Y832748D01*
X1119382Y831081D01*
X1119012Y829229D01*
X1118827Y827193D01*
X1118641Y824971D01*
X1118456Y822564D01*
X1118271Y819971D01*
Y817009D01*
X1118641Y788308D01*
Y788123D01*
Y787752D01*
Y787197D01*
Y786271D01*
Y784049D01*
X1118456Y781457D01*
Y778494D01*
X1118086Y775531D01*
X1117901Y772569D01*
X1117530Y770162D01*
Y769976D01*
X1117345Y769236D01*
X1116975Y767940D01*
X1116605Y766458D01*
X1115864Y764607D01*
X1115123Y762570D01*
X1114197Y760348D01*
X1113086Y757941D01*
X1137343D01*
Y758126D01*
X1137528Y758311D01*
X1137713Y759052D01*
X1138084Y759792D01*
X1138454Y760718D01*
X1138824Y762014D01*
X1139195Y763496D01*
X1139750Y765162D01*
Y765347D01*
X1139935Y765532D01*
X1140121Y766273D01*
X1140491Y767199D01*
X1140676Y767940D01*
X1141046Y767754D01*
X1141787Y767014D01*
X1143083Y765903D01*
X1144750Y764607D01*
X1146787Y763125D01*
X1149009Y761459D01*
X1151601Y760163D01*
X1154193Y758866D01*
X1154564Y758681D01*
X1155489Y758496D01*
X1156971Y757941D01*
X1158822Y757385D01*
X1161044Y756830D01*
X1163637Y756459D01*
X1166599Y756089D01*
X1169562Y755904D01*
X1170858D01*
X1171969Y756089D01*
X1173080D01*
X1174562Y756274D01*
X1177709Y756830D01*
X1181413Y757755D01*
X1185116Y759052D01*
X1188819Y760903D01*
X1192152Y763496D01*
Y763681D01*
X1192523Y763866D01*
X1193448Y764977D01*
X1194745Y766643D01*
X1196226Y768865D01*
X1197707Y771643D01*
X1199003Y774976D01*
X1199929Y778864D01*
X1200114Y780901D01*
X1200300Y783123D01*
Y784419D01*
X1200114Y785901D01*
X1199744Y787752D01*
X1199374Y789974D01*
X1198818Y792196D01*
X1197892Y794603D01*
X1196596Y797011D01*
X1196411Y797381D01*
X1195856Y798122D01*
X1195115Y799233D01*
X1193819Y800529D01*
X1192523Y802010D01*
X1190671Y803677D01*
X1188634Y805158D01*
X1186227Y806454D01*
X1185857Y806639D01*
X1184931Y807010D01*
X1183450Y807565D01*
X1181228Y808491D01*
X1178450Y809417D01*
X1175117Y810343D01*
X1171043Y811268D01*
X1166599Y812194D01*
X1166414D01*
X1165859Y812379D01*
X1164933Y812565D01*
X1163822Y812750D01*
X1162341Y812935D01*
X1160674Y813305D01*
X1156971Y814231D01*
X1153082Y815157D01*
X1149009Y816083D01*
X1145490Y817194D01*
X1143824Y817749D01*
X1142528Y818305D01*
Y820712D01*
Y821082D01*
Y821823D01*
X1142713Y823119D01*
X1142898Y824785D01*
X1143454Y826452D01*
X1144009Y828118D01*
X1144935Y829600D01*
X1146231Y830896D01*
X1146416Y831081D01*
X1146972Y831451D01*
X1147898Y831822D01*
X1149194Y832562D01*
X1151045Y833118D01*
X1153267Y833488D01*
X1156045Y833859D01*
X1159378Y834044D01*
X1160489D01*
X1161600Y833859D01*
X1163081Y833673D01*
X1164748Y833303D01*
X1166599Y832933D01*
X1168266Y832192D01*
X1169747Y831266D01*
X1169932Y831081D01*
X1170303Y830711D01*
X1171043Y830155D01*
X1171784Y829229D01*
X1172895Y827933D01*
X1173821Y826267D01*
X1174747Y824415D01*
X1175673Y822193D01*
X1197707Y826267D01*
Y826452D01*
X1197522Y826822D01*
X1197337Y827563D01*
X1196967Y828489D01*
X1196596Y829600D01*
X1196041Y830896D01*
X1194745Y833859D01*
X1192893Y837006D01*
X1190671Y840339D01*
X1188079Y843487D01*
X1184931Y846265D01*
X1184746D01*
X1184560Y846635D01*
X1184005Y846820D01*
X1183264Y847376D01*
X1182153Y847746D01*
X1181042Y848302D01*
X1179561Y849042D01*
X1178080Y849598D01*
X1176228Y850153D01*
X1174191Y850894D01*
X1171969Y851449D01*
X1169377Y851820D01*
X1166785Y852375D01*
X1163822Y852560D01*
X1160859Y852931D01*
D02*
G37*
G36*
X2305000Y886075D02*
X2280373D01*
Y818120D01*
X2251672Y850894D01*
X2221490D01*
X2253339Y816823D01*
X2219268Y757941D01*
X2245747D01*
X2269263Y799603D01*
X2280373Y787567D01*
Y757941D01*
X2305000D01*
Y886075D01*
D02*
G37*
G36*
X1846714Y852931D02*
X1845048D01*
X1843937Y852746D01*
X1842455D01*
X1840789Y852560D01*
X1838937Y852375D01*
X1836900Y852005D01*
X1832641Y851079D01*
X1828198Y849783D01*
X1823754Y847931D01*
X1819680Y845524D01*
X1819495D01*
X1819310Y845154D01*
X1818754Y844783D01*
X1818013Y844228D01*
X1816347Y842561D01*
X1814125Y840154D01*
X1811718Y837006D01*
X1809311Y833303D01*
X1807089Y828859D01*
X1805237Y823675D01*
X1829494Y819231D01*
Y819601D01*
X1829679Y820342D01*
X1830049Y821638D01*
X1830605Y823304D01*
X1831530Y824971D01*
X1832456Y826822D01*
X1833752Y828489D01*
X1835234Y829970D01*
X1835419Y830155D01*
X1835974Y830526D01*
X1836900Y831081D01*
X1838196Y831822D01*
X1839863Y832562D01*
X1841715Y833118D01*
X1843937Y833488D01*
X1846344Y833673D01*
X1846714D01*
X1847825Y833488D01*
X1849492Y833303D01*
X1851714Y832933D01*
X1853936Y832007D01*
X1856343Y830896D01*
X1858750Y829415D01*
X1860972Y827193D01*
X1861157Y826822D01*
X1861713Y825896D01*
X1862638Y824415D01*
X1863564Y822193D01*
X1864675Y819231D01*
X1865046Y817564D01*
X1865416Y815712D01*
X1865786Y813490D01*
X1866157Y811268D01*
X1866342Y808676D01*
Y806084D01*
Y805899D01*
Y805343D01*
Y804417D01*
X1866157Y803306D01*
Y802010D01*
X1865971Y800529D01*
X1865601Y796825D01*
X1865046Y792937D01*
X1863935Y789048D01*
X1862638Y785530D01*
X1861713Y784049D01*
X1860787Y782568D01*
X1860602Y782197D01*
X1859676Y781457D01*
X1858565Y780531D01*
X1856898Y779235D01*
X1854676Y777938D01*
X1852269Y777013D01*
X1849306Y776272D01*
X1845973Y775902D01*
X1844862D01*
X1843566Y776087D01*
X1841900Y776457D01*
X1840048Y776828D01*
X1838196Y777568D01*
X1836345Y778494D01*
X1834493Y779790D01*
X1834308Y779975D01*
X1833752Y780531D01*
X1833012Y781457D01*
X1831901Y782938D01*
X1830790Y784790D01*
X1829864Y787197D01*
X1828753Y790159D01*
X1828012Y793492D01*
X1803941Y789419D01*
Y789234D01*
X1804126Y788678D01*
X1804311Y787752D01*
X1804681Y786641D01*
X1805237Y785345D01*
X1805792Y783679D01*
X1807274Y779975D01*
X1809125Y775902D01*
X1811718Y771828D01*
X1814866Y767754D01*
X1816717Y765903D01*
X1818569Y764236D01*
X1818754D01*
X1819124Y763866D01*
X1819680Y763496D01*
X1820421Y762940D01*
X1821532Y762385D01*
X1822828Y761644D01*
X1824309Y760903D01*
X1826161Y760163D01*
X1828012Y759237D01*
X1830234Y758496D01*
X1832456Y757755D01*
X1835049Y757200D01*
X1837826Y756644D01*
X1840789Y756274D01*
X1843751Y756089D01*
X1847084Y755904D01*
X1849121D01*
X1850417Y756089D01*
X1852084Y756274D01*
X1854121Y756644D01*
X1856343Y757015D01*
X1858750Y757570D01*
X1861342Y758126D01*
X1863935Y759052D01*
X1866712Y759977D01*
X1869304Y761274D01*
X1872082Y762755D01*
X1874674Y764421D01*
X1877081Y766458D01*
X1879488Y768680D01*
X1879674Y768865D01*
X1880044Y769236D01*
X1880599Y769976D01*
X1881340Y771087D01*
X1882266Y772384D01*
X1883377Y773865D01*
X1884303Y775717D01*
X1885414Y777938D01*
X1886710Y780346D01*
X1887636Y782938D01*
X1888747Y785901D01*
X1889673Y789048D01*
X1890413Y792567D01*
X1890969Y796085D01*
X1891339Y800158D01*
X1891524Y804232D01*
Y806454D01*
X1891339Y807935D01*
X1891154Y809972D01*
X1890969Y812194D01*
X1890598Y814601D01*
X1890043Y817379D01*
X1888562Y823119D01*
X1887636Y826082D01*
X1886525Y829044D01*
X1885043Y832007D01*
X1883377Y834784D01*
X1881525Y837377D01*
X1879488Y839969D01*
X1879303Y840154D01*
X1878933Y840525D01*
X1878192Y841080D01*
X1877267Y842006D01*
X1875970Y842932D01*
X1874489Y844043D01*
X1872823Y845339D01*
X1870786Y846450D01*
X1868564Y847746D01*
X1866157Y848857D01*
X1863379Y849968D01*
X1860416Y850894D01*
X1857454Y851820D01*
X1853936Y852375D01*
X1850417Y852746D01*
X1846714Y852931D01*
D02*
G37*
G36*
X905330D02*
X903664D01*
X902553Y852746D01*
X901071D01*
X899405Y852560D01*
X897553Y852375D01*
X895516Y852005D01*
X891258Y851079D01*
X886814Y849783D01*
X882370Y847931D01*
X878296Y845524D01*
X878111D01*
X877926Y845154D01*
X877370Y844783D01*
X876629Y844228D01*
X874963Y842561D01*
X872741Y840154D01*
X870334Y837006D01*
X867927Y833303D01*
X865705Y828859D01*
X863853Y823675D01*
X888110Y819231D01*
Y819601D01*
X888295Y820342D01*
X888665Y821638D01*
X889221Y823304D01*
X890147Y824971D01*
X891072Y826822D01*
X892369Y828489D01*
X893850Y829970D01*
X894035Y830155D01*
X894591Y830526D01*
X895516Y831081D01*
X896813Y831822D01*
X898479Y832562D01*
X900331Y833118D01*
X902553Y833488D01*
X904960Y833673D01*
X905330D01*
X906441Y833488D01*
X908108Y833303D01*
X910330Y832933D01*
X912552Y832007D01*
X914959Y830896D01*
X917366Y829415D01*
X919588Y827193D01*
X919773Y826822D01*
X920329Y825896D01*
X921254Y824415D01*
X922180Y822193D01*
X923291Y819231D01*
X923662Y817564D01*
X924032Y815712D01*
X924402Y813490D01*
X924773Y811268D01*
X924958Y808676D01*
Y806084D01*
Y805899D01*
Y805343D01*
Y804417D01*
X924773Y803306D01*
Y802010D01*
X924587Y800529D01*
X924217Y796825D01*
X923662Y792937D01*
X922551Y789048D01*
X921254Y785530D01*
X920329Y784049D01*
X919403Y782568D01*
X919218Y782197D01*
X918292Y781457D01*
X917181Y780531D01*
X915514Y779235D01*
X913292Y777938D01*
X910885Y777013D01*
X907922Y776272D01*
X904590Y775902D01*
X903479D01*
X902182Y776087D01*
X900516Y776457D01*
X898664Y776828D01*
X896813Y777568D01*
X894961Y778494D01*
X893109Y779790D01*
X892924Y779975D01*
X892369Y780531D01*
X891628Y781457D01*
X890517Y782938D01*
X889406Y784790D01*
X888480Y787197D01*
X887369Y790159D01*
X886628Y793492D01*
X862557Y789419D01*
Y789234D01*
X862742Y788678D01*
X862927Y787752D01*
X863297Y786641D01*
X863853Y785345D01*
X864408Y783679D01*
X865890Y779975D01*
X867741Y775902D01*
X870334Y771828D01*
X873482Y767754D01*
X875333Y765903D01*
X877185Y764236D01*
X877370D01*
X877740Y763866D01*
X878296Y763496D01*
X879037Y762940D01*
X880148Y762385D01*
X881444Y761644D01*
X882925Y760903D01*
X884777Y760163D01*
X886628Y759237D01*
X888850Y758496D01*
X891072Y757755D01*
X893665Y757200D01*
X896442Y756644D01*
X899405Y756274D01*
X902368Y756089D01*
X905701Y755904D01*
X907737D01*
X909033Y756089D01*
X910700Y756274D01*
X912737Y756644D01*
X914959Y757015D01*
X917366Y757570D01*
X919958Y758126D01*
X922551Y759052D01*
X925328Y759977D01*
X927920Y761274D01*
X930698Y762755D01*
X933290Y764421D01*
X935697Y766458D01*
X938105Y768680D01*
X938290Y768865D01*
X938660Y769236D01*
X939216Y769976D01*
X939956Y771087D01*
X940882Y772384D01*
X941993Y773865D01*
X942919Y775717D01*
X944030Y777938D01*
X945326Y780346D01*
X946252Y782938D01*
X947363Y785901D01*
X948289Y789048D01*
X949029Y792567D01*
X949585Y796085D01*
X949955Y800158D01*
X950140Y804232D01*
Y806454D01*
X949955Y807935D01*
X949770Y809972D01*
X949585Y812194D01*
X949215Y814601D01*
X948659Y817379D01*
X947178Y823119D01*
X946252Y826082D01*
X945141Y829044D01*
X943660Y832007D01*
X941993Y834784D01*
X940141Y837377D01*
X938105Y839969D01*
X937919Y840154D01*
X937549Y840525D01*
X936808Y841080D01*
X935883Y842006D01*
X934586Y842932D01*
X933105Y844043D01*
X931439Y845339D01*
X929402Y846450D01*
X927180Y847746D01*
X924773Y848857D01*
X921995Y849968D01*
X919032Y850894D01*
X916070Y851820D01*
X912552Y852375D01*
X909033Y852746D01*
X905330Y852931D01*
D02*
G37*
G36*
X2205010Y850894D02*
X2180383D01*
Y808121D01*
Y807935D01*
Y807195D01*
Y806269D01*
Y804973D01*
Y803491D01*
Y801825D01*
X2180198Y797936D01*
X2180013Y793678D01*
X2179828Y789789D01*
X2179643Y788123D01*
X2179457Y786456D01*
X2179272Y785160D01*
X2179087Y784234D01*
Y784049D01*
X2178902Y783493D01*
X2178532Y782753D01*
X2177976Y781642D01*
X2177421Y780531D01*
X2176495Y779420D01*
X2175569Y778309D01*
X2174273Y777198D01*
X2174088Y777013D01*
X2173532Y776828D01*
X2172791Y776457D01*
X2171680Y776087D01*
X2170384Y775531D01*
X2168718Y775161D01*
X2167051Y774976D01*
X2165014Y774791D01*
X2163903D01*
X2162792Y774976D01*
X2161311Y775161D01*
X2159459Y775531D01*
X2157608Y776272D01*
X2155571Y777013D01*
X2153719Y778124D01*
X2153534Y778309D01*
X2152979Y778679D01*
X2152053Y779420D01*
X2150942Y780531D01*
X2149831Y781827D01*
X2148720Y783123D01*
X2147609Y784790D01*
X2146868Y786641D01*
Y786826D01*
X2146498Y787752D01*
Y788493D01*
X2146313Y789419D01*
X2146128Y790345D01*
X2145942Y791641D01*
X2145757Y793307D01*
X2145572Y794974D01*
X2145387Y797011D01*
Y799418D01*
X2145202Y802010D01*
X2145017Y804973D01*
Y808121D01*
Y811639D01*
Y850894D01*
X2120389D01*
Y757941D01*
X2143165D01*
Y771828D01*
X2143350Y771458D01*
X2144091Y770532D01*
X2145202Y769236D01*
X2146868Y767569D01*
X2148720Y765532D01*
X2151127Y763681D01*
X2153719Y761644D01*
X2156682Y759977D01*
X2157052Y759792D01*
X2158163Y759422D01*
X2159830Y758681D01*
X2162052Y757941D01*
X2164644Y757200D01*
X2167607Y756459D01*
X2170755Y756089D01*
X2174088Y755904D01*
X2175754D01*
X2177421Y756089D01*
X2179643Y756459D01*
X2182420Y756830D01*
X2185198Y757570D01*
X2188160Y758681D01*
X2190938Y759977D01*
X2191308Y760163D01*
X2192049Y760718D01*
X2193530Y761644D01*
X2195011Y762940D01*
X2196863Y764607D01*
X2198530Y766458D01*
X2200196Y768865D01*
X2201677Y771458D01*
X2201863Y771828D01*
X2202233Y772754D01*
X2202788Y774420D01*
X2203344Y776828D01*
X2203899Y779790D01*
X2204455Y783308D01*
X2204825Y787382D01*
X2205010Y792011D01*
Y850894D01*
D02*
G37*
G36*
X1985774Y886075D02*
X1961147D01*
Y757941D01*
X1985774D01*
Y886075D01*
D02*
G37*
G36*
X1935964Y850894D02*
X1911337D01*
Y757941D01*
X1935964D01*
Y850894D01*
D02*
G37*
G36*
X1686916Y886075D02*
X1662289D01*
Y757941D01*
X1686916D01*
Y886075D01*
D02*
G37*
G36*
X1094199Y850894D02*
X1069572D01*
Y757941D01*
X1094199D01*
Y850894D01*
D02*
G37*
G36*
X1044390Y886075D02*
X1019763D01*
Y757941D01*
X1044390D01*
Y886075D01*
D02*
G37*
G36*
X994580Y782568D02*
X969953D01*
Y757941D01*
X994580D01*
Y782568D01*
D02*
G37*
G36*
X1756353Y852931D02*
X1749502D01*
X1748021Y852746D01*
X1746169Y852560D01*
X1744132Y852375D01*
X1741910Y852190D01*
X1737281Y851449D01*
X1732652Y850338D01*
X1728208Y848672D01*
X1726171Y847746D01*
X1724319Y846635D01*
X1724134D01*
X1723949Y846265D01*
X1722838Y845524D01*
X1721172Y844043D01*
X1719320Y842006D01*
X1717098Y839599D01*
X1715061Y836451D01*
X1713024Y832748D01*
X1711543Y828489D01*
X1734689Y824230D01*
Y824415D01*
X1735059Y825156D01*
X1735429Y826082D01*
X1735985Y827193D01*
X1736726Y828674D01*
X1737837Y829970D01*
X1738948Y831266D01*
X1740429Y832377D01*
X1740614Y832562D01*
X1741169Y832933D01*
X1742095Y833303D01*
X1743391Y833859D01*
X1745058Y834414D01*
X1747095Y834970D01*
X1749502Y835155D01*
X1752279Y835340D01*
X1753946D01*
X1755612Y835155D01*
X1757649Y834970D01*
X1760056Y834599D01*
X1762278Y834229D01*
X1764315Y833488D01*
X1766167Y832562D01*
X1766352D01*
X1766537Y832192D01*
X1767463Y831266D01*
X1768574Y829600D01*
X1768759Y828674D01*
X1768944Y827563D01*
Y827378D01*
Y827193D01*
X1768574Y826082D01*
X1767833Y824600D01*
X1767278Y823860D01*
X1766537Y823119D01*
X1766352Y822934D01*
X1765611Y822749D01*
X1765241Y822378D01*
X1764500Y822193D01*
X1763575Y821823D01*
X1762464Y821267D01*
X1760982Y820897D01*
X1759501Y820342D01*
X1757649Y819786D01*
X1755427Y819231D01*
X1753020Y818490D01*
X1750243Y817749D01*
X1747095Y817009D01*
X1743577Y816083D01*
X1743391D01*
X1742651Y815898D01*
X1741725Y815712D01*
X1740429Y815342D01*
X1738762Y814787D01*
X1736911Y814416D01*
X1732837Y813120D01*
X1728208Y811454D01*
X1723764Y809602D01*
X1721542Y808491D01*
X1719505Y807565D01*
X1717839Y806269D01*
X1716172Y805158D01*
X1715802Y804788D01*
X1714876Y804047D01*
X1713765Y802566D01*
X1712284Y800529D01*
X1710802Y797936D01*
X1709691Y794789D01*
X1708765Y791085D01*
X1708395Y787012D01*
Y785715D01*
X1708580Y784790D01*
X1708765Y783864D01*
X1708951Y782568D01*
X1709691Y779420D01*
X1710987Y776087D01*
X1711913Y774235D01*
X1712839Y772384D01*
X1714135Y770532D01*
X1715617Y768680D01*
X1717283Y766829D01*
X1719135Y764977D01*
X1719320Y764792D01*
X1719690Y764607D01*
X1720246Y764236D01*
X1721172Y763496D01*
X1722283Y762940D01*
X1723579Y762199D01*
X1725245Y761274D01*
X1727097Y760533D01*
X1729134Y759607D01*
X1731541Y758866D01*
X1734133Y757941D01*
X1736911Y757385D01*
X1740058Y756830D01*
X1743391Y756274D01*
X1746910Y756089D01*
X1750613Y755904D01*
X1752465D01*
X1753761Y756089D01*
X1755427D01*
X1757279Y756274D01*
X1759316Y756459D01*
X1761538Y756830D01*
X1766352Y757755D01*
X1771352Y759052D01*
X1776351Y760903D01*
X1778573Y762199D01*
X1780795Y763496D01*
X1780980Y763681D01*
X1781351Y763866D01*
X1781906Y764236D01*
X1782462Y764977D01*
X1784498Y766643D01*
X1786720Y769051D01*
X1789127Y772013D01*
X1791349Y775531D01*
X1793386Y779790D01*
X1795053Y784419D01*
X1770426Y788123D01*
Y787752D01*
X1770055Y787012D01*
X1769685Y785715D01*
X1769130Y784049D01*
X1768204Y782197D01*
X1767093Y780531D01*
X1765797Y778679D01*
X1764130Y777198D01*
X1763945Y777013D01*
X1763204Y776642D01*
X1762093Y776087D01*
X1760612Y775531D01*
X1758760Y774791D01*
X1756353Y774235D01*
X1753761Y773865D01*
X1750613Y773680D01*
X1749132D01*
X1747280Y773865D01*
X1745243Y774050D01*
X1743021Y774420D01*
X1740614Y775161D01*
X1738392Y775902D01*
X1736355Y777013D01*
X1736170Y777198D01*
X1735800Y777568D01*
X1735244Y778124D01*
X1734689Y778864D01*
X1734133Y779790D01*
X1733578Y780901D01*
X1733207Y782197D01*
X1733022Y783679D01*
Y783864D01*
Y784234D01*
X1733207Y785345D01*
X1733763Y786826D01*
X1734874Y788308D01*
X1735244Y788678D01*
X1735800Y788863D01*
X1736540Y789419D01*
X1737651Y789789D01*
X1739133Y790345D01*
X1740799Y790900D01*
X1743021Y791456D01*
X1743391D01*
X1744317Y791826D01*
X1745799Y792196D01*
X1747835Y792567D01*
X1750243Y793122D01*
X1752835Y793863D01*
X1755798Y794603D01*
X1758945Y795529D01*
X1765426Y797381D01*
X1768574Y798307D01*
X1771537Y799418D01*
X1774314Y800344D01*
X1776907Y801455D01*
X1779129Y802566D01*
X1780795Y803491D01*
X1780980Y803677D01*
X1781351Y803862D01*
X1781721Y804232D01*
X1782462Y804973D01*
X1784313Y806639D01*
X1786165Y809046D01*
X1788202Y812009D01*
X1790053Y815527D01*
X1790794Y817564D01*
X1791164Y819786D01*
X1791535Y822008D01*
X1791720Y824415D01*
Y824600D01*
Y824971D01*
Y825526D01*
X1791535Y826452D01*
X1791349Y827378D01*
X1791164Y828674D01*
X1790609Y831451D01*
X1789498Y834599D01*
X1787646Y837932D01*
X1786720Y839784D01*
X1785424Y841450D01*
X1783943Y843117D01*
X1782276Y844598D01*
X1782091Y844783D01*
X1781906Y844969D01*
X1781351Y845339D01*
X1780425Y845894D01*
X1779499Y846450D01*
X1778203Y847191D01*
X1776721Y847931D01*
X1775055Y848857D01*
X1773018Y849598D01*
X1770796Y850338D01*
X1768389Y851079D01*
X1765797Y851635D01*
X1762834Y852190D01*
X1759686Y852560D01*
X1756353Y852931D01*
D02*
G37*
G36*
X802933D02*
X800897D01*
X799415Y852746D01*
X797564Y852560D01*
X795527Y852190D01*
X793120Y851820D01*
X790712Y851264D01*
X787935Y850524D01*
X785157Y849598D01*
X782380Y848487D01*
X779417Y847191D01*
X776455Y845524D01*
X773677Y843672D01*
X770900Y841636D01*
X768307Y839228D01*
X768122Y839043D01*
X767752Y838673D01*
X767011Y837747D01*
X766271Y836821D01*
X765160Y835340D01*
X764049Y833859D01*
X762752Y831822D01*
X761456Y829785D01*
X760345Y827378D01*
X759049Y824785D01*
X757938Y821823D01*
X756827Y818860D01*
X756086Y815527D01*
X755346Y812194D01*
X754975Y808491D01*
X754790Y804602D01*
Y802566D01*
X754975Y801084D01*
X755161Y799233D01*
X755531Y797196D01*
X755901Y794789D01*
X756457Y792381D01*
X757197Y789604D01*
X758123Y786826D01*
X759234Y783864D01*
X760530Y780901D01*
X762197Y777938D01*
X764049Y775161D01*
X766085Y772384D01*
X768492Y769606D01*
X768678Y769421D01*
X769048Y769051D01*
X769789Y768310D01*
X770900Y767384D01*
X772196Y766458D01*
X773862Y765347D01*
X775714Y764051D01*
X777751Y762755D01*
X780158Y761459D01*
X782750Y760163D01*
X785528Y759052D01*
X788676Y758126D01*
X791823Y757200D01*
X795342Y756459D01*
X798860Y756089D01*
X802748Y755904D01*
X804044D01*
X804970Y756089D01*
X806081D01*
X807377Y756274D01*
X810525Y756644D01*
X814414Y757385D01*
X818487Y758311D01*
X822746Y759792D01*
X827190Y761644D01*
X827375D01*
X827746Y761829D01*
X828301Y762199D01*
X829042Y762755D01*
X831079Y764051D01*
X833671Y765903D01*
X836448Y768310D01*
X839411Y771273D01*
X842189Y774606D01*
X844781Y778494D01*
Y778679D01*
X844966Y779049D01*
X845336Y779605D01*
X845707Y780531D01*
X846077Y781642D01*
X846633Y782938D01*
X847188Y784419D01*
X847744Y786086D01*
X848299Y787937D01*
X848855Y789974D01*
X849780Y794603D01*
X850521Y799973D01*
X850706Y805713D01*
Y807010D01*
X850521Y807750D01*
Y808861D01*
X850336Y810157D01*
X849966Y813305D01*
X849225Y816823D01*
X848114Y820712D01*
X846818Y824971D01*
X844781Y829229D01*
Y829415D01*
X844411Y829785D01*
X844225Y830340D01*
X843670Y831081D01*
X842189Y833118D01*
X840337Y835710D01*
X837930Y838488D01*
X834967Y841450D01*
X831634Y844228D01*
X827746Y846820D01*
X827560D01*
X827190Y847005D01*
X826635Y847376D01*
X825709Y847746D01*
X824783Y848302D01*
X823487Y848672D01*
X822005Y849227D01*
X820524Y849968D01*
X816821Y851079D01*
X812562Y852005D01*
X807933Y852746D01*
X802933Y852931D01*
D02*
G37*
G36*
X1554892Y888483D02*
X1552671D01*
X1551189Y888297D01*
X1549338D01*
X1546930Y888112D01*
X1544523Y887742D01*
X1541746Y887372D01*
X1538783Y887001D01*
X1535635Y886446D01*
X1529154Y884779D01*
X1522303Y882742D01*
X1518970Y881261D01*
X1515822Y879780D01*
X1515637Y879595D01*
X1515082Y879409D01*
X1514156Y878854D01*
X1513045Y878298D01*
X1511564Y877373D01*
X1509897Y876262D01*
X1508045Y874965D01*
X1506009Y873484D01*
X1503972Y871818D01*
X1501750Y870151D01*
X1497491Y865892D01*
X1493232Y860893D01*
X1491381Y858301D01*
X1489529Y855338D01*
X1489344Y855153D01*
X1489159Y854597D01*
X1488603Y853857D01*
X1488048Y852560D01*
X1487492Y851079D01*
X1486566Y849413D01*
X1485826Y847376D01*
X1484900Y845154D01*
X1484159Y842747D01*
X1483233Y839969D01*
X1481937Y834229D01*
X1480826Y827748D01*
X1480641Y824415D01*
X1480456Y820897D01*
Y820712D01*
Y819971D01*
Y818675D01*
X1480641Y817194D01*
X1480826Y815157D01*
X1481196Y812935D01*
X1481567Y810343D01*
X1482122Y807565D01*
X1482863Y804417D01*
X1483789Y801269D01*
X1484900Y797936D01*
X1486381Y794418D01*
X1487862Y791085D01*
X1489714Y787567D01*
X1491936Y784049D01*
X1494343Y780531D01*
X1494528Y780346D01*
X1495084Y779605D01*
X1496195Y778494D01*
X1497491Y777013D01*
X1499158Y775346D01*
X1501194Y773309D01*
X1503602Y771273D01*
X1506379Y769236D01*
X1509342Y767199D01*
X1512675Y765162D01*
X1516378Y763125D01*
X1520266Y761459D01*
X1524340Y759977D01*
X1528784Y758866D01*
X1533413Y758126D01*
X1538413Y757941D01*
X1539709D01*
X1541005Y758126D01*
X1542486Y758311D01*
X1546190Y759052D01*
X1548041Y759607D01*
X1549523Y760348D01*
X1549708Y760533D01*
X1550078Y760903D01*
X1550634Y761459D01*
X1551374Y762199D01*
X1552300Y763310D01*
X1553041Y764607D01*
X1553782Y766088D01*
X1554337Y767754D01*
X1554522Y767569D01*
X1554892Y767384D01*
X1555448Y766829D01*
X1556189Y766273D01*
X1557114Y765532D01*
X1558225Y764607D01*
X1561188Y762940D01*
X1564706Y761088D01*
X1568780Y759422D01*
X1573224Y758311D01*
X1575631Y758126D01*
X1578038Y757941D01*
X1579520D01*
X1580445Y758126D01*
X1581742Y758311D01*
X1583038Y758496D01*
X1586371Y759237D01*
X1590259Y760348D01*
X1594333Y762199D01*
X1596370Y763310D01*
X1598221Y764607D01*
X1600258Y766273D01*
X1602110Y767940D01*
X1602295Y768125D01*
X1602480Y768495D01*
X1603036Y769051D01*
X1603591Y769791D01*
X1604332Y770717D01*
X1605072Y772013D01*
X1605998Y773309D01*
X1606739Y774976D01*
X1607665Y776828D01*
X1608591Y778864D01*
X1610072Y783308D01*
X1611183Y788493D01*
X1611368Y791456D01*
X1611553Y794418D01*
Y794603D01*
Y795344D01*
Y796455D01*
X1611368Y797936D01*
X1611183Y799788D01*
X1610998Y801825D01*
X1610627Y804232D01*
X1610072Y806824D01*
X1609516Y809602D01*
X1608776Y812565D01*
X1607850Y815712D01*
X1606739Y819045D01*
X1605443Y822193D01*
X1603776Y825526D01*
X1602110Y828859D01*
X1600073Y832007D01*
X1599888Y832192D01*
X1599518Y832933D01*
X1598592Y833859D01*
X1597481Y835340D01*
X1596185Y836821D01*
X1594518Y838488D01*
X1592666Y840525D01*
X1590444Y842376D01*
X1587852Y844228D01*
X1585260Y846265D01*
X1582297Y847931D01*
X1579149Y849598D01*
X1575816Y850894D01*
X1572113Y851820D01*
X1568410Y852560D01*
X1564336Y852746D01*
X1562855D01*
X1561744Y852560D01*
X1560447Y852375D01*
X1558966Y852190D01*
X1555633Y851264D01*
X1551930Y849783D01*
X1549893Y848857D01*
X1548041Y847746D01*
X1546190Y846265D01*
X1544523Y844598D01*
X1542857Y842747D01*
X1541375Y840710D01*
X1539339Y850524D01*
X1516008D01*
X1529340Y787752D01*
Y787567D01*
X1529525Y786826D01*
X1529710Y785715D01*
X1529895Y784604D01*
X1530265Y782012D01*
X1530451Y780901D01*
Y779975D01*
Y779605D01*
X1530265Y778679D01*
X1530080Y777568D01*
X1529525Y776642D01*
X1529340Y776457D01*
X1528784Y776272D01*
X1528043Y775902D01*
X1527118Y775717D01*
X1526377D01*
X1525451Y775902D01*
X1524155Y776272D01*
X1522488Y777013D01*
X1520637Y777753D01*
X1518600Y779049D01*
X1516193Y780716D01*
X1516008D01*
X1515822Y781086D01*
X1514711Y782012D01*
X1513045Y783493D01*
X1511008Y785530D01*
X1508786Y787937D01*
X1506379Y791085D01*
X1503972Y794603D01*
X1501750Y798492D01*
Y798677D01*
X1501565Y799047D01*
X1501194Y799603D01*
X1500824Y800529D01*
X1500454Y801455D01*
X1499898Y802751D01*
X1498972Y805713D01*
X1497861Y809232D01*
X1497121Y813120D01*
X1496380Y817379D01*
X1496195Y821823D01*
Y822008D01*
Y822749D01*
X1496380Y823860D01*
Y825341D01*
X1496750Y827193D01*
X1496936Y829415D01*
X1497491Y831822D01*
X1498232Y834414D01*
X1498972Y837192D01*
X1500083Y839969D01*
X1501380Y842932D01*
X1502861Y846080D01*
X1504713Y849042D01*
X1506749Y852005D01*
X1509156Y854968D01*
X1511934Y857745D01*
X1512119Y857930D01*
X1512675Y858301D01*
X1513600Y859041D01*
X1514711Y859967D01*
X1516378Y861078D01*
X1518230Y862374D01*
X1520637Y863670D01*
X1523229Y865152D01*
X1526007Y866448D01*
X1529340Y867744D01*
X1532858Y869040D01*
X1536746Y870151D01*
X1541005Y871077D01*
X1545449Y871818D01*
X1550263Y872188D01*
X1555263Y872373D01*
X1557485D01*
X1559151Y872188D01*
X1561188Y872003D01*
X1563595Y871818D01*
X1566188Y871632D01*
X1569150Y871077D01*
X1572298Y870707D01*
X1575446Y869966D01*
X1582297Y868300D01*
X1585630Y867189D01*
X1588963Y865892D01*
X1592296Y864226D01*
X1595444Y862559D01*
X1595629Y862374D01*
X1596185Y862189D01*
X1596925Y861634D01*
X1598221Y860708D01*
X1599518Y859782D01*
X1601184Y858671D01*
X1602850Y857190D01*
X1604702Y855523D01*
X1606739Y853671D01*
X1608776Y851635D01*
X1610813Y849413D01*
X1612849Y847005D01*
X1614886Y844413D01*
X1616738Y841636D01*
X1618590Y838488D01*
X1620256Y835340D01*
Y835155D01*
X1620626Y834599D01*
X1620997Y833673D01*
X1621552Y832377D01*
X1622108Y830711D01*
X1622848Y828859D01*
X1623589Y826637D01*
X1624330Y824230D01*
X1625256Y821453D01*
X1625996Y818675D01*
X1627292Y812379D01*
X1628218Y805713D01*
X1628403Y802195D01*
X1628589Y798677D01*
Y798492D01*
Y797936D01*
Y796825D01*
X1628403Y795529D01*
X1628218Y794048D01*
X1628033Y792011D01*
X1627848Y789974D01*
X1627478Y787567D01*
X1626367Y782382D01*
X1624700Y776828D01*
X1623589Y773865D01*
X1622293Y770902D01*
X1620997Y768125D01*
X1619330Y765162D01*
X1619145Y764977D01*
X1618960Y764421D01*
X1618404Y763681D01*
X1617664Y762755D01*
X1616738Y761459D01*
X1615442Y759977D01*
X1614146Y758496D01*
X1612664Y756830D01*
X1610813Y754978D01*
X1608961Y753126D01*
X1606739Y751275D01*
X1604332Y749608D01*
X1601925Y747756D01*
X1599147Y746090D01*
X1596370Y744609D01*
X1593222Y743127D01*
X1593037D01*
X1592481Y742757D01*
X1591555Y742572D01*
X1590259Y742016D01*
X1588593Y741461D01*
X1586741Y740905D01*
X1584519Y740350D01*
X1582112Y739609D01*
X1579334Y738868D01*
X1576372Y738313D01*
X1573224Y737757D01*
X1569891Y737202D01*
X1562484Y736461D01*
X1554707Y736091D01*
X1552671D01*
X1551189Y736276D01*
X1549338D01*
X1547301Y736461D01*
X1544894Y736646D01*
X1542301Y736832D01*
X1536746Y737572D01*
X1530636Y738683D01*
X1524710Y739979D01*
X1518785Y742016D01*
X1518600D01*
X1518044Y742387D01*
X1517304Y742572D01*
X1516378Y743127D01*
X1515082Y743683D01*
X1513600Y744423D01*
X1510082Y746460D01*
X1506194Y748867D01*
X1502305Y752015D01*
X1498232Y755533D01*
X1494528Y759607D01*
X1475827D01*
X1476012Y759422D01*
X1476197Y758866D01*
X1476752Y757941D01*
X1477493Y756644D01*
X1478419Y755163D01*
X1479530Y753497D01*
X1481011Y751460D01*
X1482493Y749423D01*
X1484344Y747201D01*
X1486196Y744979D01*
X1488418Y742572D01*
X1490825Y740350D01*
X1493603Y737943D01*
X1496380Y735721D01*
X1499343Y733684D01*
X1502676Y731647D01*
X1502861Y731462D01*
X1503602Y731092D01*
X1504713Y730536D01*
X1506379Y729795D01*
X1508416Y728870D01*
X1510823Y727944D01*
X1513600Y726833D01*
X1516748Y725907D01*
X1520266Y724796D01*
X1524155Y723685D01*
X1528229Y722759D01*
X1532673Y721833D01*
X1537487Y721093D01*
X1542486Y720537D01*
X1547671Y720167D01*
X1553226Y719982D01*
X1556003D01*
X1558040Y720167D01*
X1560633Y720352D01*
X1563410Y720537D01*
X1566743Y720722D01*
X1570261Y721278D01*
X1574150Y721648D01*
X1578038Y722389D01*
X1586556Y724055D01*
X1590815Y725166D01*
X1595074Y726648D01*
X1599147Y728129D01*
X1603221Y729795D01*
X1603406Y729981D01*
X1604147Y730351D01*
X1605258Y730906D01*
X1606554Y731647D01*
X1608405Y732573D01*
X1610442Y733869D01*
X1612664Y735350D01*
X1614886Y737017D01*
X1617479Y739054D01*
X1620071Y741090D01*
X1622663Y743498D01*
X1625256Y746090D01*
X1627663Y748867D01*
X1630070Y751830D01*
X1632292Y754978D01*
X1634329Y758496D01*
X1634514Y758681D01*
X1634699Y759422D01*
X1635255Y760348D01*
X1635995Y761829D01*
X1636736Y763681D01*
X1637477Y765718D01*
X1638402Y768125D01*
X1639328Y770902D01*
X1640439Y773865D01*
X1641365Y777013D01*
X1642106Y780346D01*
X1642846Y784049D01*
X1644143Y791826D01*
X1644328Y795900D01*
X1644513Y799973D01*
Y802380D01*
X1644328Y804232D01*
X1644143Y806269D01*
X1643957Y808861D01*
X1643587Y811824D01*
X1643032Y814972D01*
X1642476Y818305D01*
X1641735Y822008D01*
X1640810Y825896D01*
X1639699Y829785D01*
X1638402Y833673D01*
X1636736Y837747D01*
X1635069Y841821D01*
X1633033Y845894D01*
X1632847Y846080D01*
X1632477Y846820D01*
X1631736Y847931D01*
X1630811Y849413D01*
X1629700Y851079D01*
X1628218Y853116D01*
X1626552Y855523D01*
X1624700Y857930D01*
X1622478Y860337D01*
X1620071Y863115D01*
X1617479Y865707D01*
X1614701Y868300D01*
X1611553Y870892D01*
X1608405Y873299D01*
X1604887Y875706D01*
X1601184Y877743D01*
X1600999Y877928D01*
X1600258Y878298D01*
X1599147Y878669D01*
X1597666Y879409D01*
X1595629Y880150D01*
X1593407Y881076D01*
X1590815Y882187D01*
X1587852Y883113D01*
X1584519Y884039D01*
X1581001Y885150D01*
X1577112Y886075D01*
X1573224Y886816D01*
X1568780Y887557D01*
X1564336Y888112D01*
X1559707Y888297D01*
X1554892Y888483D01*
D02*
G37*
%LPD*%
G36*
X2028177Y1027802D02*
X2029843Y1027616D01*
X2031880Y1027061D01*
X2034102Y1026320D01*
X2036694Y1025024D01*
X2039102Y1023358D01*
X2041324Y1020950D01*
X2041509Y1020580D01*
X2042249Y1019654D01*
X2042990Y1017988D01*
X2044101Y1015766D01*
X2045027Y1012803D01*
X2045953Y1009285D01*
X2046693Y1005026D01*
X2046879Y1000027D01*
Y999842D01*
Y999471D01*
Y998545D01*
X2046693Y997620D01*
Y996509D01*
X2046508Y995027D01*
X2046138Y991879D01*
X2045582Y988361D01*
X2044471Y984843D01*
X2043175Y981510D01*
X2041324Y978547D01*
X2041138Y978177D01*
X2040213Y977436D01*
X2039102Y976325D01*
X2037435Y975214D01*
X2035398Y973918D01*
X2032991Y972807D01*
X2030214Y972067D01*
X2027251Y971696D01*
X2026881D01*
X2025770Y971881D01*
X2024103Y972067D01*
X2021881Y972622D01*
X2019474Y973363D01*
X2017067Y974659D01*
X2014475Y976325D01*
X2012067Y978733D01*
X2011882Y979103D01*
X2011142Y980029D01*
X2010031Y981695D01*
X2008920Y983917D01*
X2007809Y986880D01*
X2006698Y990398D01*
X2005957Y994657D01*
X2005772Y999471D01*
Y999656D01*
Y1000027D01*
Y1000767D01*
Y1001878D01*
X2005957Y1002989D01*
X2006142Y1004471D01*
X2006512Y1007619D01*
X2007253Y1011137D01*
X2008179Y1014655D01*
X2009660Y1017988D01*
X2011697Y1020950D01*
X2011882Y1021321D01*
X2012808Y1022061D01*
X2014104Y1023172D01*
X2015771Y1024469D01*
X2017993Y1025765D01*
X2020585Y1026876D01*
X2023362Y1027616D01*
X2026695Y1027987D01*
X2027066D01*
X2028177Y1027802D01*
D02*
G37*
G36*
X1448792Y995953D02*
X1449903Y995768D01*
X1451570Y995212D01*
X1453607Y994657D01*
X1456384Y993916D01*
X1459347Y993176D01*
X1463050Y992435D01*
X1463420D01*
X1463976Y992250D01*
X1464717Y992065D01*
X1466383Y991694D01*
X1468605Y991139D01*
X1470827Y990583D01*
X1473049Y989843D01*
X1474901Y988917D01*
X1476382Y988176D01*
X1476567Y987991D01*
X1477123Y987621D01*
X1477863Y986880D01*
X1478604Y985954D01*
X1479530Y984658D01*
X1480271Y983177D01*
X1480826Y981510D01*
X1481011Y979658D01*
Y979473D01*
Y978733D01*
X1480826Y977807D01*
X1480456Y976696D01*
X1480085Y975214D01*
X1479530Y973733D01*
X1478604Y972252D01*
X1477308Y970770D01*
X1477123Y970585D01*
X1476567Y970215D01*
X1475827Y969659D01*
X1474530Y968919D01*
X1473234Y968178D01*
X1471568Y967623D01*
X1469531Y967252D01*
X1467494Y967067D01*
X1466383D01*
X1465087Y967252D01*
X1463420Y967623D01*
X1461384Y968178D01*
X1459347Y968919D01*
X1456940Y969845D01*
X1454718Y971326D01*
X1454533Y971511D01*
X1453977Y971881D01*
X1453236Y972622D01*
X1452311Y973548D01*
X1451385Y974844D01*
X1450459Y976140D01*
X1449533Y977807D01*
X1448978Y979473D01*
Y979658D01*
X1448792Y980029D01*
X1448607Y980955D01*
X1448422Y982066D01*
X1448237Y983732D01*
X1448052Y985769D01*
X1447867Y988361D01*
Y991324D01*
Y996323D01*
X1448052D01*
X1448792Y995953D01*
D02*
G37*
G36*
X921069D02*
X922180Y995768D01*
X923847Y995212D01*
X925884Y994657D01*
X928661Y993916D01*
X931624Y993176D01*
X935327Y992435D01*
X935697D01*
X936253Y992250D01*
X936994Y992065D01*
X938660Y991694D01*
X940882Y991139D01*
X943104Y990583D01*
X945326Y989843D01*
X947178Y988917D01*
X948659Y988176D01*
X948844Y987991D01*
X949400Y987621D01*
X950140Y986880D01*
X950881Y985954D01*
X951807Y984658D01*
X952547Y983177D01*
X953103Y981510D01*
X953288Y979658D01*
Y979473D01*
Y978733D01*
X953103Y977807D01*
X952733Y976696D01*
X952362Y975214D01*
X951807Y973733D01*
X950881Y972252D01*
X949585Y970770D01*
X949400Y970585D01*
X948844Y970215D01*
X948104Y969659D01*
X946807Y968919D01*
X945511Y968178D01*
X943845Y967623D01*
X941808Y967252D01*
X939771Y967067D01*
X938660D01*
X937364Y967252D01*
X935697Y967623D01*
X933661Y968178D01*
X931624Y968919D01*
X929217Y969845D01*
X926995Y971326D01*
X926809Y971511D01*
X926254Y971881D01*
X925513Y972622D01*
X924587Y973548D01*
X923662Y974844D01*
X922736Y976140D01*
X921810Y977807D01*
X921254Y979473D01*
Y979658D01*
X921069Y980029D01*
X920884Y980955D01*
X920699Y982066D01*
X920514Y983732D01*
X920329Y985769D01*
X920143Y988361D01*
Y991324D01*
Y996323D01*
X920329D01*
X921069Y995953D01*
D02*
G37*
G36*
X1064573Y1021876D02*
X1046797D01*
X1045501Y1022061D01*
X1042168D01*
X1038835Y1022247D01*
X1035502Y1022617D01*
X1032539Y1023172D01*
X1031243Y1023358D01*
X1030132Y1023728D01*
X1029947Y1023913D01*
X1029206Y1024098D01*
X1028280Y1024654D01*
X1027169Y1025209D01*
X1025873Y1026135D01*
X1024577Y1027246D01*
X1023096Y1028542D01*
X1021985Y1030024D01*
X1021800Y1030209D01*
X1021429Y1030764D01*
X1021059Y1031690D01*
X1020503Y1032986D01*
X1019948Y1034468D01*
X1019392Y1036134D01*
X1019207Y1037986D01*
X1019022Y1040023D01*
Y1040393D01*
Y1041134D01*
X1019207Y1042430D01*
X1019578Y1044096D01*
X1020133Y1045948D01*
X1020874Y1047985D01*
X1021800Y1049836D01*
X1023281Y1051688D01*
X1023466Y1051873D01*
X1024022Y1052429D01*
X1024947Y1053169D01*
X1026058Y1054095D01*
X1027540Y1055206D01*
X1029391Y1056132D01*
X1031428Y1056873D01*
X1033650Y1057428D01*
X1033835D01*
X1034576Y1057613D01*
X1035872Y1057798D01*
X1037724Y1057984D01*
X1040131D01*
X1041798Y1058169D01*
X1043464D01*
X1045316Y1058354D01*
X1064573D01*
Y1021876D01*
D02*
G37*
G36*
X1308992Y1026691D02*
X1310659Y1026505D01*
X1312881Y1025950D01*
X1315473Y1025024D01*
X1318250Y1023728D01*
X1321028Y1021876D01*
X1323620Y1019469D01*
X1323805Y1019099D01*
X1324546Y1018173D01*
X1325657Y1016321D01*
X1326768Y1014099D01*
X1328064Y1011137D01*
X1328990Y1007433D01*
X1329731Y1003175D01*
X1330101Y998360D01*
Y998175D01*
Y997805D01*
Y997064D01*
X1329916Y996138D01*
Y994842D01*
X1329731Y993546D01*
X1329360Y990583D01*
X1328434Y987065D01*
X1327323Y983547D01*
X1325842Y980029D01*
X1323620Y977066D01*
X1323250Y976696D01*
X1322509Y975955D01*
X1321028Y974844D01*
X1318991Y973548D01*
X1316769Y972067D01*
X1313992Y970956D01*
X1310844Y970215D01*
X1307326Y969845D01*
X1306400D01*
X1305659Y970030D01*
X1303993Y970215D01*
X1301771Y970770D01*
X1299178Y971696D01*
X1296401Y972807D01*
X1293808Y974659D01*
X1291216Y977066D01*
X1290846Y977436D01*
X1290105Y978362D01*
X1289179Y980214D01*
X1287883Y982436D01*
X1286587Y985584D01*
X1285661Y989102D01*
X1284920Y993546D01*
X1284550Y998360D01*
Y998545D01*
Y998916D01*
Y999656D01*
X1284735Y1000582D01*
Y1001693D01*
X1284920Y1003175D01*
X1285291Y1006137D01*
X1286217Y1009470D01*
X1287328Y1012988D01*
X1288994Y1016506D01*
X1291216Y1019469D01*
X1291586Y1019839D01*
X1292327Y1020580D01*
X1293808Y1021876D01*
X1295660Y1023172D01*
X1298067Y1024469D01*
X1300660Y1025765D01*
X1303807Y1026505D01*
X1307326Y1026876D01*
X1308251D01*
X1308992Y1026691D01*
D02*
G37*
G36*
X2056692Y833859D02*
X2058359Y833673D01*
X2060396Y833118D01*
X2062618Y832377D01*
X2065210Y831081D01*
X2067617Y829415D01*
X2069839Y827007D01*
X2070024Y826637D01*
X2070765Y825711D01*
X2071506Y824045D01*
X2072617Y821823D01*
X2073542Y818860D01*
X2074468Y815342D01*
X2075209Y811083D01*
X2075394Y806084D01*
Y805899D01*
Y805528D01*
Y804602D01*
X2075209Y803677D01*
Y802566D01*
X2075024Y801084D01*
X2074653Y797936D01*
X2074098Y794418D01*
X2072987Y790900D01*
X2071691Y787567D01*
X2069839Y784604D01*
X2069654Y784234D01*
X2068728Y783493D01*
X2067617Y782382D01*
X2065951Y781271D01*
X2063914Y779975D01*
X2061507Y778864D01*
X2058729Y778124D01*
X2055767Y777753D01*
X2055396D01*
X2054285Y777938D01*
X2052619Y778124D01*
X2050397Y778679D01*
X2047990Y779420D01*
X2045582Y780716D01*
X2042990Y782382D01*
X2040583Y784790D01*
X2040398Y785160D01*
X2039657Y786086D01*
X2038546Y787752D01*
X2037435Y789974D01*
X2036324Y792937D01*
X2035213Y796455D01*
X2034472Y800714D01*
X2034287Y805528D01*
Y805713D01*
Y806084D01*
Y806824D01*
Y807935D01*
X2034472Y809046D01*
X2034658Y810528D01*
X2035028Y813676D01*
X2035769Y817194D01*
X2036694Y820712D01*
X2038176Y824045D01*
X2040213Y827007D01*
X2040398Y827378D01*
X2041324Y828118D01*
X2042620Y829229D01*
X2044286Y830526D01*
X2046508Y831822D01*
X2049101Y832933D01*
X2051878Y833673D01*
X2055211Y834044D01*
X2055581D01*
X2056692Y833859D01*
D02*
G37*
G36*
X1423980D02*
X1425647Y833673D01*
X1427683Y833118D01*
X1429905Y832377D01*
X1432498Y831081D01*
X1434905Y829415D01*
X1437127Y827007D01*
X1437312Y826637D01*
X1438053Y825711D01*
X1438793Y824045D01*
X1439904Y821823D01*
X1440830Y818860D01*
X1441756Y815342D01*
X1442497Y811083D01*
X1442682Y806084D01*
Y805899D01*
Y805528D01*
Y804602D01*
X1442497Y803677D01*
Y802566D01*
X1442312Y801084D01*
X1441941Y797936D01*
X1441386Y794418D01*
X1440275Y790900D01*
X1438979Y787567D01*
X1437127Y784604D01*
X1436942Y784234D01*
X1436016Y783493D01*
X1434905Y782382D01*
X1433238Y781271D01*
X1431202Y779975D01*
X1428794Y778864D01*
X1426017Y778124D01*
X1423054Y777753D01*
X1422684D01*
X1421573Y777938D01*
X1419906Y778124D01*
X1417684Y778679D01*
X1415277Y779420D01*
X1412870Y780716D01*
X1410278Y782382D01*
X1407871Y784790D01*
X1407686Y785160D01*
X1406945Y786086D01*
X1405834Y787752D01*
X1404723Y789974D01*
X1403612Y792937D01*
X1402501Y796455D01*
X1401760Y800714D01*
X1401575Y805528D01*
Y805713D01*
Y806084D01*
Y806824D01*
Y807935D01*
X1401760Y809046D01*
X1401945Y810528D01*
X1402316Y813676D01*
X1403056Y817194D01*
X1403982Y820712D01*
X1405464Y824045D01*
X1407500Y827007D01*
X1407686Y827378D01*
X1408611Y828118D01*
X1409908Y829229D01*
X1411574Y830526D01*
X1413796Y831822D01*
X1416388Y832933D01*
X1419166Y833673D01*
X1422499Y834044D01*
X1422869D01*
X1423980Y833859D01*
D02*
G37*
G36*
X1143454Y802010D02*
X1144565Y801825D01*
X1146231Y801269D01*
X1148268Y800714D01*
X1151045Y799973D01*
X1154008Y799233D01*
X1157711Y798492D01*
X1158082D01*
X1158637Y798307D01*
X1159378Y798122D01*
X1161044Y797751D01*
X1163266Y797196D01*
X1165488Y796640D01*
X1167710Y795900D01*
X1169562Y794974D01*
X1171043Y794233D01*
X1171229Y794048D01*
X1171784Y793678D01*
X1172525Y792937D01*
X1173265Y792011D01*
X1174191Y790715D01*
X1174932Y789234D01*
X1175487Y787567D01*
X1175673Y785715D01*
Y785530D01*
Y784790D01*
X1175487Y783864D01*
X1175117Y782753D01*
X1174747Y781271D01*
X1174191Y779790D01*
X1173265Y778309D01*
X1171969Y776828D01*
X1171784Y776642D01*
X1171229Y776272D01*
X1170488Y775717D01*
X1169192Y774976D01*
X1167896Y774235D01*
X1166229Y773680D01*
X1164192Y773309D01*
X1162155Y773124D01*
X1161044D01*
X1159748Y773309D01*
X1158082Y773680D01*
X1156045Y774235D01*
X1154008Y774976D01*
X1151601Y775902D01*
X1149379Y777383D01*
X1149194Y777568D01*
X1148638Y777938D01*
X1147898Y778679D01*
X1146972Y779605D01*
X1146046Y780901D01*
X1145120Y782197D01*
X1144194Y783864D01*
X1143639Y785530D01*
Y785715D01*
X1143454Y786086D01*
X1143268Y787012D01*
X1143083Y788123D01*
X1142898Y789789D01*
X1142713Y791826D01*
X1142528Y794418D01*
Y797381D01*
Y802380D01*
X1142713D01*
X1143454Y802010D01*
D02*
G37*
G36*
X804415Y832748D02*
X806081Y832562D01*
X808303Y832007D01*
X810896Y831081D01*
X813673Y829785D01*
X816450Y827933D01*
X819043Y825526D01*
X819228Y825156D01*
X819969Y824230D01*
X821080Y822378D01*
X822191Y820156D01*
X823487Y817194D01*
X824413Y813490D01*
X825153Y809232D01*
X825524Y804417D01*
Y804232D01*
Y803862D01*
Y803121D01*
X825338Y802195D01*
Y800899D01*
X825153Y799603D01*
X824783Y796640D01*
X823857Y793122D01*
X822746Y789604D01*
X821265Y786086D01*
X819043Y783123D01*
X818672Y782753D01*
X817932Y782012D01*
X816450Y780901D01*
X814414Y779605D01*
X812192Y778124D01*
X809414Y777013D01*
X806266Y776272D01*
X802748Y775902D01*
X801822D01*
X801082Y776087D01*
X799415Y776272D01*
X797193Y776828D01*
X794601Y777753D01*
X791823Y778864D01*
X789231Y780716D01*
X786639Y783123D01*
X786268Y783493D01*
X785528Y784419D01*
X784602Y786271D01*
X783306Y788493D01*
X782010Y791641D01*
X781084Y795159D01*
X780343Y799603D01*
X779973Y804417D01*
Y804602D01*
Y804973D01*
Y805713D01*
X780158Y806639D01*
Y807750D01*
X780343Y809232D01*
X780713Y812194D01*
X781639Y815527D01*
X782750Y819045D01*
X784417Y822564D01*
X786639Y825526D01*
X787009Y825896D01*
X787750Y826637D01*
X789231Y827933D01*
X791083Y829229D01*
X793490Y830526D01*
X796082Y831822D01*
X799230Y832562D01*
X802748Y832933D01*
X803674D01*
X804415Y832748D01*
D02*
G37*
G36*
X1564891Y836636D02*
X1566743Y836266D01*
X1568965Y835525D01*
X1571187Y834599D01*
X1573779Y833118D01*
X1576187Y831081D01*
X1576372Y830896D01*
X1577298Y829970D01*
X1578409Y828674D01*
X1579705Y826822D01*
X1581186Y824415D01*
X1582853Y821638D01*
X1584334Y818305D01*
X1585630Y814416D01*
Y814231D01*
X1585815Y813861D01*
X1586000Y813305D01*
X1586186Y812565D01*
X1586556Y810528D01*
X1587111Y807935D01*
X1587852Y804973D01*
X1588222Y801825D01*
X1588593Y798492D01*
X1588778Y795344D01*
Y795159D01*
Y794789D01*
Y794233D01*
Y793492D01*
X1588593Y791641D01*
X1588222Y789234D01*
X1587667Y786456D01*
X1586926Y783864D01*
X1585815Y781271D01*
X1584334Y779049D01*
X1584149Y778864D01*
X1583593Y778309D01*
X1582667Y777383D01*
X1581371Y776457D01*
X1579705Y775531D01*
X1577853Y774606D01*
X1575816Y774050D01*
X1573409Y773865D01*
X1572483D01*
X1571557Y774050D01*
X1570446Y774235D01*
X1568965Y774420D01*
X1567299Y774976D01*
X1565817Y775531D01*
X1564151Y776272D01*
X1563966D01*
X1563595Y776642D01*
X1562855Y777013D01*
X1562114Y777568D01*
X1561003Y778309D01*
X1559892Y779235D01*
X1558781Y780531D01*
X1557485Y781827D01*
X1557300Y782012D01*
X1556744Y782753D01*
X1555818Y784049D01*
X1554892Y785715D01*
X1553596Y787937D01*
X1552300Y790530D01*
X1551004Y793678D01*
X1549708Y797196D01*
Y797381D01*
X1549523Y797751D01*
X1549338Y798307D01*
X1549152Y799047D01*
X1548597Y800899D01*
X1547856Y803491D01*
X1547301Y806454D01*
X1546745Y809787D01*
X1546375Y813120D01*
X1546190Y816453D01*
Y816638D01*
Y816823D01*
Y817379D01*
Y818120D01*
X1546375Y819786D01*
X1546745Y822008D01*
X1547301Y824415D01*
X1548227Y827007D01*
X1549338Y829415D01*
X1550819Y831637D01*
X1551004Y831822D01*
X1551560Y832562D01*
X1552671Y833303D01*
X1553967Y834414D01*
X1555633Y835340D01*
X1557670Y836266D01*
X1559892Y836821D01*
X1562299Y837006D01*
X1563595D01*
X1564891Y836636D01*
D02*
G37*
%LPC*%
G36*
X2259634Y515642D02*
X2257783D01*
X2256486Y515456D01*
X2254820Y515271D01*
X2252968Y515086D01*
X2250931Y514716D01*
X2248709Y514345D01*
X2243895Y513049D01*
X2239081Y511198D01*
X2236489Y510087D01*
X2234267Y508790D01*
X2231859Y507124D01*
X2229823Y505272D01*
X2229637Y505087D01*
X2229267Y504902D01*
X2228897Y504161D01*
X2228156Y503421D01*
X2227230Y502495D01*
X2226304Y501199D01*
X2225379Y499902D01*
X2224268Y498236D01*
X2222416Y494533D01*
X2220564Y490274D01*
X2219824Y487867D01*
X2219453Y485274D01*
X2219083Y482497D01*
X2218898Y479719D01*
Y478238D01*
X2219083Y476572D01*
X2219268Y474535D01*
X2219638Y471942D01*
X2220194Y469165D01*
X2220935Y466202D01*
X2222046Y463240D01*
X2222231Y462869D01*
X2222601Y461943D01*
X2223342Y460277D01*
X2224453Y458240D01*
X2225749Y455833D01*
X2227415Y453055D01*
X2229452Y450093D01*
X2231859Y446945D01*
X2232045Y446760D01*
X2232785Y445834D01*
X2233896Y444538D01*
X2235563Y442686D01*
X2237785Y440464D01*
X2240562Y437502D01*
X2243895Y434354D01*
X2247969Y430465D01*
X2248154Y430280D01*
X2248524Y430095D01*
X2249080Y429539D01*
X2249820Y428799D01*
X2251857Y426947D01*
X2254264Y424725D01*
X2256672Y422318D01*
X2259079Y419911D01*
X2261301Y417874D01*
X2262041Y416948D01*
X2262782Y416207D01*
X2262967Y416022D01*
X2263338Y415652D01*
X2263893Y414911D01*
X2264634Y413985D01*
X2266300Y411949D01*
X2267782Y409541D01*
X2218898D01*
Y386766D01*
X2305000D01*
Y387322D01*
X2304815Y388062D01*
X2304630Y388988D01*
X2304444Y390099D01*
X2304259Y391395D01*
X2303519Y394728D01*
X2302408Y398432D01*
X2300926Y402505D01*
X2299075Y406949D01*
X2296667Y411208D01*
Y411393D01*
X2296297Y411763D01*
X2295927Y412504D01*
X2295186Y413245D01*
X2294445Y414541D01*
X2293335Y415837D01*
X2292038Y417504D01*
X2290557Y419355D01*
X2288891Y421577D01*
X2286854Y423799D01*
X2284632Y426392D01*
X2282039Y429169D01*
X2279262Y431947D01*
X2276114Y435094D01*
X2272781Y438427D01*
X2269078Y441946D01*
X2268893Y442131D01*
X2268337Y442686D01*
X2267596Y443427D01*
X2266485Y444538D01*
X2265004Y445649D01*
X2263523Y447130D01*
X2260190Y450463D01*
X2256857Y453981D01*
X2253524Y457499D01*
X2252042Y458981D01*
X2250561Y460647D01*
X2249450Y461943D01*
X2248709Y463054D01*
X2248524Y463425D01*
X2247969Y464351D01*
X2247043Y465832D01*
X2246117Y467869D01*
X2245191Y470091D01*
X2244266Y472683D01*
X2243710Y475275D01*
X2243525Y478053D01*
Y478238D01*
Y478423D01*
Y479349D01*
X2243710Y481016D01*
X2244080Y482867D01*
X2244636Y484904D01*
X2245377Y486941D01*
X2246488Y488978D01*
X2247969Y490829D01*
X2248154Y491015D01*
X2248709Y491570D01*
X2249820Y492311D01*
X2251117Y493051D01*
X2252968Y493792D01*
X2255005Y494533D01*
X2257412Y495088D01*
X2260190Y495273D01*
X2261486D01*
X2262967Y495088D01*
X2264634Y494718D01*
X2266671Y494162D01*
X2268707Y493237D01*
X2270744Y492126D01*
X2272596Y490644D01*
X2272781Y490459D01*
X2273337Y489718D01*
X2274077Y488607D01*
X2274818Y486941D01*
X2275744Y484904D01*
X2276484Y482127D01*
X2277225Y478979D01*
X2277595Y475275D01*
X2302037Y477683D01*
Y477868D01*
X2301852Y478608D01*
Y479534D01*
X2301482Y481016D01*
X2301297Y482682D01*
X2300741Y484534D01*
X2300186Y486571D01*
X2299630Y488978D01*
X2297778Y493607D01*
X2295556Y498421D01*
X2294075Y500828D01*
X2292409Y503050D01*
X2290557Y504902D01*
X2288520Y506754D01*
X2288335Y506939D01*
X2287965Y507124D01*
X2287409Y507494D01*
X2286483Y508235D01*
X2285372Y508790D01*
X2283891Y509531D01*
X2282410Y510457D01*
X2280558Y511198D01*
X2278521Y512123D01*
X2276299Y512864D01*
X2271485Y514345D01*
X2265745Y515271D01*
X2262782Y515456D01*
X2259634Y515642D01*
D02*
G37*
G36*
X2060396D02*
X2058544D01*
X2057248Y515456D01*
X2055581Y515271D01*
X2053730Y515086D01*
X2051693Y514716D01*
X2049471Y514345D01*
X2044657Y513049D01*
X2039842Y511198D01*
X2037250Y510087D01*
X2035028Y508790D01*
X2032621Y507124D01*
X2030584Y505272D01*
X2030399Y505087D01*
X2030028Y504902D01*
X2029658Y504161D01*
X2028917Y503421D01*
X2027992Y502495D01*
X2027066Y501199D01*
X2026140Y499902D01*
X2025029Y498236D01*
X2023177Y494533D01*
X2021326Y490274D01*
X2020585Y487867D01*
X2020215Y485274D01*
X2019844Y482497D01*
X2019659Y479719D01*
Y478238D01*
X2019844Y476572D01*
X2020029Y474535D01*
X2020400Y471942D01*
X2020955Y469165D01*
X2021696Y466202D01*
X2022807Y463240D01*
X2022992Y462869D01*
X2023362Y461943D01*
X2024103Y460277D01*
X2025214Y458240D01*
X2026510Y455833D01*
X2028177Y453055D01*
X2030214Y450093D01*
X2032621Y446945D01*
X2032806Y446760D01*
X2033547Y445834D01*
X2034658Y444538D01*
X2036324Y442686D01*
X2038546Y440464D01*
X2041324Y437502D01*
X2044657Y434354D01*
X2048730Y430465D01*
X2048915Y430280D01*
X2049286Y430095D01*
X2049841Y429539D01*
X2050582Y428799D01*
X2052619Y426947D01*
X2055026Y424725D01*
X2057433Y422318D01*
X2059840Y419911D01*
X2062062Y417874D01*
X2062803Y416948D01*
X2063543Y416207D01*
X2063729Y416022D01*
X2064099Y415652D01*
X2064654Y414911D01*
X2065395Y413985D01*
X2067062Y411949D01*
X2068543Y409541D01*
X2019659D01*
Y386766D01*
X2105761D01*
Y387322D01*
X2105576Y388062D01*
X2105391Y388988D01*
X2105206Y390099D01*
X2105021Y391395D01*
X2104280Y394728D01*
X2103169Y398432D01*
X2101688Y402505D01*
X2099836Y406949D01*
X2097429Y411208D01*
Y411393D01*
X2097059Y411763D01*
X2096688Y412504D01*
X2095948Y413245D01*
X2095207Y414541D01*
X2094096Y415837D01*
X2092800Y417504D01*
X2091318Y419355D01*
X2089652Y421577D01*
X2087615Y423799D01*
X2085393Y426392D01*
X2082801Y429169D01*
X2080023Y431947D01*
X2076875Y435094D01*
X2073542Y438427D01*
X2069839Y441946D01*
X2069654Y442131D01*
X2069098Y442686D01*
X2068358Y443427D01*
X2067247Y444538D01*
X2065765Y445649D01*
X2064284Y447130D01*
X2060951Y450463D01*
X2057618Y453981D01*
X2054285Y457499D01*
X2052804Y458981D01*
X2051323Y460647D01*
X2050212Y461943D01*
X2049471Y463054D01*
X2049286Y463425D01*
X2048730Y464351D01*
X2047804Y465832D01*
X2046879Y467869D01*
X2045953Y470091D01*
X2045027Y472683D01*
X2044471Y475275D01*
X2044286Y478053D01*
Y478238D01*
Y478423D01*
Y479349D01*
X2044471Y481016D01*
X2044842Y482867D01*
X2045397Y484904D01*
X2046138Y486941D01*
X2047249Y488978D01*
X2048730Y490829D01*
X2048915Y491015D01*
X2049471Y491570D01*
X2050582Y492311D01*
X2051878Y493051D01*
X2053730Y493792D01*
X2055767Y494533D01*
X2058174Y495088D01*
X2060951Y495273D01*
X2062247D01*
X2063729Y495088D01*
X2065395Y494718D01*
X2067432Y494162D01*
X2069469Y493237D01*
X2071506Y492126D01*
X2073357Y490644D01*
X2073542Y490459D01*
X2074098Y489718D01*
X2074839Y488607D01*
X2075579Y486941D01*
X2076505Y484904D01*
X2077246Y482127D01*
X2077986Y478979D01*
X2078357Y475275D01*
X2102799Y477683D01*
Y477868D01*
X2102614Y478608D01*
Y479534D01*
X2102243Y481016D01*
X2102058Y482682D01*
X2101503Y484534D01*
X2100947Y486571D01*
X2100392Y488978D01*
X2098540Y493607D01*
X2096318Y498421D01*
X2094837Y500828D01*
X2093170Y503050D01*
X2091318Y504902D01*
X2089282Y506754D01*
X2089096Y506939D01*
X2088726Y507124D01*
X2088171Y507494D01*
X2087245Y508235D01*
X2086134Y508790D01*
X2084652Y509531D01*
X2083171Y510457D01*
X2081319Y511198D01*
X2079283Y512123D01*
X2077061Y512864D01*
X2072246Y514345D01*
X2066506Y515271D01*
X2063543Y515456D01*
X2060396Y515642D01*
D02*
G37*
G36*
X1562299D02*
X1560447D01*
X1559151Y515456D01*
X1557485Y515271D01*
X1555633Y515086D01*
X1553596Y514716D01*
X1551374Y514345D01*
X1546560Y513049D01*
X1541746Y511198D01*
X1539153Y510087D01*
X1536931Y508790D01*
X1534524Y507124D01*
X1532487Y505272D01*
X1532302Y505087D01*
X1531932Y504902D01*
X1531562Y504161D01*
X1530821Y503421D01*
X1529895Y502495D01*
X1528969Y501199D01*
X1528043Y499902D01*
X1526932Y498236D01*
X1525081Y494533D01*
X1523229Y490274D01*
X1522488Y487867D01*
X1522118Y485274D01*
X1521748Y482497D01*
X1521563Y479719D01*
Y478238D01*
X1521748Y476572D01*
X1521933Y474535D01*
X1522303Y471942D01*
X1522859Y469165D01*
X1523599Y466202D01*
X1524710Y463240D01*
X1524896Y462869D01*
X1525266Y461943D01*
X1526007Y460277D01*
X1527118Y458240D01*
X1528414Y455833D01*
X1530080Y453055D01*
X1532117Y450093D01*
X1534524Y446945D01*
X1534709Y446760D01*
X1535450Y445834D01*
X1536561Y444538D01*
X1538228Y442686D01*
X1540450Y440464D01*
X1543227Y437502D01*
X1546560Y434354D01*
X1550634Y430465D01*
X1550819Y430280D01*
X1551189Y430095D01*
X1551745Y429539D01*
X1552485Y428799D01*
X1554522Y426947D01*
X1556929Y424725D01*
X1559336Y422318D01*
X1561744Y419911D01*
X1563966Y417874D01*
X1564706Y416948D01*
X1565447Y416207D01*
X1565632Y416022D01*
X1566002Y415652D01*
X1566558Y414911D01*
X1567299Y413985D01*
X1568965Y411949D01*
X1570446Y409541D01*
X1521563D01*
Y386766D01*
X1607665D01*
Y387322D01*
X1607480Y388062D01*
X1607294Y388988D01*
X1607109Y390099D01*
X1606924Y391395D01*
X1606183Y394728D01*
X1605072Y398432D01*
X1603591Y402505D01*
X1601739Y406949D01*
X1599332Y411208D01*
Y411393D01*
X1598962Y411763D01*
X1598592Y412504D01*
X1597851Y413245D01*
X1597110Y414541D01*
X1595999Y415837D01*
X1594703Y417504D01*
X1593222Y419355D01*
X1591555Y421577D01*
X1589519Y423799D01*
X1587297Y426392D01*
X1584704Y429169D01*
X1581927Y431947D01*
X1578779Y435094D01*
X1575446Y438427D01*
X1571743Y441946D01*
X1571557Y442131D01*
X1571002Y442686D01*
X1570261Y443427D01*
X1569150Y444538D01*
X1567669Y445649D01*
X1566188Y447130D01*
X1562855Y450463D01*
X1559522Y453981D01*
X1556189Y457499D01*
X1554707Y458981D01*
X1553226Y460647D01*
X1552115Y461943D01*
X1551374Y463054D01*
X1551189Y463425D01*
X1550634Y464351D01*
X1549708Y465832D01*
X1548782Y467869D01*
X1547856Y470091D01*
X1546930Y472683D01*
X1546375Y475275D01*
X1546190Y478053D01*
Y478238D01*
Y478423D01*
Y479349D01*
X1546375Y481016D01*
X1546745Y482867D01*
X1547301Y484904D01*
X1548041Y486941D01*
X1549152Y488978D01*
X1550634Y490829D01*
X1550819Y491015D01*
X1551374Y491570D01*
X1552485Y492311D01*
X1553782Y493051D01*
X1555633Y493792D01*
X1557670Y494533D01*
X1560077Y495088D01*
X1562855Y495273D01*
X1564151D01*
X1565632Y495088D01*
X1567299Y494718D01*
X1569335Y494162D01*
X1571372Y493237D01*
X1573409Y492126D01*
X1575261Y490644D01*
X1575446Y490459D01*
X1576001Y489718D01*
X1576742Y488607D01*
X1577483Y486941D01*
X1578409Y484904D01*
X1579149Y482127D01*
X1579890Y478979D01*
X1580260Y475275D01*
X1604702Y477683D01*
Y477868D01*
X1604517Y478608D01*
Y479534D01*
X1604147Y481016D01*
X1603961Y482682D01*
X1603406Y484534D01*
X1602850Y486571D01*
X1602295Y488978D01*
X1600443Y493607D01*
X1598221Y498421D01*
X1596740Y500828D01*
X1595074Y503050D01*
X1593222Y504902D01*
X1591185Y506754D01*
X1591000Y506939D01*
X1590630Y507124D01*
X1590074Y507494D01*
X1589148Y508235D01*
X1588037Y508790D01*
X1586556Y509531D01*
X1585075Y510457D01*
X1583223Y511198D01*
X1581186Y512123D01*
X1578964Y512864D01*
X1574150Y514345D01*
X1568410Y515271D01*
X1565447Y515456D01*
X1562299Y515642D01*
D02*
G37*
G36*
X1987070Y513234D02*
X1922077D01*
Y490274D01*
X1968553D01*
X1972442Y468424D01*
X1972257D01*
X1972071Y468609D01*
X1970960Y469165D01*
X1969294Y469720D01*
X1967257Y470646D01*
X1964665Y471387D01*
X1961887Y471942D01*
X1958740Y472498D01*
X1955592Y472683D01*
X1953925D01*
X1952814Y472498D01*
X1951518Y472313D01*
X1949852Y472128D01*
X1948000Y471757D01*
X1945963Y471202D01*
X1941704Y469720D01*
X1939297Y468795D01*
X1937075Y467684D01*
X1934668Y466202D01*
X1932261Y464536D01*
X1930039Y462684D01*
X1927817Y460647D01*
X1927632Y460462D01*
X1927261Y460092D01*
X1926706Y459351D01*
X1925965Y458425D01*
X1925224Y457314D01*
X1924113Y455833D01*
X1923188Y454166D01*
X1922077Y452315D01*
X1920966Y450278D01*
X1920040Y447871D01*
X1918929Y445279D01*
X1918188Y442686D01*
X1917448Y439724D01*
X1916892Y436576D01*
X1916522Y433243D01*
X1916337Y429725D01*
Y428243D01*
X1916522Y427132D01*
Y425651D01*
X1916892Y423984D01*
X1917077Y422133D01*
X1917448Y420281D01*
X1918559Y415837D01*
X1920225Y411023D01*
X1921336Y408430D01*
X1922447Y406023D01*
X1923928Y403616D01*
X1925595Y401209D01*
X1925780Y401024D01*
X1926150Y400468D01*
X1926891Y399728D01*
X1927817Y398617D01*
X1929113Y397321D01*
X1930779Y395839D01*
X1932631Y394358D01*
X1934668Y392877D01*
X1937075Y391210D01*
X1939667Y389729D01*
X1942445Y388247D01*
X1945593Y386951D01*
X1948926Y385840D01*
X1952444Y385100D01*
X1956332Y384544D01*
X1960406Y384359D01*
X1962073D01*
X1963369Y384544D01*
X1964850Y384729D01*
X1966702Y384914D01*
X1968553Y385100D01*
X1970775Y385470D01*
X1975219Y386581D01*
X1980219Y388433D01*
X1982626Y389358D01*
X1985033Y390655D01*
X1987255Y392136D01*
X1989477Y393802D01*
X1989662Y393988D01*
X1990033Y394173D01*
X1990588Y394728D01*
X1991329Y395469D01*
X1992069Y396580D01*
X1993180Y397691D01*
X1994106Y398987D01*
X1995217Y400468D01*
X1996513Y402320D01*
X1997624Y404172D01*
X1999661Y408616D01*
X2001513Y413615D01*
X2002068Y416393D01*
X2002624Y419355D01*
X1978182Y421948D01*
Y421577D01*
X1977997Y420651D01*
X1977626Y418985D01*
X1977071Y417133D01*
X1976330Y415096D01*
X1975219Y412874D01*
X1973738Y410838D01*
X1972071Y408801D01*
X1971886Y408616D01*
X1971146Y408060D01*
X1970035Y407319D01*
X1968553Y406394D01*
X1966887Y405468D01*
X1964850Y404727D01*
X1962443Y404172D01*
X1960036Y403986D01*
X1959665D01*
X1958740Y404172D01*
X1957258Y404357D01*
X1955407Y404727D01*
X1953370Y405468D01*
X1951148Y406579D01*
X1948926Y408245D01*
X1946889Y410282D01*
X1946704Y410652D01*
X1945963Y411393D01*
X1945222Y412874D01*
X1944111Y415096D01*
X1943186Y417689D01*
X1942260Y420837D01*
X1941704Y424725D01*
X1941519Y429169D01*
Y429354D01*
Y429725D01*
Y430280D01*
Y431206D01*
X1941704Y433243D01*
X1942260Y435835D01*
X1942815Y438798D01*
X1943741Y441760D01*
X1945037Y444538D01*
X1946889Y446945D01*
X1947074Y447130D01*
X1947815Y447871D01*
X1949111Y448797D01*
X1950592Y450093D01*
X1952629Y451204D01*
X1955036Y452130D01*
X1957814Y452870D01*
X1960776Y453055D01*
X1961887D01*
X1962628Y452870D01*
X1964480Y452500D01*
X1967072Y451944D01*
X1970035Y450833D01*
X1973182Y449167D01*
X1974849Y448056D01*
X1976515Y446760D01*
X1978182Y445279D01*
X1979848Y443612D01*
X1999661Y446390D01*
X1987070Y513234D01*
D02*
G37*
G36*
X1488973D02*
X1423980D01*
Y490274D01*
X1470457D01*
X1474345Y468424D01*
X1474160D01*
X1473975Y468609D01*
X1472864Y469165D01*
X1471197Y469720D01*
X1469161Y470646D01*
X1466568Y471387D01*
X1463791Y471942D01*
X1460643Y472498D01*
X1457495Y472683D01*
X1455829D01*
X1454718Y472498D01*
X1453422Y472313D01*
X1451755Y472128D01*
X1449903Y471757D01*
X1447867Y471202D01*
X1443608Y469720D01*
X1441201Y468795D01*
X1438979Y467684D01*
X1436571Y466202D01*
X1434164Y464536D01*
X1431942Y462684D01*
X1429720Y460647D01*
X1429535Y460462D01*
X1429165Y460092D01*
X1428609Y459351D01*
X1427869Y458425D01*
X1427128Y457314D01*
X1426017Y455833D01*
X1425091Y454166D01*
X1423980Y452315D01*
X1422869Y450278D01*
X1421943Y447871D01*
X1420832Y445279D01*
X1420092Y442686D01*
X1419351Y439724D01*
X1418795Y436576D01*
X1418425Y433243D01*
X1418240Y429725D01*
Y428243D01*
X1418425Y427132D01*
Y425651D01*
X1418795Y423984D01*
X1418981Y422133D01*
X1419351Y420281D01*
X1420462Y415837D01*
X1422128Y411023D01*
X1423239Y408430D01*
X1424350Y406023D01*
X1425832Y403616D01*
X1427498Y401209D01*
X1427683Y401024D01*
X1428054Y400468D01*
X1428794Y399728D01*
X1429720Y398617D01*
X1431016Y397321D01*
X1432683Y395839D01*
X1434535Y394358D01*
X1436571Y392877D01*
X1438979Y391210D01*
X1441571Y389729D01*
X1444348Y388247D01*
X1447496Y386951D01*
X1450829Y385840D01*
X1454347Y385100D01*
X1458236Y384544D01*
X1462309Y384359D01*
X1463976D01*
X1465272Y384544D01*
X1466753Y384729D01*
X1468605Y384914D01*
X1470457Y385100D01*
X1472679Y385470D01*
X1477123Y386581D01*
X1482122Y388433D01*
X1484529Y389358D01*
X1486937Y390655D01*
X1489159Y392136D01*
X1491381Y393802D01*
X1491566Y393988D01*
X1491936Y394173D01*
X1492492Y394728D01*
X1493232Y395469D01*
X1493973Y396580D01*
X1495084Y397691D01*
X1496010Y398987D01*
X1497121Y400468D01*
X1498417Y402320D01*
X1499528Y404172D01*
X1501565Y408616D01*
X1503416Y413615D01*
X1503972Y416393D01*
X1504527Y419355D01*
X1480085Y421948D01*
Y421577D01*
X1479900Y420651D01*
X1479530Y418985D01*
X1478974Y417133D01*
X1478234Y415096D01*
X1477123Y412874D01*
X1475641Y410838D01*
X1473975Y408801D01*
X1473790Y408616D01*
X1473049Y408060D01*
X1471938Y407319D01*
X1470457Y406394D01*
X1468790Y405468D01*
X1466753Y404727D01*
X1464346Y404172D01*
X1461939Y403986D01*
X1461569D01*
X1460643Y404172D01*
X1459162Y404357D01*
X1457310Y404727D01*
X1455273Y405468D01*
X1453051Y406579D01*
X1450829Y408245D01*
X1448792Y410282D01*
X1448607Y410652D01*
X1447867Y411393D01*
X1447126Y412874D01*
X1446015Y415096D01*
X1445089Y417689D01*
X1444163Y420837D01*
X1443608Y424725D01*
X1443423Y429169D01*
Y429354D01*
Y429725D01*
Y430280D01*
Y431206D01*
X1443608Y433243D01*
X1444163Y435835D01*
X1444719Y438798D01*
X1445645Y441760D01*
X1446941Y444538D01*
X1448792Y446945D01*
X1448978Y447130D01*
X1449718Y447871D01*
X1451014Y448797D01*
X1452496Y450093D01*
X1454533Y451204D01*
X1456940Y452130D01*
X1459717Y452870D01*
X1462680Y453055D01*
X1463791D01*
X1464531Y452870D01*
X1466383Y452500D01*
X1468975Y451944D01*
X1471938Y450833D01*
X1475086Y449167D01*
X1476752Y448056D01*
X1478419Y446760D01*
X1480085Y445279D01*
X1481752Y443612D01*
X1501565Y446390D01*
X1488973Y513234D01*
D02*
G37*
G36*
X1898190Y411393D02*
X1873563D01*
Y386766D01*
X1898190D01*
Y411393D01*
D02*
G37*
G36*
X1649142D02*
X1624515D01*
Y386766D01*
X1649142D01*
Y411393D01*
D02*
G37*
G36*
X1400094D02*
X1375467D01*
Y386766D01*
X1400094D01*
Y411393D01*
D02*
G37*
G36*
X2160756Y515642D02*
X2158904D01*
X2157608Y515456D01*
X2156126Y515271D01*
X2154275Y514901D01*
X2152423Y514531D01*
X2150201Y513975D01*
X2147794Y513234D01*
X2145572Y512309D01*
X2143165Y511383D01*
X2140758Y510087D01*
X2138351Y508420D01*
X2135943Y506754D01*
X2133721Y504717D01*
X2131685Y502310D01*
X2131499Y502124D01*
X2131129Y501569D01*
X2130574Y500643D01*
X2129648Y499347D01*
X2128722Y497495D01*
X2127611Y495273D01*
X2126500Y492866D01*
X2125389Y489718D01*
X2124278Y486385D01*
X2122982Y482497D01*
X2122056Y478238D01*
X2121130Y473424D01*
X2120204Y468239D01*
X2119649Y462684D01*
X2119278Y456574D01*
X2119093Y449908D01*
Y446390D01*
X2119278Y443982D01*
X2119464Y441020D01*
X2119834Y437502D01*
X2120204Y433798D01*
X2120575Y429725D01*
X2121315Y425466D01*
X2122241Y421022D01*
X2123167Y416763D01*
X2124463Y412504D01*
X2125759Y408245D01*
X2127611Y404357D01*
X2129463Y400654D01*
X2131685Y397506D01*
X2131870Y397321D01*
X2132240Y396950D01*
X2132796Y396210D01*
X2133536Y395469D01*
X2134647Y394543D01*
X2135943Y393432D01*
X2137610Y392136D01*
X2139276Y391025D01*
X2141313Y389729D01*
X2143350Y388433D01*
X2145757Y387322D01*
X2148350Y386396D01*
X2151127Y385655D01*
X2154275Y384914D01*
X2157423Y384544D01*
X2160756Y384359D01*
X2161496D01*
X2162607Y384544D01*
X2163903D01*
X2165385Y384729D01*
X2167236Y385100D01*
X2169273Y385470D01*
X2171495Y386211D01*
X2173902Y386951D01*
X2176310Y387877D01*
X2178902Y388988D01*
X2181309Y390469D01*
X2183901Y391951D01*
X2186309Y393988D01*
X2188716Y396024D01*
X2190938Y398617D01*
X2191123Y398802D01*
X2191493Y399357D01*
X2192049Y400283D01*
X2192604Y401394D01*
X2193530Y403061D01*
X2194456Y405097D01*
X2195567Y407690D01*
X2196493Y410467D01*
X2197604Y413800D01*
X2198715Y417504D01*
X2199641Y421762D01*
X2200381Y426392D01*
X2201122Y431576D01*
X2201677Y437316D01*
X2202048Y443427D01*
X2202233Y450093D01*
Y453611D01*
X2202048Y456018D01*
X2201863Y458981D01*
X2201492Y462499D01*
X2201122Y466202D01*
X2200752Y470276D01*
X2200011Y474535D01*
X2199270Y478794D01*
X2198159Y483238D01*
X2197048Y487496D01*
X2195567Y491570D01*
X2193900Y495458D01*
X2192049Y499162D01*
X2189827Y502310D01*
X2189642Y502495D01*
X2189271Y502865D01*
X2188716Y503606D01*
X2187790Y504346D01*
X2186864Y505457D01*
X2185568Y506568D01*
X2183901Y507679D01*
X2182235Y508976D01*
X2180198Y510272D01*
X2178161Y511383D01*
X2175754Y512494D01*
X2173162Y513605D01*
X2170384Y514345D01*
X2167236Y515086D01*
X2164089Y515456D01*
X2160756Y515642D01*
D02*
G37*
G36*
X1812088D02*
X1810236D01*
X1808940Y515456D01*
X1807459Y515271D01*
X1805607Y514901D01*
X1803756Y514531D01*
X1801534Y513975D01*
X1799126Y513234D01*
X1796904Y512309D01*
X1794497Y511383D01*
X1792090Y510087D01*
X1789683Y508420D01*
X1787276Y506754D01*
X1785054Y504717D01*
X1783017Y502310D01*
X1782832Y502124D01*
X1782462Y501569D01*
X1781906Y500643D01*
X1780980Y499347D01*
X1780054Y497495D01*
X1778943Y495273D01*
X1777832Y492866D01*
X1776721Y489718D01*
X1775610Y486385D01*
X1774314Y482497D01*
X1773388Y478238D01*
X1772463Y473424D01*
X1771537Y468239D01*
X1770981Y462684D01*
X1770611Y456574D01*
X1770426Y449908D01*
Y446390D01*
X1770611Y443982D01*
X1770796Y441020D01*
X1771166Y437502D01*
X1771537Y433798D01*
X1771907Y429725D01*
X1772648Y425466D01*
X1773574Y421022D01*
X1774499Y416763D01*
X1775796Y412504D01*
X1777092Y408245D01*
X1778943Y404357D01*
X1780795Y400654D01*
X1783017Y397506D01*
X1783202Y397321D01*
X1783573Y396950D01*
X1784128Y396210D01*
X1784869Y395469D01*
X1785980Y394543D01*
X1787276Y393432D01*
X1788942Y392136D01*
X1790609Y391025D01*
X1792646Y389729D01*
X1794682Y388433D01*
X1797090Y387322D01*
X1799682Y386396D01*
X1802459Y385655D01*
X1805607Y384914D01*
X1808755Y384544D01*
X1812088Y384359D01*
X1812829D01*
X1813940Y384544D01*
X1815236D01*
X1816717Y384729D01*
X1818569Y385100D01*
X1820606Y385470D01*
X1822828Y386211D01*
X1825235Y386951D01*
X1827642Y387877D01*
X1830234Y388988D01*
X1832641Y390469D01*
X1835234Y391951D01*
X1837641Y393988D01*
X1840048Y396024D01*
X1842270Y398617D01*
X1842455Y398802D01*
X1842826Y399357D01*
X1843381Y400283D01*
X1843937Y401394D01*
X1844862Y403061D01*
X1845788Y405097D01*
X1846899Y407690D01*
X1847825Y410467D01*
X1848936Y413800D01*
X1850047Y417504D01*
X1850973Y421762D01*
X1851714Y426392D01*
X1852454Y431576D01*
X1853010Y437316D01*
X1853380Y443427D01*
X1853565Y450093D01*
Y453611D01*
X1853380Y456018D01*
X1853195Y458981D01*
X1852825Y462499D01*
X1852454Y466202D01*
X1852084Y470276D01*
X1851343Y474535D01*
X1850603Y478794D01*
X1849492Y483238D01*
X1848381Y487496D01*
X1846899Y491570D01*
X1845233Y495458D01*
X1843381Y499162D01*
X1841159Y502310D01*
X1840974Y502495D01*
X1840604Y502865D01*
X1840048Y503606D01*
X1839122Y504346D01*
X1838196Y505457D01*
X1836900Y506568D01*
X1835234Y507679D01*
X1833567Y508976D01*
X1831530Y510272D01*
X1829494Y511383D01*
X1827087Y512494D01*
X1824494Y513605D01*
X1821717Y514345D01*
X1818569Y515086D01*
X1815421Y515456D01*
X1812088Y515642D01*
D02*
G37*
G36*
X1712654D02*
X1710802D01*
X1709691Y515456D01*
X1708025Y515271D01*
X1706358Y515086D01*
X1704321Y514901D01*
X1702285Y514531D01*
X1697655Y513420D01*
X1692841Y511753D01*
X1690619Y510642D01*
X1688212Y509346D01*
X1686175Y507865D01*
X1684138Y506198D01*
X1683953Y506013D01*
X1683768Y505828D01*
X1683213Y505272D01*
X1682472Y504532D01*
X1681731Y503606D01*
X1680991Y502495D01*
X1678954Y499717D01*
X1677102Y496199D01*
X1675621Y492311D01*
X1674325Y487682D01*
X1674139Y485089D01*
X1673954Y482497D01*
Y482312D01*
Y482127D01*
Y481016D01*
X1674139Y479349D01*
X1674510Y477127D01*
X1675065Y474720D01*
X1675991Y472128D01*
X1677102Y469350D01*
X1678769Y466573D01*
X1678954Y466202D01*
X1679694Y465462D01*
X1680620Y464165D01*
X1682102Y462684D01*
X1683953Y460832D01*
X1686175Y459166D01*
X1688768Y457499D01*
X1691730Y456018D01*
X1691545D01*
X1691175Y455833D01*
X1690619Y455648D01*
X1689879Y455277D01*
X1688027Y454166D01*
X1685620Y452685D01*
X1683027Y451019D01*
X1680250Y448797D01*
X1677658Y446204D01*
X1675436Y443242D01*
X1675250Y442871D01*
X1674510Y441760D01*
X1673584Y440094D01*
X1672658Y437872D01*
X1671547Y435094D01*
X1670806Y431761D01*
X1670066Y428243D01*
X1669881Y424355D01*
Y422688D01*
X1670066Y421392D01*
X1670251Y419911D01*
X1670436Y418059D01*
X1670806Y416207D01*
X1671362Y414171D01*
X1672658Y409541D01*
X1673584Y407134D01*
X1674695Y404727D01*
X1675991Y402320D01*
X1677658Y399913D01*
X1679324Y397691D01*
X1681361Y395469D01*
X1681546Y395284D01*
X1681916Y394913D01*
X1682472Y394358D01*
X1683398Y393802D01*
X1684509Y392877D01*
X1685990Y391951D01*
X1687471Y391025D01*
X1689323Y389914D01*
X1691360Y388803D01*
X1693767Y387877D01*
X1696174Y386951D01*
X1698766Y386025D01*
X1701729Y385470D01*
X1704877Y384914D01*
X1708025Y384544D01*
X1711543Y384359D01*
X1713209D01*
X1714506Y384544D01*
X1715987Y384729D01*
X1717653Y384914D01*
X1719505Y385100D01*
X1721727Y385470D01*
X1726356Y386581D01*
X1731171Y388247D01*
X1733578Y389173D01*
X1735985Y390469D01*
X1738392Y391766D01*
X1740614Y393432D01*
X1740799Y393617D01*
X1741169Y393988D01*
X1741910Y394543D01*
X1742836Y395469D01*
X1743762Y396580D01*
X1744873Y397876D01*
X1746169Y399543D01*
X1747465Y401209D01*
X1748761Y403246D01*
X1750057Y405468D01*
X1751168Y407875D01*
X1752094Y410652D01*
X1753020Y413430D01*
X1753761Y416578D01*
X1754131Y419726D01*
X1754316Y423244D01*
Y425095D01*
X1754131Y427132D01*
X1753761Y429539D01*
X1753020Y432502D01*
X1752279Y435835D01*
X1750983Y439168D01*
X1749317Y442501D01*
Y442686D01*
X1749132Y442871D01*
X1748391Y443982D01*
X1747095Y445464D01*
X1745243Y447501D01*
X1743021Y449722D01*
X1740244Y451944D01*
X1736911Y453981D01*
X1733022Y456018D01*
X1733207D01*
X1733393Y456203D01*
X1734504Y456759D01*
X1736170Y457685D01*
X1738207Y458796D01*
X1740614Y460462D01*
X1742836Y462314D01*
X1745058Y464536D01*
X1746910Y466943D01*
X1747095Y467313D01*
X1747650Y468239D01*
X1748206Y469535D01*
X1748946Y471572D01*
X1749872Y473794D01*
X1750428Y476572D01*
X1750983Y479349D01*
X1751168Y482497D01*
Y482682D01*
Y483052D01*
Y483793D01*
X1750983Y484904D01*
X1750798Y486015D01*
X1750613Y487496D01*
X1749872Y490829D01*
X1748761Y494533D01*
X1746910Y498606D01*
X1745799Y500458D01*
X1744502Y502495D01*
X1742836Y504346D01*
X1741169Y506198D01*
X1740984Y506383D01*
X1740614Y506568D01*
X1740058Y507124D01*
X1739318Y507679D01*
X1738207Y508420D01*
X1737096Y509161D01*
X1735615Y510087D01*
X1733763Y511012D01*
X1731911Y511753D01*
X1729874Y512679D01*
X1727467Y513420D01*
X1724875Y514160D01*
X1722097Y514716D01*
X1719135Y515271D01*
X1715987Y515456D01*
X1712654Y515642D01*
D02*
G37*
%LPD*%
G36*
X2162422Y495088D02*
X2163348Y494903D01*
X2164644Y494533D01*
X2165940Y493977D01*
X2167422Y493237D01*
X2168718Y492311D01*
X2168903Y492126D01*
X2169273Y491755D01*
X2169829Y491015D01*
X2170569Y490089D01*
X2171495Y488607D01*
X2172236Y486941D01*
X2173162Y484719D01*
X2173902Y482127D01*
Y481941D01*
X2174088Y481756D01*
Y481016D01*
X2174273Y480275D01*
X2174458Y479164D01*
X2174643Y477868D01*
X2174828Y476386D01*
X2175013Y474535D01*
X2175384Y472313D01*
X2175569Y470091D01*
X2175754Y467313D01*
X2175939Y464536D01*
X2176124Y461203D01*
Y457870D01*
X2176310Y453981D01*
Y449908D01*
Y449722D01*
Y448982D01*
Y447686D01*
Y446204D01*
Y444353D01*
X2176124Y442316D01*
Y439909D01*
X2175939Y437502D01*
X2175754Y432317D01*
X2175384Y427132D01*
X2175199Y424725D01*
X2174828Y422503D01*
X2174458Y420466D01*
X2174088Y418615D01*
X2173902Y418244D01*
X2173717Y417318D01*
X2173162Y415837D01*
X2172606Y414171D01*
X2171680Y412319D01*
X2170755Y410467D01*
X2169644Y408801D01*
X2168533Y407505D01*
X2168347Y407319D01*
X2167977Y407134D01*
X2167236Y406579D01*
X2166311Y406208D01*
X2165200Y405653D01*
X2163903Y405097D01*
X2162422Y404912D01*
X2160756Y404727D01*
X2160015D01*
X2159089Y404912D01*
X2158163Y405097D01*
X2156867Y405468D01*
X2155571Y405838D01*
X2154275Y406579D01*
X2152979Y407505D01*
X2152794Y407690D01*
X2152423Y408060D01*
X2151683Y408801D01*
X2150942Y409912D01*
X2150201Y411208D01*
X2149275Y413060D01*
X2148350Y415096D01*
X2147609Y417689D01*
Y417874D01*
X2147424Y418059D01*
Y418800D01*
X2147239Y419540D01*
X2147053Y420651D01*
X2146868Y421948D01*
X2146498Y423429D01*
X2146313Y425281D01*
X2146128Y427317D01*
X2145757Y429725D01*
X2145572Y432317D01*
X2145387Y435280D01*
X2145202Y438427D01*
Y441946D01*
X2145017Y445834D01*
Y449908D01*
Y450093D01*
Y450833D01*
Y452130D01*
Y453611D01*
Y455463D01*
X2145202Y457499D01*
Y459907D01*
X2145387Y462314D01*
X2145572Y467498D01*
X2145942Y472498D01*
X2146313Y474905D01*
X2146683Y477312D01*
X2147053Y479349D01*
X2147424Y481016D01*
Y481201D01*
X2147609Y481386D01*
X2147794Y482312D01*
X2148350Y483793D01*
X2148905Y485645D01*
X2149831Y487496D01*
X2150757Y489348D01*
X2151868Y491015D01*
X2152979Y492311D01*
X2153164Y492496D01*
X2153534Y492866D01*
X2154275Y493237D01*
X2155201Y493792D01*
X2156312Y494348D01*
X2157608Y494903D01*
X2159089Y495088D01*
X2160756Y495273D01*
X2161496D01*
X2162422Y495088D01*
D02*
G37*
G36*
X1813755D02*
X1814680Y494903D01*
X1815977Y494533D01*
X1817273Y493977D01*
X1818754Y493237D01*
X1820050Y492311D01*
X1820235Y492126D01*
X1820606Y491755D01*
X1821161Y491015D01*
X1821902Y490089D01*
X1822828Y488607D01*
X1823568Y486941D01*
X1824494Y484719D01*
X1825235Y482127D01*
Y481941D01*
X1825420Y481756D01*
Y481016D01*
X1825605Y480275D01*
X1825790Y479164D01*
X1825976Y477868D01*
X1826161Y476386D01*
X1826346Y474535D01*
X1826716Y472313D01*
X1826901Y470091D01*
X1827087Y467313D01*
X1827272Y464536D01*
X1827457Y461203D01*
Y457870D01*
X1827642Y453981D01*
Y449908D01*
Y449722D01*
Y448982D01*
Y447686D01*
Y446204D01*
Y444353D01*
X1827457Y442316D01*
Y439909D01*
X1827272Y437502D01*
X1827087Y432317D01*
X1826716Y427132D01*
X1826531Y424725D01*
X1826161Y422503D01*
X1825790Y420466D01*
X1825420Y418615D01*
X1825235Y418244D01*
X1825050Y417318D01*
X1824494Y415837D01*
X1823939Y414171D01*
X1823013Y412319D01*
X1822087Y410467D01*
X1820976Y408801D01*
X1819865Y407505D01*
X1819680Y407319D01*
X1819310Y407134D01*
X1818569Y406579D01*
X1817643Y406208D01*
X1816532Y405653D01*
X1815236Y405097D01*
X1813755Y404912D01*
X1812088Y404727D01*
X1811347D01*
X1810422Y404912D01*
X1809496Y405097D01*
X1808200Y405468D01*
X1806903Y405838D01*
X1805607Y406579D01*
X1804311Y407505D01*
X1804126Y407690D01*
X1803756Y408060D01*
X1803015Y408801D01*
X1802274Y409912D01*
X1801534Y411208D01*
X1800608Y413060D01*
X1799682Y415096D01*
X1798941Y417689D01*
Y417874D01*
X1798756Y418059D01*
Y418800D01*
X1798571Y419540D01*
X1798386Y420651D01*
X1798201Y421948D01*
X1797830Y423429D01*
X1797645Y425281D01*
X1797460Y427317D01*
X1797090Y429725D01*
X1796904Y432317D01*
X1796719Y435280D01*
X1796534Y438427D01*
Y441946D01*
X1796349Y445834D01*
Y449908D01*
Y450093D01*
Y450833D01*
Y452130D01*
Y453611D01*
Y455463D01*
X1796534Y457499D01*
Y459907D01*
X1796719Y462314D01*
X1796904Y467498D01*
X1797275Y472498D01*
X1797645Y474905D01*
X1798015Y477312D01*
X1798386Y479349D01*
X1798756Y481016D01*
Y481201D01*
X1798941Y481386D01*
X1799126Y482312D01*
X1799682Y483793D01*
X1800237Y485645D01*
X1801163Y487496D01*
X1802089Y489348D01*
X1803200Y491015D01*
X1804311Y492311D01*
X1804496Y492496D01*
X1804867Y492866D01*
X1805607Y493237D01*
X1806533Y493792D01*
X1807644Y494348D01*
X1808940Y494903D01*
X1810422Y495088D01*
X1812088Y495273D01*
X1812829D01*
X1813755Y495088D01*
D02*
G37*
G36*
X1714876Y496014D02*
X1716542Y495644D01*
X1718394Y495088D01*
X1720246Y494348D01*
X1722097Y493422D01*
X1723764Y491940D01*
X1723949Y491755D01*
X1724319Y491200D01*
X1725060Y490274D01*
X1725801Y488978D01*
X1726541Y487311D01*
X1727282Y485460D01*
X1727652Y483238D01*
X1727838Y480645D01*
Y480275D01*
Y479349D01*
X1727652Y478053D01*
X1727282Y476386D01*
X1726912Y474535D01*
X1726171Y472683D01*
X1725060Y470831D01*
X1723764Y469165D01*
X1723579Y468980D01*
X1723023Y468609D01*
X1722097Y467869D01*
X1720801Y467128D01*
X1719135Y466387D01*
X1717283Y465647D01*
X1715061Y465276D01*
X1712654Y465091D01*
X1711543D01*
X1710247Y465276D01*
X1708580Y465647D01*
X1706729Y466017D01*
X1704877Y466758D01*
X1703025Y467869D01*
X1701359Y469165D01*
X1701174Y469350D01*
X1700618Y469906D01*
X1700063Y470831D01*
X1699137Y472313D01*
X1698396Y473979D01*
X1697841Y475831D01*
X1697285Y478238D01*
X1697100Y480830D01*
Y481201D01*
Y481941D01*
X1697285Y483238D01*
X1697655Y484719D01*
X1698211Y486571D01*
X1698952Y488422D01*
X1699877Y490274D01*
X1701359Y491940D01*
X1701544Y492126D01*
X1702099Y492681D01*
X1703025Y493237D01*
X1704321Y494162D01*
X1705988Y494903D01*
X1707840Y495458D01*
X1710062Y496014D01*
X1712469Y496199D01*
X1713580D01*
X1714876Y496014D01*
D02*
G37*
G36*
X1715431Y445279D02*
X1717283Y444908D01*
X1719505Y444168D01*
X1721727Y443057D01*
X1723949Y441390D01*
X1725801Y439353D01*
X1725986Y438983D01*
X1726541Y438242D01*
X1727097Y436946D01*
X1727838Y435280D01*
X1728763Y433243D01*
X1729319Y431021D01*
X1729874Y428428D01*
X1730060Y425836D01*
Y425651D01*
Y425466D01*
Y424910D01*
Y424170D01*
X1729689Y422318D01*
X1729319Y419911D01*
X1728763Y417318D01*
X1727838Y414726D01*
X1726541Y412134D01*
X1724875Y409727D01*
X1724690Y409541D01*
X1723949Y408801D01*
X1722838Y408060D01*
X1721357Y406949D01*
X1719505Y406023D01*
X1717283Y405097D01*
X1714691Y404357D01*
X1711913Y404172D01*
X1710617D01*
X1709321Y404542D01*
X1707469Y404912D01*
X1705432Y405468D01*
X1703396Y406394D01*
X1701359Y407690D01*
X1699322Y409541D01*
X1699137Y409727D01*
X1698581Y410652D01*
X1697655Y411763D01*
X1696730Y413615D01*
X1695804Y415837D01*
X1694878Y418615D01*
X1694322Y421762D01*
X1694137Y425466D01*
Y425651D01*
Y425836D01*
Y426947D01*
X1694322Y428614D01*
X1694693Y430650D01*
X1695433Y433058D01*
X1696359Y435465D01*
X1697655Y437872D01*
X1699322Y440094D01*
X1699507Y440279D01*
X1700248Y441020D01*
X1701359Y441946D01*
X1702840Y442871D01*
X1704692Y443982D01*
X1706914Y444723D01*
X1709506Y445464D01*
X1712284Y445649D01*
X1713765D01*
X1715431Y445279D01*
D02*
G37*
%LPC*%
G36*
X2893102Y1074140D02*
X2855171D01*
Y1036208D01*
X2893102D01*
Y1074140D01*
D02*
G37*
G36*
X2855171Y1036208D02*
X2817240D01*
Y998277D01*
X2855171D01*
Y1036208D01*
D02*
G37*
G36*
X3500000Y1150002D02*
X3234482D01*
Y1112071D01*
Y1074140D01*
Y1036208D01*
Y998277D01*
Y960346D01*
Y922415D01*
Y884484D01*
X3500000D01*
Y922415D01*
Y960346D01*
Y998277D01*
Y1036208D01*
Y1074140D01*
Y1112071D01*
Y1150002D01*
D02*
G37*
G36*
X2893102D02*
X2855171D01*
Y1112071D01*
X2893102D01*
Y1074140D01*
X2931034D01*
Y1036208D01*
Y998277D01*
X2968965D01*
Y960346D01*
X2893102D01*
Y922415D01*
X2931034D01*
Y884484D01*
X2893102D01*
Y922415D01*
X2855171D01*
Y960346D01*
X2817240D01*
Y998277D01*
X2779309D01*
Y1036208D01*
Y1074140D01*
X2741378D01*
Y1112071D01*
X2779309D01*
Y1150002D01*
X2703447D01*
Y1112071D01*
Y1074140D01*
X2741378D01*
Y1036208D01*
Y998277D01*
X2703447D01*
Y960346D01*
X2817240D01*
Y922415D01*
X2855171D01*
Y884484D01*
Y846553D01*
X2931034D01*
Y808622D01*
X2968965D01*
Y770691D01*
X3044827D01*
Y732760D01*
Y694829D01*
X3082758D01*
Y732760D01*
X3158620D01*
Y694829D01*
X3196551D01*
Y732760D01*
X3158620D01*
Y770691D01*
Y808622D01*
X3120689D01*
Y770691D01*
X3044827D01*
Y808622D01*
X3006896D01*
Y846553D01*
X2968965D01*
Y884484D01*
Y922415D01*
X3006896D01*
Y884484D01*
X3044827D01*
Y846553D01*
X3082758D01*
Y884484D01*
X3044827D01*
Y922415D01*
X3006896D01*
Y960346D01*
X3044827D01*
Y998277D01*
X3082758D01*
Y960346D01*
Y922415D01*
Y884484D01*
X3120689D01*
Y922415D01*
Y960346D01*
Y998277D01*
X3082758D01*
Y1036208D01*
Y1074140D01*
X3044827D01*
Y1112071D01*
X2968965D01*
Y1074140D01*
X3044827D01*
Y1036208D01*
X2968965D01*
Y1074140D01*
X2931034D01*
Y1112071D01*
X2893102D01*
Y1150002D01*
D02*
G37*
G36*
X2817240Y922415D02*
X2779309D01*
Y884484D01*
X2817240D01*
Y922415D01*
D02*
G37*
G36*
X2741378D02*
X2703447D01*
Y884484D01*
X2741378D01*
Y922415D01*
D02*
G37*
G36*
X2665516Y1150002D02*
X2399998D01*
Y1112071D01*
Y1074140D01*
Y1036208D01*
Y998277D01*
Y960346D01*
Y922415D01*
Y884484D01*
X2665516D01*
Y922415D01*
Y960346D01*
Y998277D01*
Y1036208D01*
Y1074140D01*
Y1112071D01*
Y1150002D01*
D02*
G37*
G36*
X3158620D02*
X3082758D01*
Y1112071D01*
Y1074140D01*
X3158620D01*
Y1036208D01*
Y998277D01*
Y960346D01*
Y922415D01*
Y884484D01*
Y846553D01*
X3196551D01*
Y884484D01*
Y922415D01*
Y960346D01*
Y998277D01*
Y1036208D01*
Y1074140D01*
X3158620D01*
Y1112071D01*
Y1150002D01*
D02*
G37*
G36*
X3500000Y846553D02*
X3462069D01*
Y808622D01*
X3500000D01*
Y846553D01*
D02*
G37*
G36*
X3272413Y770691D02*
X3196551D01*
Y732760D01*
X3272413D01*
Y770691D01*
D02*
G37*
G36*
X2855171Y846553D02*
X2817240D01*
Y808622D01*
X2741378D01*
Y770691D01*
X2855171D01*
Y732760D01*
X2893102D01*
Y694829D01*
X2968965D01*
Y732760D01*
Y770691D01*
X2893102D01*
Y808622D01*
X2855171D01*
Y846553D01*
D02*
G37*
G36*
X2551723Y732760D02*
X2513792D01*
Y694829D01*
X2551723D01*
Y732760D01*
D02*
G37*
G36*
X2437929D02*
X2399998D01*
Y694829D01*
X2437929D01*
Y732760D01*
D02*
G37*
G36*
X3044827Y694829D02*
X3006896D01*
Y656898D01*
X3044827D01*
Y694829D01*
D02*
G37*
G36*
X3424138Y846553D02*
X3234482D01*
Y808622D01*
X3272413D01*
Y770691D01*
X3310344D01*
Y808622D01*
X3348275D01*
Y770691D01*
Y732760D01*
X3386207D01*
Y694829D01*
X3234482D01*
Y656898D01*
X3424138D01*
Y618967D01*
X3500000D01*
Y656898D01*
Y694829D01*
X3462069D01*
Y656898D01*
X3424138D01*
Y694829D01*
Y732760D01*
X3462069D01*
Y770691D01*
Y808622D01*
X3424138D01*
Y846553D01*
D02*
G37*
G36*
X3234482Y656898D02*
X3196551D01*
Y618967D01*
X3158620D01*
Y656898D01*
X3120689D01*
Y618967D01*
X3158620D01*
Y581035D01*
X3196551D01*
Y543104D01*
X3234482D01*
Y505173D01*
X3272413D01*
Y467242D01*
X3310344D01*
Y505173D01*
Y543104D01*
X3386207D01*
Y505173D01*
X3424138D01*
Y543104D01*
X3386207D01*
Y581035D01*
Y618967D01*
X3348275D01*
Y581035D01*
X3310344D01*
Y618967D01*
X3234482D01*
Y656898D01*
D02*
G37*
G36*
X2513792Y694829D02*
X2475860D01*
Y656898D01*
X2399998D01*
Y618967D01*
X2513792D01*
Y581035D01*
Y543104D01*
X2551723D01*
Y581035D01*
Y618967D01*
X2513792D01*
Y656898D01*
Y694829D01*
D02*
G37*
G36*
Y543104D02*
X2475860D01*
Y505173D01*
X2513792D01*
Y543104D01*
D02*
G37*
G36*
X2855171D02*
X2817240D01*
Y505173D01*
X2855171D01*
Y467242D01*
X2817240D01*
Y505173D01*
X2779309D01*
Y543104D01*
X2741378D01*
Y505173D01*
X2703447D01*
Y467242D01*
X2779309D01*
Y429311D01*
X2855171D01*
Y391380D01*
X2968965D01*
Y429311D01*
X2931034D01*
Y467242D01*
X2893102D01*
Y505173D01*
X2855171D01*
Y543104D01*
D02*
G37*
G36*
X2437929Y505173D02*
X2399998D01*
Y467242D01*
X2437929D01*
Y505173D01*
D02*
G37*
G36*
X3424138Y467242D02*
X3386207D01*
Y429311D01*
X3424138D01*
Y467242D01*
D02*
G37*
G36*
X2779309Y429311D02*
X2741378D01*
Y391380D01*
X2779309D01*
Y429311D01*
D02*
G37*
G36*
X2627585Y505173D02*
X2551723D01*
Y467242D01*
X2475860D01*
Y429311D01*
X2513792D01*
Y391380D01*
X2437929D01*
Y429311D01*
X2399998D01*
Y391380D01*
Y353449D01*
X2437929D01*
Y315518D01*
X2475860D01*
Y277587D01*
X2551723D01*
Y239656D01*
Y201725D01*
X2741378D01*
Y239656D01*
X2779309D01*
Y277587D01*
X2855171D01*
Y239656D01*
X2893102D01*
Y201725D01*
X2968965D01*
Y239656D01*
X2893102D01*
Y277587D01*
X2968965D01*
Y239656D01*
X3006896D01*
Y201725D01*
Y163793D01*
X2968965D01*
Y125862D01*
X3044827D01*
Y163793D01*
X3082758D01*
Y201725D01*
Y239656D01*
X3044827D01*
Y277587D01*
X3006896D01*
Y315518D01*
Y353449D01*
X2931034D01*
Y315518D01*
X2893102D01*
Y353449D01*
X2855171D01*
Y391380D01*
X2817240D01*
Y353449D01*
X2855171D01*
Y315518D01*
X2779309D01*
Y353449D01*
X2741378D01*
Y391380D01*
X2703447D01*
Y429311D01*
Y467242D01*
X2665516D01*
Y429311D01*
Y391380D01*
X2589654D01*
Y429311D01*
X2627585D01*
Y467242D01*
Y505173D01*
D02*
G37*
G36*
X3500000Y543104D02*
X3462069D01*
Y505173D01*
Y467242D01*
Y429311D01*
Y391380D01*
Y353449D01*
X3500000D01*
Y391380D01*
Y429311D01*
Y467242D01*
Y505173D01*
Y543104D01*
D02*
G37*
G36*
X2665516Y846553D02*
X2475860D01*
Y808622D01*
X2399998D01*
Y770691D01*
X2589654D01*
Y732760D01*
Y694829D01*
X2665516D01*
Y656898D01*
X2551723D01*
Y618967D01*
X2665516D01*
Y581035D01*
Y543104D01*
X2703447D01*
Y581035D01*
X2741378D01*
Y618967D01*
X2779309D01*
Y581035D01*
X2817240D01*
Y618967D01*
X2855171D01*
Y581035D01*
X2893102D01*
Y543104D01*
Y505173D01*
X2968965D01*
Y543104D01*
X2931034D01*
Y581035D01*
X2968965D01*
Y543104D01*
X3006896D01*
Y505173D01*
Y467242D01*
X3044827D01*
Y505173D01*
Y543104D01*
X3006896D01*
Y581035D01*
X3044827D01*
Y543104D01*
X3082758D01*
Y505173D01*
X3120689D01*
Y467242D01*
Y429311D01*
X3082758D01*
Y391380D01*
X3006896D01*
Y353449D01*
X3044827D01*
Y315518D01*
X3120689D01*
Y277587D01*
X3082758D01*
Y239656D01*
X3158620D01*
Y201725D01*
X3120689D01*
Y163793D01*
Y125862D01*
X3196551D01*
Y163793D01*
Y201725D01*
Y239656D01*
Y277587D01*
X3158620D01*
Y315518D01*
X3196551D01*
Y353449D01*
X3120689D01*
Y391380D01*
X3158620D01*
Y429311D01*
X3196551D01*
Y391380D01*
X3234482D01*
Y353449D01*
X3310344D01*
Y391380D01*
X3386207D01*
Y429311D01*
X3272413D01*
Y467242D01*
X3234482D01*
Y505173D01*
X3120689D01*
Y543104D01*
Y581035D01*
Y618967D01*
X3006896D01*
Y656898D01*
X2968965D01*
Y618967D01*
X2893102D01*
Y656898D01*
X2855171D01*
Y694829D01*
X2817240D01*
Y732760D01*
X2741378D01*
Y770691D01*
X2665516D01*
Y808622D01*
Y846553D01*
D02*
G37*
G36*
X2437929Y277587D02*
X2399998D01*
Y239656D01*
X2437929D01*
Y277587D01*
D02*
G37*
G36*
X2513792Y239656D02*
X2475860D01*
Y201725D01*
X2513792D01*
Y239656D01*
D02*
G37*
G36*
X2779309Y163793D02*
X2741378D01*
Y125862D01*
X2703447D01*
Y163793D01*
X2551723D01*
Y125862D01*
X2513792D01*
Y87931D01*
X2589654D01*
Y50000D01*
X2627585D01*
Y87931D01*
X2589654D01*
Y125862D01*
X2665516D01*
Y87931D01*
X2741378D01*
Y50000D01*
X2779309D01*
Y87931D01*
X2817240D01*
Y125862D01*
X2779309D01*
Y163793D01*
D02*
G37*
G36*
X2475860Y201725D02*
X2399998D01*
Y163793D01*
X2437929D01*
Y125862D01*
Y87931D01*
X2475860D01*
Y125862D01*
Y163793D01*
Y201725D01*
D02*
G37*
G36*
X3500000Y315518D02*
X3234482D01*
Y277587D01*
Y239656D01*
Y201725D01*
Y163793D01*
Y125862D01*
Y87931D01*
Y50000D01*
X3500000D01*
Y87931D01*
Y125862D01*
Y163793D01*
Y201725D01*
Y239656D01*
Y277587D01*
Y315518D01*
D02*
G37*
G36*
X3196551Y87931D02*
X3158620D01*
Y50000D01*
X3196551D01*
Y87931D01*
D02*
G37*
G36*
X3120689Y125862D02*
X3082758D01*
Y87931D01*
X3044827D01*
Y50000D01*
X3120689D01*
Y87931D01*
Y125862D01*
D02*
G37*
G36*
X2855171Y239656D02*
X2817240D01*
Y201725D01*
X2779309D01*
Y163793D01*
X2893102D01*
Y125862D01*
Y87931D01*
Y50000D01*
X2968965D01*
Y87931D01*
X2931034D01*
Y125862D01*
Y163793D01*
X2893102D01*
Y201725D01*
X2855171D01*
Y239656D01*
D02*
G37*
%LPD*%
G36*
X3462069Y1074140D02*
Y1036208D01*
Y998277D01*
Y960346D01*
Y922415D01*
X3272413D01*
Y960346D01*
Y998277D01*
Y1036208D01*
Y1074140D01*
Y1112071D01*
X3462069D01*
Y1074140D01*
D02*
G37*
%LPC*%
G36*
X3424138D02*
X3310344D01*
Y1036208D01*
Y998277D01*
Y960346D01*
X3424138D01*
Y998277D01*
Y1036208D01*
Y1074140D01*
D02*
G37*
%LPD*%
G36*
X2627585D02*
Y1036208D01*
Y998277D01*
Y960346D01*
Y922415D01*
X2437929D01*
Y960346D01*
Y998277D01*
Y1036208D01*
Y1074140D01*
Y1112071D01*
X2627585D01*
Y1074140D01*
D02*
G37*
%LPC*%
G36*
X2589654D02*
X2475860D01*
Y1036208D01*
Y998277D01*
Y960346D01*
X2589654D01*
Y998277D01*
Y1036208D01*
Y1074140D01*
D02*
G37*
%LPD*%
G36*
X3424138Y770691D02*
X3386207D01*
Y808622D01*
X3424138D01*
Y770691D01*
D02*
G37*
G36*
X3272413Y543104D02*
X3234482D01*
Y581035D01*
X3272413D01*
Y543104D01*
D02*
G37*
G36*
X2551723Y315518D02*
X2475860D01*
Y353449D01*
X2551723D01*
Y315518D01*
D02*
G37*
G36*
X2703447D02*
Y277587D01*
Y239656D01*
X2589654D01*
Y277587D01*
Y315518D01*
Y353449D01*
X2703447D01*
Y315518D01*
D02*
G37*
%LPC*%
G36*
X2665516D02*
X2627585D01*
Y277587D01*
X2665516D01*
Y315518D01*
D02*
G37*
%LPD*%
G36*
X2817240Y656898D02*
X2779309D01*
Y694829D01*
X2817240D01*
Y656898D01*
D02*
G37*
G36*
X2665516Y732760D02*
X2741378D01*
Y694829D01*
Y656898D01*
X2703447D01*
Y694829D01*
X2665516D01*
Y732760D01*
X2627585D01*
Y770691D01*
X2665516D01*
Y732760D01*
D02*
G37*
G36*
X3272413Y391380D02*
X3234482D01*
Y429311D01*
X3272413D01*
Y391380D01*
D02*
G37*
G36*
X3462069Y239656D02*
Y201725D01*
Y163793D01*
Y125862D01*
Y87931D01*
X3272413D01*
Y125862D01*
Y163793D01*
Y201725D01*
Y239656D01*
Y277587D01*
X3462069D01*
Y239656D01*
D02*
G37*
%LPC*%
G36*
X3424138D02*
X3310344D01*
Y201725D01*
Y163793D01*
Y125862D01*
X3424138D01*
Y163793D01*
Y201725D01*
Y239656D01*
D02*
G37*
%LPD*%
%TF.MD5,57cdb03ab80f07887eb77c4266d8ce1c*%
M02*
