%TF.GenerationSoftware,Altium Limited,Altium Designer,25.8.1 (18)*%
G04 Layer_Physical_Order=1*
G04 Layer_Color=255*
%FSLAX45Y45*%
%MOMM*%
%TF.SameCoordinates,C83170FB-7693-46FD-9F59-C890998B4B8C*%
%TF.FilePolarity,Positive*%
%TF.FileFunction,Copper,L1,Top,Signal*%
%TF.Part,Single*%
G01*
G75*
%TA.AperFunction,SMDPad,CuDef*%
G04:AMPARAMS|DCode=10|XSize=2.16916mm|YSize=0.58213mm|CornerRadius=0.29107mm|HoleSize=0mm|Usage=FLASHONLY|Rotation=180.000|XOffset=0mm|YOffset=0mm|HoleType=Round|Shape=RoundedRectangle|*
%AMROUNDEDRECTD10*
21,1,2.16916,0.00000,0,0,180.0*
21,1,1.58703,0.58213,0,0,180.0*
1,1,0.58213,-0.79351,0.00000*
1,1,0.58213,0.79351,0.00000*
1,1,0.58213,0.79351,0.00000*
1,1,0.58213,-0.79351,0.00000*
%
%ADD10ROUNDEDRECTD10*%
%ADD11R,2.16916X0.58213*%
G04:AMPARAMS|DCode=12|XSize=2.65mm|YSize=1.75mm|CornerRadius=0.21875mm|HoleSize=0mm|Usage=FLASHONLY|Rotation=270.000|XOffset=0mm|YOffset=0mm|HoleType=Round|Shape=RoundedRectangle|*
%AMROUNDEDRECTD12*
21,1,2.65000,1.31250,0,0,270.0*
21,1,2.21250,1.75000,0,0,270.0*
1,1,0.43750,-0.65625,-1.10625*
1,1,0.43750,-0.65625,1.10625*
1,1,0.43750,0.65625,1.10625*
1,1,0.43750,0.65625,-1.10625*
%
%ADD12ROUNDEDRECTD12*%
G04:AMPARAMS|DCode=13|XSize=0.76mm|YSize=0.6604mm|CornerRadius=0.08255mm|HoleSize=0mm|Usage=FLASHONLY|Rotation=270.000|XOffset=0mm|YOffset=0mm|HoleType=Round|Shape=RoundedRectangle|*
%AMROUNDEDRECTD13*
21,1,0.76000,0.49530,0,0,270.0*
21,1,0.59490,0.66040,0,0,270.0*
1,1,0.16510,-0.24765,-0.29745*
1,1,0.16510,-0.24765,0.29745*
1,1,0.16510,0.24765,0.29745*
1,1,0.16510,0.24765,-0.29745*
%
%ADD13ROUNDEDRECTD13*%
G04:AMPARAMS|DCode=14|XSize=2.5mm|YSize=5mm|CornerRadius=0.625mm|HoleSize=0mm|Usage=FLASHONLY|Rotation=90.000|XOffset=0mm|YOffset=0mm|HoleType=Round|Shape=RoundedRectangle|*
%AMROUNDEDRECTD14*
21,1,2.50000,3.75000,0,0,90.0*
21,1,1.25000,5.00000,0,0,90.0*
1,1,1.25000,1.87500,0.62500*
1,1,1.25000,1.87500,-0.62500*
1,1,1.25000,-1.87500,-0.62500*
1,1,1.25000,-1.87500,0.62500*
%
%ADD14ROUNDEDRECTD14*%
G04:AMPARAMS|DCode=15|XSize=1.9mm|YSize=3.2mm|CornerRadius=0mm|HoleSize=0mm|Usage=FLASHONLY|Rotation=180.000|XOffset=0mm|YOffset=0mm|HoleType=Round|Shape=Octagon|*
%AMOCTAGOND15*
4,1,8,0.47500,-1.60000,-0.47500,-1.60000,-0.95000,-1.12500,-0.95000,1.12500,-0.47500,1.60000,0.47500,1.60000,0.95000,1.12500,0.95000,-1.12500,0.47500,-1.60000,0.0*
%
%ADD15OCTAGOND15*%

%ADD16R,0.60000X1.80000*%
G04:AMPARAMS|DCode=17|XSize=3mm|YSize=5mm|CornerRadius=0.75mm|HoleSize=0mm|Usage=FLASHONLY|Rotation=90.000|XOffset=0mm|YOffset=0mm|HoleType=Round|Shape=RoundedRectangle|*
%AMROUNDEDRECTD17*
21,1,3.00000,3.50000,0,0,90.0*
21,1,1.50000,5.00000,0,0,90.0*
1,1,1.50000,1.75000,0.75000*
1,1,1.50000,1.75000,-0.75000*
1,1,1.50000,-1.75000,-0.75000*
1,1,1.50000,-1.75000,0.75000*
%
%ADD17ROUNDEDRECTD17*%
%ADD18R,0.70000X1.20000*%
G04:AMPARAMS|DCode=19|XSize=0.8mm|YSize=0.8mm|CornerRadius=0.1mm|HoleSize=0mm|Usage=FLASHONLY|Rotation=90.000|XOffset=0mm|YOffset=0mm|HoleType=Round|Shape=RoundedRectangle|*
%AMROUNDEDRECTD19*
21,1,0.80000,0.60000,0,0,90.0*
21,1,0.60000,0.80000,0,0,90.0*
1,1,0.20000,0.30000,0.30000*
1,1,0.20000,0.30000,-0.30000*
1,1,0.20000,-0.30000,-0.30000*
1,1,0.20000,-0.30000,0.30000*
%
%ADD19ROUNDEDRECTD19*%
G04:AMPARAMS|DCode=20|XSize=0.76mm|YSize=0.6604mm|CornerRadius=0.08255mm|HoleSize=0mm|Usage=FLASHONLY|Rotation=0.000|XOffset=0mm|YOffset=0mm|HoleType=Round|Shape=RoundedRectangle|*
%AMROUNDEDRECTD20*
21,1,0.76000,0.49530,0,0,0.0*
21,1,0.59490,0.66040,0,0,0.0*
1,1,0.16510,0.29745,-0.24765*
1,1,0.16510,-0.29745,-0.24765*
1,1,0.16510,-0.29745,0.24765*
1,1,0.16510,0.29745,0.24765*
%
%ADD20ROUNDEDRECTD20*%
%ADD21R,0.60000X1.40000*%
%ADD22R,1.65000X1.10000*%
G04:AMPARAMS|DCode=23|XSize=0.8mm|YSize=1mm|CornerRadius=0.1mm|HoleSize=0mm|Usage=FLASHONLY|Rotation=270.000|XOffset=0mm|YOffset=0mm|HoleType=Round|Shape=RoundedRectangle|*
%AMROUNDEDRECTD23*
21,1,0.80000,0.80000,0,0,270.0*
21,1,0.60000,1.00000,0,0,270.0*
1,1,0.20000,-0.40000,-0.30000*
1,1,0.20000,-0.40000,0.30000*
1,1,0.20000,0.40000,0.30000*
1,1,0.20000,0.40000,-0.30000*
%
%ADD23ROUNDEDRECTD23*%
%TA.AperFunction,Conductor*%
%ADD24C,0.40000*%
%ADD25C,0.30000*%
%ADD26C,0.50000*%
%ADD27C,0.20000*%
%TA.AperFunction,ViaPad*%
%ADD28C,0.70000*%
%ADD29C,0.65000*%
G36*
X4105577Y1164555D02*
X4114555Y1155577D01*
X4119414Y1143848D01*
Y1137500D01*
Y869414D01*
X4100000Y850000D01*
X3462500D01*
X3400000Y912500D01*
X2597500D01*
X2592500Y917500D01*
X2482500D01*
X2477500Y912500D01*
X2416933D01*
X2416671Y913818D01*
X2411531Y921511D01*
X2403839Y926650D01*
X2394765Y928455D01*
X2345235D01*
X2336161Y926650D01*
X2328469Y921511D01*
X2323329Y913818D01*
X2323067Y912500D01*
X2278736D01*
X2273980Y923981D01*
X2261481Y936480D01*
X2250000Y941236D01*
X2200000D01*
X2188519Y936480D01*
X2164539Y912500D01*
X50000D01*
X30586Y931914D01*
Y1137500D01*
Y1143848D01*
X35445Y1155577D01*
X44423Y1164555D01*
X56152Y1169413D01*
X4093848D01*
X4105577Y1164555D01*
D02*
G37*
G36*
X3325000Y800000D02*
X3325000Y575000D01*
X3300000Y550000D01*
X2812500D01*
X2787500Y525000D01*
Y437500D01*
X2737500Y387500D01*
X2662500D01*
X2637500Y412500D01*
Y550000D01*
X2862500Y775000D01*
Y812500D01*
X2887500Y837500D01*
X3287500D01*
X3325000Y800000D01*
D02*
G37*
G36*
X2262500Y912500D02*
Y700000D01*
X2412500Y550000D01*
Y387500D01*
X2293750D01*
X2281250Y400000D01*
Y550000D01*
X2262500Y568750D01*
X2200000D01*
X2175000Y593750D01*
Y900000D01*
X2200000Y925000D01*
X2250000D01*
X2262500Y912500D01*
D02*
G37*
G36*
X2397504Y911356D02*
X2399826Y909805D01*
X2403171Y904798D01*
X2404161Y904137D01*
X2405452Y901020D01*
X2406988Y900383D01*
X2407912Y899001D01*
X2412557Y898077D01*
X2416933Y896264D01*
X2477500D01*
X2488981Y901020D01*
X2489225Y901264D01*
X2585775D01*
X2586019Y901020D01*
X2597500Y896264D01*
X2859516D01*
X2872269Y859726D01*
X2873303Y846264D01*
X2851019Y823981D01*
X2846264Y812500D01*
Y781725D01*
X2626019Y561481D01*
X2621264Y550000D01*
Y412500D01*
X2626019Y401020D01*
X2651019Y376020D01*
X2662500Y371264D01*
X2737500D01*
X2748981Y376020D01*
X2798980Y426019D01*
X2803736Y437500D01*
Y518275D01*
X2819225Y533764D01*
X3300000D01*
X3311481Y538520D01*
X3323108Y550147D01*
X3338502Y559416D01*
X3357281Y565509D01*
X3375403Y568010D01*
X3384198Y569024D01*
X3387430Y569024D01*
X3442245D01*
X3451318Y570829D01*
X3459011Y575969D01*
X3464150Y583661D01*
X3465811Y592010D01*
X3604224D01*
Y525000D01*
X3607317Y501505D01*
X3616386Y479612D01*
X3630812Y460811D01*
X3649613Y446385D01*
X3671506Y437317D01*
X3695001Y434223D01*
X4045001D01*
X4068496Y437317D01*
X4069414Y437697D01*
X4114890Y412580D01*
X4119414Y406339D01*
Y56152D01*
X4114555Y44423D01*
X4105578Y35445D01*
X4093848Y30586D01*
X56152D01*
X44422Y35445D01*
X35445Y44422D01*
X30586Y56152D01*
Y277305D01*
X60327Y302056D01*
X80587Y310900D01*
X92500Y309331D01*
X467500D01*
X487732Y311995D01*
X506584Y319804D01*
X522774Y332226D01*
X535196Y348416D01*
X543005Y367269D01*
X545669Y387500D01*
Y429283D01*
X572501Y466912D01*
X584206Y469241D01*
X594129Y475871D01*
X773258Y655000D01*
X786742D01*
X900871Y540872D01*
X900871Y540871D01*
X910795Y534241D01*
X922500Y531912D01*
X922502Y531912D01*
X1167330D01*
X1177500Y521742D01*
Y425000D01*
X1180940D01*
X1188460Y420799D01*
X1221524Y392245D01*
Y332755D01*
X1223329Y323682D01*
X1228469Y315989D01*
X1236161Y310850D01*
X1245235Y309045D01*
X1294765D01*
X1303839Y310850D01*
X1311531Y315989D01*
X1316671Y323682D01*
X1318476Y332755D01*
Y392245D01*
X1331432Y403434D01*
X1372500Y425000D01*
X1422500Y435183D01*
X1429580Y430453D01*
X1446789Y427029D01*
X1489216D01*
Y372010D01*
X1488469Y371511D01*
X1483329Y363818D01*
X1481524Y354745D01*
Y295255D01*
X1483329Y286181D01*
X1488469Y278489D01*
X1496161Y273349D01*
X1505235Y271544D01*
X1554765D01*
X1563839Y273349D01*
X1571531Y278489D01*
X1576671Y286181D01*
X1578476Y295255D01*
Y354745D01*
X1576671Y363818D01*
X1571531Y371511D01*
X1570783Y372010D01*
Y427029D01*
X1605491D01*
X1622701Y430453D01*
X1637290Y440201D01*
X1646234Y453586D01*
X1675419Y482771D01*
X1679168D01*
X1697545Y490383D01*
X1711610Y504449D01*
X1719222Y522826D01*
Y542717D01*
X1711610Y561094D01*
X1697545Y575159D01*
X1679168Y582772D01*
X1679168D01*
X1654087Y596951D01*
X1647039Y616210D01*
X1637291Y630799D01*
Y630799D01*
X1637264Y630817D01*
X1630860Y635096D01*
X1626385Y662169D01*
Y662831D01*
X1630860Y689904D01*
X1637290Y694201D01*
X1647039Y708791D01*
X1650462Y726000D01*
X1647039Y743210D01*
X1637290Y757799D01*
X1622701Y767548D01*
X1605491Y770971D01*
X1446789D01*
X1429580Y767548D01*
X1418050Y759844D01*
X1400871Y766448D01*
X1373981Y782919D01*
X1373249Y800310D01*
X1372500Y849999D01*
X1381518Y896264D01*
X1836045D01*
X1843565Y891590D01*
X1874538Y853000D01*
X1877961Y835791D01*
X1887710Y821201D01*
X1894140Y816904D01*
X1898616Y789831D01*
Y789169D01*
X1894140Y762096D01*
X1887710Y757799D01*
X1877961Y743210D01*
X1874538Y726000D01*
X1877961Y708791D01*
X1887710Y694201D01*
X1894140Y689904D01*
X1898616Y662831D01*
Y662169D01*
X1894140Y635096D01*
X1887736Y630816D01*
X1887710Y630799D01*
Y630799D01*
X1877961Y616210D01*
X1874538Y599000D01*
X1877961Y581791D01*
X1877961Y581791D01*
X1877979Y581764D01*
X1887710Y567201D01*
X1889348Y566107D01*
X1875402Y516107D01*
X1843873Y484522D01*
X1823982D01*
X1805605Y476910D01*
X1791539Y462844D01*
X1783928Y444467D01*
Y424576D01*
X1791539Y406199D01*
X1805605Y392134D01*
X1823982Y384522D01*
X1830348D01*
X1833898Y382812D01*
X1855353Y366807D01*
X1871525Y341856D01*
Y295255D01*
X1873330Y286181D01*
X1878469Y278489D01*
X1886162Y273349D01*
X1895235Y271544D01*
X1944765D01*
X1953839Y273349D01*
X1961531Y278489D01*
X1966671Y286181D01*
X1968476Y295255D01*
Y330218D01*
X2013920Y375662D01*
X2113099D01*
X2113101Y375662D01*
X2119511Y376937D01*
X2128218Y376817D01*
X2131201Y376415D01*
X2158718Y369633D01*
X2176976Y358226D01*
X2185246Y352701D01*
X2195000Y350761D01*
X2255000D01*
X2264754Y352701D01*
X2273024Y358226D01*
X2278549Y366496D01*
X2293750Y371264D01*
X2412500D01*
X2423980Y376020D01*
X2428736Y387500D01*
X2432500D01*
Y557500D01*
X2425629D01*
X2423980Y561480D01*
X2374943Y610518D01*
Y613603D01*
X2367331Y631980D01*
X2353266Y646046D01*
X2334889Y653658D01*
X2331803D01*
X2278736Y706725D01*
Y896264D01*
X2323067D01*
X2327443Y898077D01*
X2332088Y899001D01*
X2333012Y900383D01*
X2334548Y901020D01*
X2335839Y904137D01*
X2336829Y904798D01*
X2340175Y909805D01*
X2342496Y911356D01*
X2346835Y912219D01*
X2393165D01*
X2397504Y911356D01*
D02*
G37*
D10*
X1526140Y472000D02*
D03*
Y599000D02*
D03*
Y726000D02*
D03*
Y853000D02*
D03*
X1998860D02*
D03*
Y726000D02*
D03*
Y599000D02*
D03*
D11*
Y472000D02*
D03*
D12*
X3187500Y260000D02*
D03*
Y690000D02*
D03*
D13*
X1780000Y325000D02*
D03*
X1920000D02*
D03*
X1130000Y362500D02*
D03*
X1670000Y325000D02*
D03*
X2370000Y875000D02*
D03*
X2230000D02*
D03*
X1530000Y325000D02*
D03*
X1270000Y362500D02*
D03*
D14*
X280000Y155000D02*
D03*
Y750000D02*
D03*
Y450000D02*
D03*
Y1045000D02*
D03*
D15*
X2537500Y742500D02*
D03*
D16*
Y492500D02*
D03*
D17*
X3870001Y180000D02*
D03*
Y1020000D02*
D03*
Y600000D02*
D03*
D18*
X875000Y470000D02*
D03*
X780000Y730000D02*
D03*
X970000D02*
D03*
D19*
X2225000Y256250D02*
D03*
Y406250D02*
D03*
D20*
X1112500Y492500D02*
D03*
X2850000Y455000D02*
D03*
X2975000D02*
D03*
X2225000Y517500D02*
D03*
Y657500D02*
D03*
X2850000Y595000D02*
D03*
X2975000D02*
D03*
X1112500Y632500D02*
D03*
X3412500Y617500D02*
D03*
Y757500D02*
D03*
D21*
X2387500Y472500D02*
D03*
X2687500D02*
D03*
D22*
X1275000Y495000D02*
D03*
Y780000D02*
D03*
D23*
X2925000Y1087000D02*
D03*
Y763000D02*
D03*
D24*
X2278083Y609398D02*
X2319203D01*
X2324943Y603658D01*
X2229981Y657500D02*
X2278083Y609398D01*
X2225000Y657500D02*
X2229981D01*
D25*
X1868124Y457893D02*
X1984753D01*
X1998860Y472000D01*
X1833927Y434522D02*
X1844752D01*
X1868124Y457893D01*
X3412500Y757500D02*
X3425154Y744846D01*
X3469669D02*
X3514515Y700000D01*
X3525000D01*
X3425154Y744846D02*
X3469669D01*
X780000Y705000D02*
X922500Y562500D01*
X1180000D01*
X2221250Y410000D02*
X2225000Y413750D01*
Y517500D01*
X2225000Y517500D01*
X1920000Y325000D02*
X2001250Y406250D01*
X2113101D02*
X2137500Y430649D01*
X2001250Y406250D02*
X2113101D01*
X2099953Y584893D02*
X2102607D01*
X2137500Y550000D01*
X1998860Y599000D02*
X2085846D01*
X2137500Y430649D02*
Y550000D01*
X2085846Y599000D02*
X2099953Y584893D01*
X1998860Y599000D02*
Y726000D01*
Y853000D01*
X2211980Y898000D02*
X2230000Y879980D01*
Y875000D02*
Y879980D01*
X2207000Y898000D02*
X2211980D01*
X1520742Y593602D02*
X1526140Y599000D01*
X1418602Y593602D02*
X1520742D01*
X1360000Y535000D02*
X1418602Y593602D01*
X1180000Y562500D02*
X1247500Y495000D01*
X1315000Y535000D02*
X1360000D01*
X1275000Y495000D02*
X1315000Y535000D01*
X1270000Y490000D02*
X1275000Y495000D01*
X1247500D02*
X1275000D01*
X1270000Y362500D02*
Y490000D01*
X780000Y705000D02*
Y730000D01*
X572500Y497500D02*
X780000Y705000D01*
X322500Y497500D02*
X572500D01*
X280000Y450000D02*
X327500Y497500D01*
X1315000Y740000D02*
X1374500D01*
X1388500Y726000D02*
X1526140D01*
X1374500Y740000D02*
X1388500Y726000D01*
X1247500Y780000D02*
X1275000D01*
X1207500Y740000D02*
X1247500Y780000D01*
X1275000D02*
X1315000Y740000D01*
X1207500Y722520D02*
Y740000D01*
X1117480Y632500D02*
X1207500Y722520D01*
X1094480Y650520D02*
X1112500Y632500D01*
X1049480Y650520D02*
X1094480D01*
X1112500Y632500D02*
X1117480D01*
X834466Y830534D02*
X890000Y775000D01*
X355534Y830534D02*
X834466D01*
X950000Y775000D02*
X970000Y755000D01*
X890000Y775000D02*
X950000D01*
X280000Y750000D02*
X360534Y830534D01*
X970000Y705000D02*
X990000Y685000D01*
X1015000D02*
X1049480Y650520D01*
X990000Y685000D02*
X1015000D01*
X970000Y730000D02*
Y755000D01*
Y705000D02*
Y730000D01*
D26*
X1526140Y472000D02*
X1526206D01*
X1532579Y468206D02*
X1603177D01*
X1667743Y532771D02*
X1669222D01*
X1603177Y468206D02*
X1667743Y532771D01*
X1530000Y325000D02*
Y468206D01*
X1526206Y472000D02*
X1530000Y468206D01*
D27*
X3412500Y617500D02*
X3857501D01*
X3852501D02*
X3870001Y600000D01*
D28*
X2324943Y603658D02*
D03*
X1833927Y434522D02*
D03*
X1669222Y532771D02*
D03*
X3525000Y700000D02*
D03*
D29*
X3970001Y180000D02*
D03*
X3770001D02*
D03*
X3870001Y105000D02*
D03*
Y255000D02*
D03*
X4070001D02*
D03*
Y105000D02*
D03*
X3670001D02*
D03*
Y255000D02*
D03*
X3970001Y600000D02*
D03*
X3770001D02*
D03*
X3870001Y525000D02*
D03*
Y675000D02*
D03*
X4070001D02*
D03*
Y525000D02*
D03*
X3670001D02*
D03*
Y675000D02*
D03*
X3970001Y1020000D02*
D03*
X3770001D02*
D03*
X3870001Y945000D02*
D03*
Y1095000D02*
D03*
X4070001D02*
D03*
Y945000D02*
D03*
X3670001D02*
D03*
Y1095000D02*
D03*
X380000Y155000D02*
D03*
X180000D02*
D03*
X280000Y80000D02*
D03*
Y230000D02*
D03*
X480000D02*
D03*
Y80000D02*
D03*
X80000D02*
D03*
Y230000D02*
D03*
X380000Y450000D02*
D03*
X180000D02*
D03*
X280000Y375000D02*
D03*
Y525000D02*
D03*
X480000D02*
D03*
Y375000D02*
D03*
X80000D02*
D03*
Y525000D02*
D03*
X380000Y750000D02*
D03*
X180000D02*
D03*
X280000Y675000D02*
D03*
Y825000D02*
D03*
X480000D02*
D03*
Y675000D02*
D03*
X80000D02*
D03*
Y825000D02*
D03*
X380000Y1045000D02*
D03*
X180000D02*
D03*
X280000Y970000D02*
D03*
Y1120000D02*
D03*
X480000D02*
D03*
Y970000D02*
D03*
X80000D02*
D03*
Y1120000D02*
D03*
%TF.MD5,240162b988d9199b83c6909f68b8693f*%
M02*
