%TF.GenerationSoftware,Altium Limited,Altium Designer,25.8.1 (18)*%
G04 Layer_Physical_Order=2*
G04 Layer_Color=16711680*
%FSLAX45Y45*%
%MOMM*%
%TF.SameCoordinates,C83170FB-7693-46FD-9F59-C890998B4B8C*%
%TF.FilePolarity,Positive*%
%TF.FileFunction,Copper,L2,Bot,Signal*%
%TF.Part,Single*%
G01*
G75*
%TA.AperFunction,Conductor*%
%ADD24C,0.40000*%
%ADD25C,0.30000*%
%TA.AperFunction,ViaPad*%
%ADD28C,0.70000*%
%ADD29C,0.65000*%
G36*
X4105577Y1164555D02*
X4114555Y1155577D01*
X4119414Y1143848D01*
Y1137500D01*
Y781914D01*
X4087500Y750000D01*
X3487500D01*
X3462500Y725000D01*
Y675000D01*
X3437500Y650000D01*
X2343719D01*
X2334889Y653658D01*
X2314997D01*
X2306167Y650000D01*
X600000D01*
X550000Y700000D01*
Y850000D01*
X500000Y900000D01*
X50000D01*
X30586Y919413D01*
Y1137500D01*
Y1143848D01*
X35445Y1155577D01*
X44423Y1164555D01*
X56152Y1169413D01*
X4093848D01*
X4105577Y1164555D01*
D02*
G37*
G36*
X525000Y837500D02*
Y662500D01*
X500000Y637500D01*
X62500D01*
X37500Y662500D01*
Y837500D01*
X62500Y862500D01*
X500000D01*
X525000Y837500D01*
D02*
G37*
G36*
X3600000Y525000D02*
Y487500D01*
X3637500Y450000D01*
X4087500D01*
X4119414Y418086D01*
Y56152D01*
X4114555Y44423D01*
X4105578Y35445D01*
X4093848Y30586D01*
X56152D01*
X44422Y35445D01*
X35445Y44422D01*
X30586Y56152D01*
Y280586D01*
X50000Y300000D01*
X500000D01*
X550000Y350000D01*
Y500000D01*
X600000Y550000D01*
X1614356D01*
X1619222Y542717D01*
Y522826D01*
X1626834Y504449D01*
X1640899Y490383D01*
X1659277Y482771D01*
X1679168D01*
X1697545Y490383D01*
X1711610Y504449D01*
X1719222Y522826D01*
Y532304D01*
X1736918Y550000D01*
X1884590D01*
X1890904Y534756D01*
X1840670Y484522D01*
X1823982D01*
X1805605Y476910D01*
X1791539Y462844D01*
X1783928Y444467D01*
Y424576D01*
X1791539Y406199D01*
X1805605Y392134D01*
X1823982Y384522D01*
X1843873D01*
X1862250Y392134D01*
X1876316Y406199D01*
X1883927Y424576D01*
Y441264D01*
X1949576Y506912D01*
X2399999D01*
X2400000Y506912D01*
X2411705Y509241D01*
X2421629Y515871D01*
X2455757Y550000D01*
X3575000D01*
X3600000Y525000D01*
D02*
G37*
G36*
X4115001Y687500D02*
Y512500D01*
X4090001Y487500D01*
X3652501D01*
X3627501Y512500D01*
Y687500D01*
X3652501Y712500D01*
X4090001D01*
X4115001Y687500D01*
D02*
G37*
G36*
X525000Y537500D02*
Y362500D01*
X500000Y337500D01*
X62500D01*
X37500Y362500D01*
Y537500D01*
X62500Y562500D01*
X500000D01*
X525000Y537500D01*
D02*
G37*
D24*
X1740109Y603658D02*
X2324943D01*
X1669222Y532771D02*
X1740109Y603658D01*
D25*
X1936906Y537500D02*
X2400000D01*
X1833927Y434522D02*
X1936906Y537500D01*
X2400000D02*
X2450000Y587500D01*
X3476903D01*
X3525000Y635597D01*
Y700000D01*
D28*
X2324943Y603658D02*
D03*
X1833927Y434522D02*
D03*
X1669222Y532771D02*
D03*
X3525000Y700000D02*
D03*
D29*
X3970001Y180000D02*
D03*
X3770001D02*
D03*
X3870001Y105000D02*
D03*
Y255000D02*
D03*
X4070001D02*
D03*
Y105000D02*
D03*
X3670001D02*
D03*
Y255000D02*
D03*
X3970001Y600000D02*
D03*
X3770001D02*
D03*
X3870001Y525000D02*
D03*
Y675000D02*
D03*
X4070001D02*
D03*
Y525000D02*
D03*
X3670001D02*
D03*
Y675000D02*
D03*
X3970001Y1020000D02*
D03*
X3770001D02*
D03*
X3870001Y945000D02*
D03*
Y1095000D02*
D03*
X4070001D02*
D03*
Y945000D02*
D03*
X3670001D02*
D03*
Y1095000D02*
D03*
X380000Y155000D02*
D03*
X180000D02*
D03*
X280000Y80000D02*
D03*
Y230000D02*
D03*
X480000D02*
D03*
Y80000D02*
D03*
X80000D02*
D03*
Y230000D02*
D03*
X380000Y450000D02*
D03*
X180000D02*
D03*
X280000Y375000D02*
D03*
Y525000D02*
D03*
X480000D02*
D03*
Y375000D02*
D03*
X80000D02*
D03*
Y525000D02*
D03*
X380000Y750000D02*
D03*
X180000D02*
D03*
X280000Y675000D02*
D03*
Y825000D02*
D03*
X480000D02*
D03*
Y675000D02*
D03*
X80000D02*
D03*
Y825000D02*
D03*
X380000Y1045000D02*
D03*
X180000D02*
D03*
X280000Y970000D02*
D03*
Y1120000D02*
D03*
X480000D02*
D03*
Y970000D02*
D03*
X80000D02*
D03*
Y1120000D02*
D03*
%TF.MD5,8f9270fcac730e5ab5110fc1b099ef86*%
M02*
