%TF.GenerationSoftware,Altium Limited,Altium Designer,25.8.1 (18)*%
G04 Layer_Color=16711935*
%FSLAX45Y45*%
%MOMM*%
%TF.SameCoordinates,C83170FB-7693-46FD-9F59-C890998B4B8C*%
%TF.FilePolarity,Negative*%
%TF.FileFunction,Soldermask,Bot*%
%TF.Part,Single*%
G01*
G75*
%TA.AperFunction,ViaPad*%
%ADD45C,0.80000*%
%ADD46C,0.75000*%
D45*
X2324943Y603658D02*
D03*
X1833927Y434522D02*
D03*
X1669222Y532771D02*
D03*
X3525000Y700000D02*
D03*
D46*
X3970001Y180000D02*
D03*
X3770001D02*
D03*
X3870001Y105000D02*
D03*
Y255000D02*
D03*
X4070001D02*
D03*
Y105000D02*
D03*
X3670001D02*
D03*
Y255000D02*
D03*
X3970001Y600000D02*
D03*
X3770001D02*
D03*
X3870001Y525000D02*
D03*
Y675000D02*
D03*
X4070001D02*
D03*
Y525000D02*
D03*
X3670001D02*
D03*
Y675000D02*
D03*
X3970001Y1020000D02*
D03*
X3770001D02*
D03*
X3870001Y945000D02*
D03*
Y1095000D02*
D03*
X4070001D02*
D03*
Y945000D02*
D03*
X3670001D02*
D03*
Y1095000D02*
D03*
X380000Y155000D02*
D03*
X180000D02*
D03*
X280000Y80000D02*
D03*
Y230000D02*
D03*
X480000D02*
D03*
Y80000D02*
D03*
X80000D02*
D03*
Y230000D02*
D03*
X380000Y450000D02*
D03*
X180000D02*
D03*
X280000Y375000D02*
D03*
Y525000D02*
D03*
X480000D02*
D03*
Y375000D02*
D03*
X80000D02*
D03*
Y525000D02*
D03*
X380000Y750000D02*
D03*
X180000D02*
D03*
X280000Y675000D02*
D03*
Y825000D02*
D03*
X480000D02*
D03*
Y675000D02*
D03*
X80000D02*
D03*
Y825000D02*
D03*
X380000Y1045000D02*
D03*
X180000D02*
D03*
X280000Y970000D02*
D03*
Y1120000D02*
D03*
X480000D02*
D03*
Y970000D02*
D03*
X80000D02*
D03*
Y1120000D02*
D03*
%TF.MD5,f46cf68fcb3972779bf1409d888d93d6*%
M02*
